%TF.GenerationSoftware,KiCad,Pcbnew,8.0.0*%
%TF.CreationDate,2024-03-02T12:55:41+00:00*%
%TF.ProjectId,binClock,62696e43-6c6f-4636-9b2e-6b696361645f,rev?*%
%TF.SameCoordinates,Original*%
%TF.FileFunction,Soldermask,Bot*%
%TF.FilePolarity,Negative*%
%FSLAX46Y46*%
G04 Gerber Fmt 4.6, Leading zero omitted, Abs format (unit mm)*
G04 Created by KiCad (PCBNEW 8.0.0) date 2024-03-02 12:55:41*
%MOMM*%
%LPD*%
G01*
G04 APERTURE LIST*
%ADD10C,3.100000*%
%ADD11C,5.400000*%
%ADD12C,2.600000*%
%ADD13C,4.400000*%
%ADD14R,1.700000X1.700000*%
%ADD15O,1.700000X1.700000*%
%ADD16O,1.524800X2.845600*%
%ADD17C,1.600000*%
%ADD18O,1.600000X1.600000*%
%ADD19C,2.109000*%
%ADD20C,2.000000*%
G04 APERTURE END LIST*
D10*
%TO.C,M2.5*%
X111500000Y-136500000D03*
D11*
X111500000Y-136500000D03*
%TD*%
%TO.C,M2.5*%
X197500000Y-136500000D03*
D10*
X197500000Y-136500000D03*
%TD*%
%TO.C,M2.5*%
X197500000Y-84000000D03*
D11*
X197500000Y-84000000D03*
%TD*%
D10*
%TO.C,M2.5*%
X111500000Y-84000000D03*
D11*
X111500000Y-84000000D03*
%TD*%
D12*
%TO.C,LED GND*%
X132500000Y-84000000D03*
D13*
X132500000Y-84000000D03*
%TD*%
D12*
%TO.C,LED GND*%
X175500000Y-83500000D03*
D13*
X175500000Y-83500000D03*
%TD*%
D14*
%TO.C,R1*%
X182400000Y-84970000D03*
D15*
X184940000Y-84970000D03*
X187480000Y-84970000D03*
X189900000Y-84970000D03*
X190020000Y-87510000D03*
X187480000Y-87510000D03*
X184940000Y-87510000D03*
X182400000Y-87510000D03*
%TD*%
D14*
%TO.C,R2*%
X160900000Y-84970000D03*
D15*
X163440000Y-84970000D03*
X165980000Y-84970000D03*
X168400000Y-84970000D03*
X168520000Y-87510000D03*
X165980000Y-87510000D03*
X163440000Y-87510000D03*
X160900000Y-87510000D03*
%TD*%
D14*
%TO.C,R3*%
X139440000Y-84970000D03*
D15*
X141980000Y-84970000D03*
X144520000Y-84970000D03*
X146940000Y-84970000D03*
X147060000Y-87510000D03*
X144520000Y-87510000D03*
X141980000Y-87510000D03*
X139440000Y-87510000D03*
%TD*%
D14*
%TO.C,R4*%
X117900000Y-84970000D03*
D15*
X120440000Y-84970000D03*
X122980000Y-84970000D03*
X125400000Y-84970000D03*
X125520000Y-87510000D03*
X122980000Y-87510000D03*
X120440000Y-87510000D03*
X117900000Y-87510000D03*
%TD*%
D16*
%TO.C,Register 2*%
X173200000Y-102070000D03*
X170660000Y-102070000D03*
X168120000Y-102070000D03*
X165580000Y-102070000D03*
X163040000Y-102070000D03*
X160500000Y-102070000D03*
X157960000Y-102070000D03*
X155420000Y-102070000D03*
X155420000Y-109690000D03*
X157960000Y-109690000D03*
X160500000Y-109690000D03*
X163040000Y-109690000D03*
X165580000Y-109690000D03*
X168120000Y-109690000D03*
X170660000Y-109690000D03*
X173200000Y-109690000D03*
%TD*%
D17*
%TO.C,C4*%
X193500000Y-112500000D03*
X196000000Y-112500000D03*
%TD*%
%TO.C,C3*%
X172500000Y-112500000D03*
X175000000Y-112500000D03*
%TD*%
%TO.C,C2*%
X150750000Y-112500000D03*
X153250000Y-112500000D03*
%TD*%
%TO.C,C1*%
X129500000Y-112500000D03*
X132000000Y-112500000D03*
%TD*%
%TO.C,R34*%
X189000000Y-91380000D03*
D18*
X189000000Y-99000000D03*
%TD*%
D17*
%TO.C,R33*%
X192000000Y-91380000D03*
D18*
X192000000Y-99000000D03*
%TD*%
D17*
%TO.C,R32*%
X195000000Y-91380000D03*
D18*
X195000000Y-99000000D03*
%TD*%
D17*
%TO.C,R31*%
X183380000Y-113000000D03*
D18*
X191000000Y-113000000D03*
%TD*%
D17*
%TO.C,R30*%
X186000000Y-99000000D03*
D18*
X186000000Y-91380000D03*
%TD*%
D17*
%TO.C,R29*%
X183000000Y-99000000D03*
D18*
X183000000Y-91380000D03*
%TD*%
D17*
%TO.C,R28*%
X180000000Y-99000000D03*
D18*
X180000000Y-91380000D03*
%TD*%
%TO.C,R27*%
X177000000Y-91380000D03*
D17*
X177000000Y-99000000D03*
%TD*%
%TO.C,R26*%
X167500000Y-91380000D03*
D18*
X167500000Y-99000000D03*
%TD*%
D17*
%TO.C,R25*%
X170500000Y-91380000D03*
D18*
X170500000Y-99000000D03*
%TD*%
D17*
%TO.C,R24*%
X173500000Y-91380000D03*
D18*
X173500000Y-99000000D03*
%TD*%
D17*
%TO.C,R23*%
X162380000Y-113000000D03*
D18*
X170000000Y-113000000D03*
%TD*%
D17*
%TO.C,R22*%
X164500000Y-99000000D03*
D18*
X164500000Y-91380000D03*
%TD*%
D17*
%TO.C,R21*%
X161500000Y-99000000D03*
D18*
X161500000Y-91380000D03*
%TD*%
D17*
%TO.C,R20*%
X158500000Y-99000000D03*
D18*
X158500000Y-91380000D03*
%TD*%
D17*
%TO.C,R19*%
X155500000Y-99000000D03*
D18*
X155500000Y-91380000D03*
%TD*%
D17*
%TO.C,R18*%
X146000000Y-91380000D03*
D18*
X146000000Y-99000000D03*
%TD*%
D17*
%TO.C,R17*%
X149000000Y-91380000D03*
D18*
X149000000Y-99000000D03*
%TD*%
D17*
%TO.C,R16*%
X152000000Y-91380000D03*
D18*
X152000000Y-99000000D03*
%TD*%
D17*
%TO.C,R15*%
X140630000Y-113000000D03*
D18*
X148250000Y-113000000D03*
%TD*%
D17*
%TO.C,R14*%
X143000000Y-99000000D03*
D18*
X143000000Y-91380000D03*
%TD*%
D17*
%TO.C,R13*%
X140000000Y-99000000D03*
D18*
X140000000Y-91380000D03*
%TD*%
D17*
%TO.C,R12*%
X137000000Y-99000000D03*
D18*
X137000000Y-91380000D03*
%TD*%
D17*
%TO.C,R11*%
X134000000Y-99000000D03*
D18*
X134000000Y-91380000D03*
%TD*%
D17*
%TO.C,R10*%
X171380000Y-128000000D03*
D18*
X179000000Y-128000000D03*
%TD*%
D17*
%TO.C,R9*%
X124880000Y-128000000D03*
D18*
X132500000Y-128000000D03*
%TD*%
D17*
%TO.C,R8*%
X124500000Y-91380000D03*
D18*
X124500000Y-99000000D03*
%TD*%
D17*
%TO.C,R7*%
X127500000Y-91380000D03*
D18*
X127500000Y-99000000D03*
%TD*%
D17*
%TO.C,R6*%
X130500000Y-91380000D03*
D18*
X130500000Y-99000000D03*
%TD*%
D17*
%TO.C,R5*%
X119380000Y-113000000D03*
D18*
X127000000Y-113000000D03*
%TD*%
D17*
%TO.C,R4*%
X121500000Y-99000000D03*
D18*
X121500000Y-91380000D03*
%TD*%
D17*
%TO.C,R3*%
X118500000Y-99000000D03*
D18*
X118500000Y-91380000D03*
%TD*%
D17*
%TO.C,R2*%
X115500000Y-99000000D03*
D18*
X115500000Y-91380000D03*
%TD*%
D17*
%TO.C,R1*%
X112500000Y-99000000D03*
D18*
X112500000Y-91380000D03*
%TD*%
D16*
%TO.C,Register 4*%
X130390000Y-102000000D03*
X127850000Y-102000000D03*
X125310000Y-102000000D03*
X122770000Y-102000000D03*
X120230000Y-102000000D03*
X117690000Y-102000000D03*
X115150000Y-102000000D03*
X112610000Y-102000000D03*
X112610000Y-109620000D03*
X115150000Y-109620000D03*
X117690000Y-109620000D03*
X120230000Y-109620000D03*
X122770000Y-109620000D03*
X125310000Y-109620000D03*
X127850000Y-109620000D03*
X130390000Y-109620000D03*
%TD*%
D19*
%TO.C,ESP32-C3 Supermini*%
X145760000Y-119500000D03*
X145760000Y-122040000D03*
X145760000Y-124580000D03*
X145760000Y-127120000D03*
X145760000Y-132200000D03*
X145760000Y-129660000D03*
X161000000Y-137280000D03*
X145760000Y-137280000D03*
X161000000Y-134740000D03*
X161000000Y-132200000D03*
X161000000Y-129660000D03*
X161000000Y-127120000D03*
X161000000Y-124580000D03*
X161000000Y-122040000D03*
X161000000Y-119500000D03*
X145760000Y-134740000D03*
%TD*%
D16*
%TO.C,Register 1*%
X194740000Y-102000000D03*
X192200000Y-102000000D03*
X189660000Y-102000000D03*
X187120000Y-102000000D03*
X184580000Y-102000000D03*
X182040000Y-102000000D03*
X179500000Y-102000000D03*
X176960000Y-102000000D03*
X176960000Y-109620000D03*
X179500000Y-109620000D03*
X182040000Y-109620000D03*
X184580000Y-109620000D03*
X187120000Y-109620000D03*
X189660000Y-109620000D03*
X192200000Y-109620000D03*
X194740000Y-109620000D03*
%TD*%
D20*
%TO.C,SW2*%
X174500000Y-138000000D03*
X174500000Y-131500000D03*
X179000000Y-138000000D03*
X179000000Y-131500000D03*
%TD*%
D16*
%TO.C,Register 3*%
X151700000Y-102070000D03*
X149160000Y-102070000D03*
X146620000Y-102070000D03*
X144080000Y-102070000D03*
X141540000Y-102070000D03*
X139000000Y-102070000D03*
X136460000Y-102070000D03*
X133920000Y-102070000D03*
X133920000Y-109690000D03*
X136460000Y-109690000D03*
X139000000Y-109690000D03*
X141540000Y-109690000D03*
X144080000Y-109690000D03*
X146620000Y-109690000D03*
X149160000Y-109690000D03*
X151700000Y-109690000D03*
%TD*%
D20*
%TO.C,SW1*%
X128000000Y-138000000D03*
X128000000Y-131500000D03*
X132500000Y-138000000D03*
X132500000Y-131500000D03*
%TD*%
M02*
