G04 #@! TF.GenerationSoftware,KiCad,Pcbnew,8.0.0*
G04 #@! TF.CreationDate,2024-03-17T17:04:49+00:00*
G04 #@! TF.ProjectId,binClock,62696e43-6c6f-4636-9b2e-6b696361645f,rev?*
G04 #@! TF.SameCoordinates,Original*
G04 #@! TF.FileFunction,Copper,L1,Top*
G04 #@! TF.FilePolarity,Positive*
%FSLAX46Y46*%
G04 Gerber Fmt 4.6, Leading zero omitted, Abs format (unit mm)*
G04 Created by KiCad (PCBNEW 8.0.0) date 2024-03-17 17:04:49*
%MOMM*%
%LPD*%
G01*
G04 APERTURE LIST*
G04 #@! TA.AperFunction,ComponentPad*
%ADD10O,1.320800X2.641600*%
G04 #@! TD*
G04 #@! TA.AperFunction,ComponentPad*
%ADD11C,3.100000*%
G04 #@! TD*
G04 #@! TA.AperFunction,ConnectorPad*
%ADD12C,5.400000*%
G04 #@! TD*
G04 #@! TA.AperFunction,ComponentPad*
%ADD13R,1.700000X1.700000*%
G04 #@! TD*
G04 #@! TA.AperFunction,ComponentPad*
%ADD14O,1.700000X1.700000*%
G04 #@! TD*
G04 #@! TA.AperFunction,ComponentPad*
%ADD15C,1.600000*%
G04 #@! TD*
G04 #@! TA.AperFunction,ComponentPad*
%ADD16O,1.600000X1.600000*%
G04 #@! TD*
G04 #@! TA.AperFunction,ComponentPad*
%ADD17C,2.600000*%
G04 #@! TD*
G04 #@! TA.AperFunction,ConnectorPad*
%ADD18C,4.400000*%
G04 #@! TD*
G04 #@! TA.AperFunction,ComponentPad*
%ADD19C,1.905000*%
G04 #@! TD*
G04 #@! TA.AperFunction,ComponentPad*
%ADD20C,2.000000*%
G04 #@! TD*
G04 #@! TA.AperFunction,ViaPad*
%ADD21C,0.600000*%
G04 #@! TD*
G04 #@! TA.AperFunction,Conductor*
%ADD22C,0.500000*%
G04 #@! TD*
G04 #@! TA.AperFunction,Conductor*
%ADD23C,0.400000*%
G04 #@! TD*
G04 APERTURE END LIST*
D10*
X173200000Y-102070000D03*
X170660000Y-102070000D03*
X168120000Y-102070000D03*
X165580000Y-102070000D03*
X163040000Y-102070000D03*
X160500000Y-102070000D03*
X157960000Y-102070000D03*
X155420000Y-102070000D03*
X155420000Y-109690000D03*
X157960000Y-109690000D03*
X160500000Y-109690000D03*
X163040000Y-109690000D03*
X165580000Y-109690000D03*
X168120000Y-109690000D03*
X170660000Y-109690000D03*
X173200000Y-109690000D03*
D11*
X197500000Y-136500000D03*
D12*
X197500000Y-136500000D03*
D13*
X117900000Y-84970000D03*
D14*
X120440000Y-84970000D03*
X122980000Y-84970000D03*
X125400000Y-84970000D03*
X125520000Y-87510000D03*
X122980000Y-87510000D03*
X120440000Y-87510000D03*
X117900000Y-87510000D03*
D13*
X160900000Y-84970000D03*
D14*
X163440000Y-84970000D03*
X165980000Y-84970000D03*
X168400000Y-84970000D03*
X168520000Y-87510000D03*
X165980000Y-87510000D03*
X163440000Y-87510000D03*
X160900000Y-87510000D03*
D11*
X197500000Y-84000000D03*
D12*
X197500000Y-84000000D03*
D10*
X130390000Y-102000000D03*
X127850000Y-102000000D03*
X125310000Y-102000000D03*
X122770000Y-102000000D03*
X120230000Y-102000000D03*
X117690000Y-102000000D03*
X115150000Y-102000000D03*
X112610000Y-102000000D03*
X112610000Y-109620000D03*
X115150000Y-109620000D03*
X117690000Y-109620000D03*
X120230000Y-109620000D03*
X122770000Y-109620000D03*
X125310000Y-109620000D03*
X127850000Y-109620000D03*
X130390000Y-109620000D03*
D15*
X195000000Y-91380000D03*
D16*
X195000000Y-99000000D03*
D15*
X137000000Y-99000000D03*
D16*
X137000000Y-91380000D03*
D17*
X175500000Y-83500000D03*
D18*
X175500000Y-83500000D03*
D15*
X134000000Y-99000000D03*
D16*
X134000000Y-91380000D03*
D15*
X124880000Y-128000000D03*
D16*
X132500000Y-128000000D03*
D17*
X132500000Y-84000000D03*
D18*
X132500000Y-84000000D03*
D15*
X167500000Y-91380000D03*
D16*
X167500000Y-99000000D03*
D15*
X170500000Y-91380000D03*
D16*
X170500000Y-99000000D03*
D15*
X121500000Y-99000000D03*
D16*
X121500000Y-91380000D03*
D15*
X124500000Y-91380000D03*
D16*
X124500000Y-99000000D03*
D15*
X186000000Y-99000000D03*
D16*
X186000000Y-91380000D03*
D19*
X145760000Y-119500000D03*
X145760000Y-122040000D03*
X145760000Y-124580000D03*
X145760000Y-127120000D03*
X145760000Y-132200000D03*
X145760000Y-129660000D03*
X161000000Y-137280000D03*
X145760000Y-137280000D03*
X161000000Y-134740000D03*
X161000000Y-132200000D03*
X161000000Y-129660000D03*
X161000000Y-127120000D03*
X161000000Y-124580000D03*
X161000000Y-122040000D03*
X161000000Y-119500000D03*
X145760000Y-134740000D03*
D15*
X112500000Y-99000000D03*
D16*
X112500000Y-91380000D03*
D15*
X152000000Y-91380000D03*
D16*
X152000000Y-99000000D03*
D15*
X143000000Y-99000000D03*
D16*
X143000000Y-91380000D03*
D15*
X173500000Y-91380000D03*
D16*
X173500000Y-99000000D03*
D10*
X194740000Y-102000000D03*
X192200000Y-102000000D03*
X189660000Y-102000000D03*
X187120000Y-102000000D03*
X184580000Y-102000000D03*
X182040000Y-102000000D03*
X179500000Y-102000000D03*
X176960000Y-102000000D03*
X176960000Y-109620000D03*
X179500000Y-109620000D03*
X182040000Y-109620000D03*
X184580000Y-109620000D03*
X187120000Y-109620000D03*
X189660000Y-109620000D03*
X192200000Y-109620000D03*
X194740000Y-109620000D03*
D15*
X129500000Y-112500000D03*
X132000000Y-112500000D03*
X115500000Y-99000000D03*
D16*
X115500000Y-91380000D03*
D15*
X149000000Y-91380000D03*
D16*
X149000000Y-99000000D03*
D15*
X162380000Y-113000000D03*
D16*
X170000000Y-113000000D03*
D20*
X174500000Y-138000000D03*
X174500000Y-131500000D03*
X179000000Y-138000000D03*
X179000000Y-131500000D03*
D11*
X111500000Y-84000000D03*
D12*
X111500000Y-84000000D03*
D15*
X192000000Y-91380000D03*
D16*
X192000000Y-99000000D03*
D15*
X164500000Y-99000000D03*
D16*
X164500000Y-91380000D03*
D15*
X183000000Y-99000000D03*
D16*
X183000000Y-91380000D03*
D15*
X177000000Y-99000000D03*
D16*
X177000000Y-91380000D03*
D15*
X172500000Y-112500000D03*
X175000000Y-112500000D03*
X140630000Y-113000000D03*
D16*
X148250000Y-113000000D03*
D15*
X158500000Y-99000000D03*
D16*
X158500000Y-91380000D03*
D15*
X193500000Y-112500000D03*
X196000000Y-112500000D03*
D10*
X151700000Y-102070000D03*
X149160000Y-102070000D03*
X146620000Y-102070000D03*
X144080000Y-102070000D03*
X141540000Y-102070000D03*
X139000000Y-102070000D03*
X136460000Y-102070000D03*
X133920000Y-102070000D03*
X133920000Y-109690000D03*
X136460000Y-109690000D03*
X139000000Y-109690000D03*
X141540000Y-109690000D03*
X144080000Y-109690000D03*
X146620000Y-109690000D03*
X149160000Y-109690000D03*
X151700000Y-109690000D03*
D20*
X128000000Y-138000000D03*
X128000000Y-131500000D03*
X132500000Y-138000000D03*
X132500000Y-131500000D03*
D15*
X189000000Y-91380000D03*
D16*
X189000000Y-99000000D03*
D15*
X180000000Y-99000000D03*
D16*
X180000000Y-91380000D03*
D15*
X118500000Y-99000000D03*
D16*
X118500000Y-91380000D03*
D11*
X111500000Y-136500000D03*
D12*
X111500000Y-136500000D03*
D15*
X130500000Y-91380000D03*
D16*
X130500000Y-99000000D03*
D15*
X155500000Y-99000000D03*
D16*
X155500000Y-91380000D03*
D13*
X139440000Y-84970000D03*
D14*
X141980000Y-84970000D03*
X144520000Y-84970000D03*
X146940000Y-84970000D03*
X147060000Y-87510000D03*
X144520000Y-87510000D03*
X141980000Y-87510000D03*
X139440000Y-87510000D03*
D15*
X150750000Y-112500000D03*
X153250000Y-112500000D03*
X161500000Y-99000000D03*
D16*
X161500000Y-91380000D03*
D15*
X140000000Y-99000000D03*
D16*
X140000000Y-91380000D03*
D15*
X171380000Y-128000000D03*
D16*
X179000000Y-128000000D03*
D15*
X183380000Y-113000000D03*
D16*
X191000000Y-113000000D03*
D13*
X182400000Y-84970000D03*
D14*
X184940000Y-84970000D03*
X187480000Y-84970000D03*
X189900000Y-84970000D03*
X190020000Y-87510000D03*
X187480000Y-87510000D03*
X184940000Y-87510000D03*
X182400000Y-87510000D03*
D15*
X146000000Y-91380000D03*
D16*
X146000000Y-99000000D03*
D15*
X119380000Y-113000000D03*
D16*
X127000000Y-113000000D03*
D15*
X127500000Y-91380000D03*
D16*
X127500000Y-99000000D03*
D21*
X135500000Y-115000000D03*
X129000000Y-107000000D03*
X174000000Y-106000000D03*
X157000000Y-107000000D03*
X170000000Y-105000000D03*
X156000000Y-104000000D03*
X143000000Y-105000000D03*
X135000000Y-106000000D03*
X183000000Y-106000000D03*
X118500000Y-106000000D03*
X151000000Y-118000000D03*
D22*
X115150000Y-101650000D02*
X112500000Y-99000000D01*
X115150000Y-102000000D02*
X115150000Y-101650000D01*
X117690000Y-101190000D02*
X115500000Y-99000000D01*
X117690000Y-102000000D02*
X117690000Y-101190000D01*
X116570000Y-91380000D02*
X120440000Y-87510000D01*
X115500000Y-91380000D02*
X116570000Y-91380000D01*
X121500000Y-91380000D02*
X125370000Y-87510000D01*
X125370000Y-87510000D02*
X125520000Y-87510000D01*
X118500000Y-91380000D02*
X122370000Y-87510000D01*
X122370000Y-87510000D02*
X122980000Y-87510000D01*
X128299999Y-90580001D02*
X128299999Y-85799999D01*
X127500000Y-91380000D02*
X128299999Y-90580001D01*
X124280000Y-83670000D02*
X122980000Y-84970000D01*
X128299999Y-85799999D02*
X126170000Y-83670000D01*
X126170000Y-83670000D02*
X124280000Y-83670000D01*
X122440000Y-82970000D02*
X120440000Y-84970000D01*
X130500000Y-91380000D02*
X130500000Y-87010051D01*
X130500000Y-87010051D02*
X126459950Y-82970000D01*
X126459950Y-82970000D02*
X122440000Y-82970000D01*
X112500000Y-91380000D02*
X116370000Y-87510000D01*
X116370000Y-87510000D02*
X117900000Y-87510000D01*
D23*
X132000000Y-87590812D02*
X126729189Y-82320000D01*
X132000000Y-115000000D02*
X134000000Y-113000000D01*
X134000000Y-113000000D02*
X134000000Y-111930032D01*
X119000000Y-113000000D02*
X121000000Y-115000000D01*
X126729189Y-82320000D02*
X120550000Y-82320000D01*
X120550000Y-82320000D02*
X117900000Y-84970000D01*
X132000000Y-109930032D02*
X132000000Y-87590812D01*
X119380000Y-113000000D02*
X119000000Y-113000000D01*
X134000000Y-111930032D02*
X132000000Y-109930032D01*
X121000000Y-115000000D02*
X132000000Y-115000000D01*
D22*
X126820000Y-89060000D02*
X126820000Y-86390000D01*
X126820000Y-86390000D02*
X125400000Y-84970000D01*
X124500000Y-91380000D02*
X126820000Y-89060000D01*
X138110000Y-91380000D02*
X141980000Y-87510000D01*
X137000000Y-91380000D02*
X138110000Y-91380000D01*
X143980000Y-82970000D02*
X141980000Y-84970000D01*
X152000000Y-91380000D02*
X152000000Y-87201573D01*
X152000000Y-87201573D02*
X147768427Y-82970000D01*
X147768427Y-82970000D02*
X143980000Y-82970000D01*
X140000000Y-91380000D02*
X143870000Y-87510000D01*
X143870000Y-87510000D02*
X144520000Y-87510000D01*
X149799999Y-90580001D02*
X149799999Y-85991521D01*
X149000000Y-91380000D02*
X149799999Y-90580001D01*
X147478478Y-83670000D02*
X145820000Y-83670000D01*
X145820000Y-83670000D02*
X144520000Y-84970000D01*
X149799999Y-85991521D02*
X147478478Y-83670000D01*
X143000000Y-91380000D02*
X146870000Y-87510000D01*
X146870000Y-87510000D02*
X147060000Y-87510000D01*
X137870000Y-87510000D02*
X139440000Y-87510000D01*
X134000000Y-91380000D02*
X137870000Y-87510000D01*
X146000000Y-91380000D02*
X148360000Y-89020000D01*
X148360000Y-89020000D02*
X148360000Y-86390000D01*
X148360000Y-86390000D02*
X146940000Y-84970000D01*
D23*
X154000000Y-115000000D02*
X155000000Y-114000000D01*
X142410000Y-82000000D02*
X139440000Y-84970000D01*
X140630000Y-113000000D02*
X142630000Y-115000000D01*
X154000000Y-88282335D02*
X147717665Y-82000000D01*
X142630000Y-115000000D02*
X154000000Y-115000000D01*
X154000000Y-111000000D02*
X154000000Y-88282335D01*
X155000000Y-112000000D02*
X154000000Y-111000000D01*
X147717665Y-82000000D02*
X142410000Y-82000000D01*
X155000000Y-114000000D02*
X155000000Y-112000000D01*
X162380000Y-113000000D02*
X164100400Y-111279600D01*
X169497665Y-82320000D02*
X163550000Y-82320000D01*
X164100400Y-111279600D02*
X164100400Y-107899600D01*
X165000000Y-107000000D02*
X170430032Y-107000000D01*
X175000000Y-87822335D02*
X169497665Y-82320000D01*
X175000000Y-102430032D02*
X175000000Y-87822335D01*
X170430032Y-107000000D02*
X175000000Y-102430032D01*
X163550000Y-82320000D02*
X160900000Y-84970000D01*
X164100400Y-107899600D02*
X165000000Y-107000000D01*
D22*
X161500000Y-91380000D02*
X165370000Y-87510000D01*
X165370000Y-87510000D02*
X165980000Y-87510000D01*
X159370000Y-87510000D02*
X160900000Y-87510000D01*
X155500000Y-91380000D02*
X159370000Y-87510000D01*
X168370000Y-87510000D02*
X168520000Y-87510000D01*
X164500000Y-91380000D02*
X168370000Y-87510000D01*
X167500000Y-91380000D02*
X169820000Y-89060000D01*
X169820000Y-89060000D02*
X169820000Y-86390000D01*
X169820000Y-86390000D02*
X168400000Y-84970000D01*
X173500000Y-87241573D02*
X169228427Y-82970000D01*
X165440000Y-82970000D02*
X163440000Y-84970000D01*
X169228427Y-82970000D02*
X165440000Y-82970000D01*
X173500000Y-91380000D02*
X173500000Y-87241573D01*
X167280000Y-83670000D02*
X165980000Y-84970000D01*
X168938478Y-83670000D02*
X167280000Y-83670000D01*
X171299999Y-86031521D02*
X168938478Y-83670000D01*
X171299999Y-90580001D02*
X171299999Y-86031521D01*
X170500000Y-91380000D02*
X171299999Y-90580001D01*
X158500000Y-91380000D02*
X159570000Y-91380000D01*
X159570000Y-91380000D02*
X163440000Y-87510000D01*
D23*
X195000000Y-105000000D02*
X196200000Y-103800000D01*
X185050000Y-82320000D02*
X182400000Y-84970000D01*
X187000000Y-106820032D02*
X188820032Y-105000000D01*
X183380000Y-113000000D02*
X186059600Y-110320400D01*
X186059600Y-107940400D02*
X187000000Y-107000000D01*
X186059600Y-110320400D02*
X186059600Y-107940400D01*
X196200000Y-103800000D02*
X196200000Y-87522335D01*
X188820032Y-105000000D02*
X195000000Y-105000000D01*
X196200000Y-87522335D02*
X190997665Y-82320000D01*
X187000000Y-107000000D02*
X187000000Y-106820032D01*
X190997665Y-82320000D02*
X185050000Y-82320000D01*
D22*
X177000000Y-91380000D02*
X180870000Y-87510000D01*
X180870000Y-87510000D02*
X182400000Y-87510000D01*
X188780000Y-83670000D02*
X187480000Y-84970000D01*
X192000000Y-91380000D02*
X192020000Y-91360000D01*
X190438478Y-83670000D02*
X188780000Y-83670000D01*
X192020000Y-85251522D02*
X190438478Y-83670000D01*
X192020000Y-91360000D02*
X192020000Y-85251522D01*
X186870000Y-87510000D02*
X187480000Y-87510000D01*
X183000000Y-91380000D02*
X186870000Y-87510000D01*
X189000000Y-91380000D02*
X191320000Y-89060000D01*
X191320000Y-89060000D02*
X191320000Y-86390000D01*
X191320000Y-86390000D02*
X189900000Y-84970000D01*
X186940000Y-82970000D02*
X184940000Y-84970000D01*
X195000000Y-87241573D02*
X190728427Y-82970000D01*
X195000000Y-91380000D02*
X195000000Y-87241573D01*
X190728427Y-82970000D02*
X186940000Y-82970000D01*
X186000000Y-91380000D02*
X189870000Y-87510000D01*
X189870000Y-87510000D02*
X190020000Y-87510000D01*
X181070000Y-91380000D02*
X184940000Y-87510000D01*
X180000000Y-91380000D02*
X181070000Y-91380000D01*
X148250000Y-113000000D02*
X148250000Y-110600000D01*
X148250000Y-110600000D02*
X149160000Y-109690000D01*
X151700000Y-102070000D02*
X151700000Y-99300000D01*
X151700000Y-99300000D02*
X152000000Y-99000000D01*
X149160000Y-102070000D02*
X149160000Y-99160000D01*
X149160000Y-99160000D02*
X149000000Y-99000000D01*
X146620000Y-99620000D02*
X146000000Y-99000000D01*
X146620000Y-102070000D02*
X146620000Y-99620000D01*
X144080000Y-100080000D02*
X143000000Y-99000000D01*
X144080000Y-102070000D02*
X144080000Y-100080000D01*
X141540000Y-100540000D02*
X140000000Y-99000000D01*
X141540000Y-102070000D02*
X141540000Y-100540000D01*
X139000000Y-102070000D02*
X139000000Y-101000000D01*
X139000000Y-101000000D02*
X137000000Y-99000000D01*
X136460000Y-102070000D02*
X136460000Y-101460000D01*
X136460000Y-101460000D02*
X134000000Y-99000000D01*
X120230000Y-100730000D02*
X118500000Y-99000000D01*
X120230000Y-102000000D02*
X120230000Y-100730000D01*
X122770000Y-100270000D02*
X121500000Y-99000000D01*
X122770000Y-102000000D02*
X122770000Y-100270000D01*
X127000000Y-110470000D02*
X127850000Y-109620000D01*
X127000000Y-113000000D02*
X127000000Y-110470000D01*
X130390000Y-99110000D02*
X130500000Y-99000000D01*
X130390000Y-102000000D02*
X130390000Y-99110000D01*
X127850000Y-99350000D02*
X127500000Y-99000000D01*
X127850000Y-102000000D02*
X127850000Y-99350000D01*
X125310000Y-99810000D02*
X124500000Y-99000000D01*
X125310000Y-102000000D02*
X125310000Y-99810000D01*
X137260000Y-128000000D02*
X145760000Y-119500000D01*
X132500000Y-128000000D02*
X132500000Y-131500000D01*
X132500000Y-128000000D02*
X137260000Y-128000000D01*
X132500000Y-131500000D02*
X132500000Y-138000000D01*
X152000000Y-128280000D02*
X145760000Y-122040000D01*
X179000000Y-138000000D02*
X177000000Y-136000000D01*
X179000000Y-131500000D02*
X179000000Y-128000000D01*
X177000000Y-136000000D02*
X169000000Y-136000000D01*
X169000000Y-136000000D02*
X166317500Y-138682500D01*
X153682500Y-138682500D02*
X152000000Y-137000000D01*
X166317500Y-138682500D02*
X153682500Y-138682500D01*
X179000000Y-138000000D02*
X179000000Y-131500000D01*
X152000000Y-137000000D02*
X152000000Y-128280000D01*
X157960000Y-102070000D02*
X157960000Y-101460000D01*
X157960000Y-101460000D02*
X155500000Y-99000000D01*
X160500000Y-101000000D02*
X158500000Y-99000000D01*
X160500000Y-102070000D02*
X160500000Y-101000000D01*
X163040000Y-102070000D02*
X163040000Y-100540000D01*
X163040000Y-100540000D02*
X161500000Y-99000000D01*
X165580000Y-102070000D02*
X165580000Y-100080000D01*
X165580000Y-100080000D02*
X164500000Y-99000000D01*
X170000000Y-110350000D02*
X170660000Y-109690000D01*
X170000000Y-113000000D02*
X170000000Y-110350000D01*
X173200000Y-99300000D02*
X173500000Y-99000000D01*
X173200000Y-102070000D02*
X173200000Y-99300000D01*
X170660000Y-99160000D02*
X170500000Y-99000000D01*
X170660000Y-102070000D02*
X170660000Y-99160000D01*
X168120000Y-102070000D02*
X168120000Y-99620000D01*
X168120000Y-99620000D02*
X167500000Y-99000000D01*
X179500000Y-102000000D02*
X179500000Y-101500000D01*
X179500000Y-101500000D02*
X177000000Y-99000000D01*
X182040000Y-102000000D02*
X182040000Y-101040000D01*
X182040000Y-101040000D02*
X180000000Y-99000000D01*
X184580000Y-100580000D02*
X183000000Y-99000000D01*
X184580000Y-102000000D02*
X184580000Y-100580000D01*
X187120000Y-102000000D02*
X187120000Y-100120000D01*
X187120000Y-100120000D02*
X186000000Y-99000000D01*
X191000000Y-110820000D02*
X192200000Y-109620000D01*
X191000000Y-113000000D02*
X191000000Y-110820000D01*
X194740000Y-99260000D02*
X195000000Y-99000000D01*
X194740000Y-102000000D02*
X194740000Y-99260000D01*
X192200000Y-99200000D02*
X192000000Y-99000000D01*
X192200000Y-102000000D02*
X192200000Y-99200000D01*
X189660000Y-99660000D02*
X189000000Y-99000000D01*
X189660000Y-102000000D02*
X189660000Y-99660000D01*
X118130000Y-114130000D02*
X119650000Y-115650000D01*
X118000000Y-105000000D02*
X122000000Y-105000000D01*
X118862233Y-111750000D02*
X118130000Y-112482233D01*
X139000000Y-113137767D02*
X141512233Y-115650000D01*
X124199600Y-107199600D02*
X124199600Y-110740343D01*
X167000000Y-120000000D02*
X171660000Y-120000000D01*
X118130000Y-112482233D02*
X118130000Y-114130000D01*
X171660000Y-120000000D02*
X182040000Y-109620000D01*
X160500000Y-109690000D02*
X165190000Y-105000000D01*
X133040000Y-115650000D02*
X139000000Y-109690000D01*
X119650000Y-115650000D02*
X133040000Y-115650000D01*
X117000000Y-108930000D02*
X117000000Y-106000000D01*
X141512233Y-115650000D02*
X154540000Y-115650000D01*
X122000000Y-105000000D02*
X124199600Y-107199600D01*
X139000000Y-109690000D02*
X139000000Y-113137767D01*
X163000000Y-124000000D02*
X167000000Y-120000000D01*
X124199600Y-110740343D02*
X123189943Y-111750000D01*
X161000000Y-129660000D02*
X163000000Y-127660000D01*
X163000000Y-127660000D02*
X163000000Y-124000000D01*
X154540000Y-115650000D02*
X160500000Y-109690000D01*
X117000000Y-106000000D02*
X118000000Y-105000000D01*
X165190000Y-105000000D02*
X170000000Y-105000000D01*
X123189943Y-111750000D02*
X118862233Y-111750000D01*
X117690000Y-109620000D02*
X117000000Y-108930000D01*
X155420000Y-105580000D02*
X155420000Y-109690000D01*
X156000000Y-104000000D02*
X156000000Y-105000000D01*
X156000000Y-105000000D02*
X155420000Y-105580000D01*
X146620000Y-108620000D02*
X146620000Y-109690000D01*
X143000000Y-105000000D02*
X146620000Y-108620000D01*
X184380000Y-109620000D02*
X184580000Y-109620000D01*
X164000000Y-129200000D02*
X164000000Y-125000000D01*
X161000000Y-132200000D02*
X164000000Y-129200000D01*
X164000000Y-125000000D02*
X168000000Y-121000000D01*
X168000000Y-121000000D02*
X173000000Y-121000000D01*
X173000000Y-121000000D02*
X184380000Y-109620000D01*
X161000000Y-137280000D02*
X157280000Y-137280000D01*
X140390000Y-106000000D02*
X144080000Y-109690000D01*
X151000000Y-118000000D02*
X155000000Y-118000000D01*
X155000000Y-135000000D02*
X155000000Y-118000000D01*
X165580000Y-109690000D02*
X165580000Y-108420000D01*
X163000000Y-116000000D02*
X165580000Y-113420000D01*
X135000000Y-106000000D02*
X140390000Y-106000000D01*
X122770000Y-107770000D02*
X121000000Y-106000000D01*
X121000000Y-106000000D02*
X120000000Y-106000000D01*
X167620000Y-107650000D02*
X165580000Y-109690000D01*
X155000000Y-118000000D02*
X157000000Y-116000000D01*
X165580000Y-113420000D02*
X165580000Y-109690000D01*
X157000000Y-116000000D02*
X163000000Y-116000000D01*
X183000000Y-106000000D02*
X181350000Y-107650000D01*
X181350000Y-107650000D02*
X167620000Y-107650000D01*
X157280000Y-137280000D02*
X155000000Y-135000000D01*
X122770000Y-109620000D02*
X122770000Y-107770000D01*
X120000000Y-106000000D02*
X118500000Y-106000000D01*
X165580000Y-109690000D02*
X165580000Y-108580000D01*
X176280000Y-123000000D02*
X189660000Y-109620000D01*
X166000000Y-126000000D02*
X169000000Y-123000000D01*
X169000000Y-123000000D02*
X176280000Y-123000000D01*
X166000000Y-129740000D02*
X166000000Y-126000000D01*
X161000000Y-134740000D02*
X166000000Y-129740000D01*
X168120000Y-109690000D02*
X168120000Y-112887767D01*
X170232233Y-115000000D02*
X174267767Y-115000000D01*
X176960000Y-112307767D02*
X176960000Y-109620000D01*
X168120000Y-112887767D02*
X170232233Y-115000000D01*
X174267767Y-115000000D02*
X176960000Y-112307767D01*
G04 #@! TA.AperFunction,Conductor*
G36*
X110470278Y-137379466D02*
G01*
X110620534Y-137529722D01*
X110738281Y-137615270D01*
X109420397Y-138933154D01*
X109501693Y-139005806D01*
X109794805Y-139213781D01*
X109794810Y-139213784D01*
X109891046Y-139266972D01*
X109940199Y-139316629D01*
X109954702Y-139384977D01*
X109929952Y-139450316D01*
X109873805Y-139491901D01*
X109831065Y-139499500D01*
X108624500Y-139499500D01*
X108557461Y-139479815D01*
X108511706Y-139427011D01*
X108500500Y-139375500D01*
X108500500Y-138168934D01*
X108520185Y-138101895D01*
X108572989Y-138056140D01*
X108642147Y-138046196D01*
X108705703Y-138075221D01*
X108733028Y-138108953D01*
X108786215Y-138205189D01*
X108786218Y-138205194D01*
X108994193Y-138498306D01*
X109066844Y-138579601D01*
X110384728Y-137261717D01*
X110470278Y-137379466D01*
G37*
G04 #@! TD.AperFunction*
G04 #@! TA.AperFunction,Conductor*
G36*
X174037880Y-81020185D02*
G01*
X174083635Y-81072989D01*
X174093579Y-81142147D01*
X174064554Y-81205703D01*
X174034991Y-81230617D01*
X173963422Y-81273881D01*
X173963416Y-81273886D01*
X173775030Y-81421474D01*
X173775029Y-81421476D01*
X174917262Y-82563709D01*
X174783398Y-82660967D01*
X174660967Y-82783398D01*
X174563709Y-82917262D01*
X173421476Y-81775029D01*
X173421474Y-81775030D01*
X173273886Y-81963416D01*
X173273881Y-81963422D01*
X173104898Y-82242956D01*
X173104897Y-82242958D01*
X172970839Y-82540824D01*
X172970835Y-82540835D01*
X172873667Y-82852658D01*
X172814786Y-83173961D01*
X172795065Y-83500000D01*
X172814786Y-83826038D01*
X172873667Y-84147341D01*
X172970835Y-84459164D01*
X172970844Y-84459188D01*
X172974123Y-84466474D01*
X172983684Y-84535686D01*
X172954309Y-84599081D01*
X172895322Y-84636529D01*
X172825454Y-84636143D01*
X172773365Y-84605042D01*
X169944210Y-81775887D01*
X169829472Y-81699222D01*
X169701997Y-81646421D01*
X169701987Y-81646418D01*
X169566661Y-81619500D01*
X169566659Y-81619500D01*
X169566658Y-81619500D01*
X163618994Y-81619500D01*
X163481006Y-81619500D01*
X163481004Y-81619500D01*
X163345677Y-81646418D01*
X163345667Y-81646421D01*
X163218192Y-81699222D01*
X163103454Y-81775887D01*
X161296160Y-83583181D01*
X161234837Y-83616666D01*
X161208479Y-83619500D01*
X160002129Y-83619500D01*
X160002123Y-83619501D01*
X159942516Y-83625908D01*
X159807671Y-83676202D01*
X159807664Y-83676206D01*
X159692455Y-83762452D01*
X159692452Y-83762455D01*
X159606206Y-83877664D01*
X159606202Y-83877671D01*
X159555908Y-84012517D01*
X159549501Y-84072116D01*
X159549500Y-84072135D01*
X159549500Y-85867870D01*
X159549501Y-85867876D01*
X159555908Y-85927483D01*
X159606202Y-86062328D01*
X159606206Y-86062335D01*
X159692452Y-86177544D01*
X159692455Y-86177547D01*
X159807664Y-86263793D01*
X159807671Y-86263797D01*
X159939081Y-86312810D01*
X159995015Y-86354681D01*
X160019432Y-86420145D01*
X160004580Y-86488418D01*
X159983430Y-86516673D01*
X159861503Y-86638600D01*
X159813874Y-86706623D01*
X159759297Y-86750248D01*
X159712299Y-86759500D01*
X159296080Y-86759500D01*
X159151092Y-86788340D01*
X159151082Y-86788343D01*
X159014511Y-86844912D01*
X159014498Y-86844919D01*
X158891584Y-86927048D01*
X158891580Y-86927051D01*
X155765348Y-90053282D01*
X155704025Y-90086767D01*
X155666861Y-90089129D01*
X155500003Y-90074532D01*
X155499998Y-90074532D01*
X155273313Y-90094364D01*
X155273302Y-90094366D01*
X155053511Y-90153258D01*
X155053502Y-90153262D01*
X154876905Y-90235611D01*
X154807827Y-90246103D01*
X154744043Y-90217583D01*
X154705804Y-90159107D01*
X154700500Y-90123229D01*
X154700500Y-88213339D01*
X154673581Y-88078012D01*
X154673580Y-88078011D01*
X154673580Y-88078007D01*
X154656741Y-88037355D01*
X154651707Y-88025201D01*
X154650999Y-88023491D01*
X154620778Y-87950530D01*
X154620771Y-87950517D01*
X154544115Y-87835794D01*
X154540289Y-87831968D01*
X154446542Y-87738221D01*
X152879408Y-86171087D01*
X148164211Y-81455888D01*
X148164210Y-81455887D01*
X148049472Y-81379222D01*
X147921997Y-81326421D01*
X147921987Y-81326418D01*
X147786661Y-81299500D01*
X147786659Y-81299500D01*
X147786658Y-81299500D01*
X142341007Y-81299500D01*
X142341003Y-81299500D01*
X142232590Y-81321065D01*
X142232589Y-81321065D01*
X142205681Y-81326418D01*
X142205671Y-81326420D01*
X142078190Y-81379224D01*
X141963454Y-81455887D01*
X139836160Y-83583181D01*
X139774837Y-83616666D01*
X139748479Y-83619500D01*
X138542129Y-83619500D01*
X138542123Y-83619501D01*
X138482516Y-83625908D01*
X138347671Y-83676202D01*
X138347664Y-83676206D01*
X138232455Y-83762452D01*
X138232452Y-83762455D01*
X138146206Y-83877664D01*
X138146202Y-83877671D01*
X138095908Y-84012517D01*
X138089501Y-84072116D01*
X138089500Y-84072135D01*
X138089500Y-85867870D01*
X138089501Y-85867876D01*
X138095908Y-85927483D01*
X138146202Y-86062328D01*
X138146206Y-86062335D01*
X138232452Y-86177544D01*
X138232455Y-86177547D01*
X138347664Y-86263793D01*
X138347671Y-86263797D01*
X138479081Y-86312810D01*
X138535015Y-86354681D01*
X138559432Y-86420145D01*
X138544580Y-86488418D01*
X138523430Y-86516673D01*
X138401503Y-86638600D01*
X138353874Y-86706623D01*
X138299297Y-86750248D01*
X138252299Y-86759500D01*
X137796080Y-86759500D01*
X137651092Y-86788340D01*
X137651082Y-86788343D01*
X137514511Y-86844912D01*
X137514498Y-86844919D01*
X137391584Y-86927048D01*
X137391580Y-86927051D01*
X134265348Y-90053282D01*
X134204025Y-90086767D01*
X134166861Y-90089129D01*
X134000003Y-90074532D01*
X133999998Y-90074532D01*
X133773313Y-90094364D01*
X133773302Y-90094366D01*
X133553511Y-90153258D01*
X133553502Y-90153261D01*
X133347267Y-90249431D01*
X133347265Y-90249432D01*
X133160858Y-90379954D01*
X132999954Y-90540858D01*
X132926075Y-90646370D01*
X132871498Y-90689995D01*
X132802000Y-90697189D01*
X132739645Y-90665666D01*
X132704231Y-90605437D01*
X132700500Y-90575247D01*
X132700500Y-87521817D01*
X132691410Y-87476122D01*
X132680343Y-87420486D01*
X132673580Y-87386484D01*
X132620775Y-87259001D01*
X132544114Y-87144269D01*
X132544112Y-87144266D01*
X132310531Y-86910685D01*
X132277046Y-86849362D01*
X132282030Y-86779670D01*
X132323902Y-86723737D01*
X132389366Y-86699320D01*
X132405700Y-86699230D01*
X132500000Y-86704934D01*
X132826038Y-86685213D01*
X133147341Y-86626332D01*
X133459164Y-86529164D01*
X133459175Y-86529160D01*
X133757041Y-86395102D01*
X133757043Y-86395101D01*
X134036586Y-86226112D01*
X134224968Y-86078523D01*
X134224968Y-86078522D01*
X133082737Y-84936290D01*
X133216602Y-84839033D01*
X133339033Y-84716602D01*
X133436290Y-84582737D01*
X134578522Y-85724968D01*
X134578523Y-85724968D01*
X134726112Y-85536586D01*
X134895101Y-85257043D01*
X134895102Y-85257041D01*
X135029160Y-84959175D01*
X135029164Y-84959164D01*
X135126332Y-84647341D01*
X135185213Y-84326038D01*
X135204934Y-84000000D01*
X135185213Y-83673961D01*
X135126332Y-83352658D01*
X135029164Y-83040835D01*
X135029160Y-83040824D01*
X134895102Y-82742958D01*
X134895101Y-82742956D01*
X134726118Y-82463423D01*
X134578522Y-82275030D01*
X133436290Y-83417262D01*
X133339033Y-83283398D01*
X133216602Y-83160967D01*
X133082736Y-83063709D01*
X134224968Y-81921476D01*
X134036576Y-81773881D01*
X133757043Y-81604898D01*
X133757041Y-81604897D01*
X133459175Y-81470839D01*
X133459164Y-81470835D01*
X133147341Y-81373667D01*
X132826038Y-81314786D01*
X132500000Y-81295065D01*
X132173961Y-81314786D01*
X131852658Y-81373667D01*
X131540835Y-81470835D01*
X131540824Y-81470839D01*
X131242958Y-81604897D01*
X131242956Y-81604898D01*
X130963422Y-81773881D01*
X130963416Y-81773886D01*
X130775030Y-81921474D01*
X130775029Y-81921476D01*
X131917262Y-83063709D01*
X131783398Y-83160967D01*
X131660967Y-83283398D01*
X131563709Y-83417262D01*
X130421476Y-82275029D01*
X130421474Y-82275030D01*
X130273886Y-82463416D01*
X130273881Y-82463422D01*
X130104898Y-82742956D01*
X130104897Y-82742958D01*
X129970839Y-83040824D01*
X129970835Y-83040835D01*
X129873667Y-83352658D01*
X129814786Y-83673961D01*
X129795065Y-84000000D01*
X129800769Y-84094300D01*
X129785168Y-84162406D01*
X129735222Y-84211266D01*
X129666790Y-84225366D01*
X129601598Y-84200232D01*
X129589314Y-84189468D01*
X127175735Y-81775888D01*
X127175734Y-81775887D01*
X127060996Y-81699222D01*
X126933521Y-81646421D01*
X126933511Y-81646418D01*
X126798185Y-81619500D01*
X126798183Y-81619500D01*
X126798182Y-81619500D01*
X120618994Y-81619500D01*
X120481006Y-81619500D01*
X120481004Y-81619500D01*
X120345677Y-81646418D01*
X120345667Y-81646421D01*
X120218192Y-81699222D01*
X120103454Y-81775887D01*
X118296160Y-83583181D01*
X118234837Y-83616666D01*
X118208479Y-83619500D01*
X117002129Y-83619500D01*
X117002123Y-83619501D01*
X116942516Y-83625908D01*
X116807671Y-83676202D01*
X116807664Y-83676206D01*
X116692455Y-83762452D01*
X116692452Y-83762455D01*
X116606206Y-83877664D01*
X116606202Y-83877671D01*
X116555908Y-84012517D01*
X116549501Y-84072116D01*
X116549500Y-84072135D01*
X116549500Y-85867870D01*
X116549501Y-85867876D01*
X116555908Y-85927483D01*
X116606202Y-86062328D01*
X116606206Y-86062335D01*
X116692452Y-86177544D01*
X116692455Y-86177547D01*
X116807664Y-86263793D01*
X116807671Y-86263797D01*
X116939081Y-86312810D01*
X116995015Y-86354681D01*
X117019432Y-86420145D01*
X117004580Y-86488418D01*
X116983430Y-86516673D01*
X116861503Y-86638600D01*
X116813874Y-86706623D01*
X116759297Y-86750248D01*
X116712299Y-86759500D01*
X116296080Y-86759500D01*
X116151092Y-86788340D01*
X116151082Y-86788343D01*
X116014511Y-86844912D01*
X116014498Y-86844919D01*
X115891584Y-86927048D01*
X115891580Y-86927051D01*
X112765348Y-90053282D01*
X112704025Y-90086767D01*
X112666861Y-90089129D01*
X112500003Y-90074532D01*
X112499998Y-90074532D01*
X112273313Y-90094364D01*
X112273302Y-90094366D01*
X112053511Y-90153258D01*
X112053502Y-90153261D01*
X111847267Y-90249431D01*
X111847265Y-90249432D01*
X111660858Y-90379954D01*
X111499954Y-90540858D01*
X111369432Y-90727265D01*
X111369432Y-90727266D01*
X111273261Y-90933502D01*
X111273258Y-90933511D01*
X111214366Y-91153302D01*
X111214364Y-91153313D01*
X111194532Y-91379998D01*
X111194532Y-91380001D01*
X111214364Y-91606686D01*
X111214366Y-91606697D01*
X111273258Y-91826488D01*
X111273261Y-91826497D01*
X111369431Y-92032732D01*
X111369432Y-92032734D01*
X111499954Y-92219141D01*
X111660858Y-92380045D01*
X111660861Y-92380047D01*
X111847266Y-92510568D01*
X112053504Y-92606739D01*
X112273308Y-92665635D01*
X112435230Y-92679801D01*
X112499998Y-92685468D01*
X112500000Y-92685468D01*
X112500002Y-92685468D01*
X112556673Y-92680509D01*
X112726692Y-92665635D01*
X112946496Y-92606739D01*
X113152734Y-92510568D01*
X113339139Y-92380047D01*
X113500047Y-92219139D01*
X113630568Y-92032734D01*
X113726739Y-91826496D01*
X113785635Y-91606692D01*
X113805468Y-91380000D01*
X113790869Y-91213137D01*
X113804635Y-91144639D01*
X113826713Y-91114653D01*
X114043174Y-90898192D01*
X114104495Y-90864709D01*
X114174187Y-90869693D01*
X114230120Y-90911565D01*
X114254537Y-90977029D01*
X114250628Y-91017967D01*
X114214367Y-91153299D01*
X114214364Y-91153313D01*
X114194532Y-91379998D01*
X114194532Y-91380001D01*
X114214364Y-91606686D01*
X114214366Y-91606697D01*
X114273258Y-91826488D01*
X114273261Y-91826497D01*
X114369431Y-92032732D01*
X114369432Y-92032734D01*
X114499954Y-92219141D01*
X114660858Y-92380045D01*
X114660861Y-92380047D01*
X114847266Y-92510568D01*
X115053504Y-92606739D01*
X115273308Y-92665635D01*
X115435230Y-92679801D01*
X115499998Y-92685468D01*
X115500000Y-92685468D01*
X115500002Y-92685468D01*
X115556673Y-92680509D01*
X115726692Y-92665635D01*
X115946496Y-92606739D01*
X116152734Y-92510568D01*
X116339139Y-92380047D01*
X116500047Y-92219139D01*
X116525088Y-92183377D01*
X116579665Y-92139752D01*
X116626663Y-92130500D01*
X116643920Y-92130500D01*
X116741462Y-92111096D01*
X116788913Y-92101658D01*
X116925495Y-92045084D01*
X116974729Y-92012186D01*
X117048416Y-91962952D01*
X117119932Y-91891435D01*
X117181252Y-91857952D01*
X117250944Y-91862936D01*
X117306878Y-91904807D01*
X117319993Y-91926713D01*
X117369431Y-92032732D01*
X117369432Y-92032734D01*
X117499954Y-92219141D01*
X117660858Y-92380045D01*
X117660861Y-92380047D01*
X117847266Y-92510568D01*
X118053504Y-92606739D01*
X118273308Y-92665635D01*
X118435230Y-92679801D01*
X118499998Y-92685468D01*
X118500000Y-92685468D01*
X118500002Y-92685468D01*
X118556673Y-92680509D01*
X118726692Y-92665635D01*
X118946496Y-92606739D01*
X119152734Y-92510568D01*
X119339139Y-92380047D01*
X119500047Y-92219139D01*
X119630568Y-92032734D01*
X119726739Y-91826496D01*
X119785635Y-91606692D01*
X119805468Y-91380000D01*
X119790869Y-91213137D01*
X119804635Y-91144639D01*
X119826713Y-91114653D01*
X120043174Y-90898192D01*
X120104495Y-90864709D01*
X120174187Y-90869693D01*
X120230120Y-90911565D01*
X120254537Y-90977029D01*
X120250628Y-91017967D01*
X120214367Y-91153299D01*
X120214364Y-91153313D01*
X120194532Y-91379998D01*
X120194532Y-91380001D01*
X120214364Y-91606686D01*
X120214366Y-91606697D01*
X120273258Y-91826488D01*
X120273261Y-91826497D01*
X120369431Y-92032732D01*
X120369432Y-92032734D01*
X120499954Y-92219141D01*
X120660858Y-92380045D01*
X120660861Y-92380047D01*
X120847266Y-92510568D01*
X121053504Y-92606739D01*
X121273308Y-92665635D01*
X121435230Y-92679801D01*
X121499998Y-92685468D01*
X121500000Y-92685468D01*
X121500002Y-92685468D01*
X121556673Y-92680509D01*
X121726692Y-92665635D01*
X121946496Y-92606739D01*
X122152734Y-92510568D01*
X122339139Y-92380047D01*
X122500047Y-92219139D01*
X122630568Y-92032734D01*
X122726739Y-91826496D01*
X122785635Y-91606692D01*
X122805468Y-91380000D01*
X122790869Y-91213137D01*
X122804635Y-91144639D01*
X122826713Y-91114653D01*
X123043173Y-90898192D01*
X123104495Y-90864709D01*
X123174187Y-90869693D01*
X123230120Y-90911565D01*
X123254537Y-90977029D01*
X123250628Y-91017967D01*
X123214367Y-91153299D01*
X123214364Y-91153313D01*
X123194532Y-91379998D01*
X123194532Y-91380001D01*
X123214364Y-91606686D01*
X123214366Y-91606697D01*
X123273258Y-91826488D01*
X123273261Y-91826497D01*
X123369431Y-92032732D01*
X123369432Y-92032734D01*
X123499954Y-92219141D01*
X123660858Y-92380045D01*
X123660861Y-92380047D01*
X123847266Y-92510568D01*
X124053504Y-92606739D01*
X124273308Y-92665635D01*
X124435230Y-92679801D01*
X124499998Y-92685468D01*
X124500000Y-92685468D01*
X124500002Y-92685468D01*
X124556673Y-92680509D01*
X124726692Y-92665635D01*
X124946496Y-92606739D01*
X125152734Y-92510568D01*
X125339139Y-92380047D01*
X125500047Y-92219139D01*
X125630568Y-92032734D01*
X125726739Y-91826496D01*
X125785635Y-91606692D01*
X125805468Y-91380000D01*
X125790869Y-91213137D01*
X125804635Y-91144639D01*
X125826713Y-91114653D01*
X126043174Y-90898192D01*
X126104495Y-90864709D01*
X126174187Y-90869693D01*
X126230120Y-90911565D01*
X126254537Y-90977029D01*
X126250628Y-91017967D01*
X126214367Y-91153299D01*
X126214364Y-91153313D01*
X126194532Y-91379998D01*
X126194532Y-91380001D01*
X126214364Y-91606686D01*
X126214366Y-91606697D01*
X126273258Y-91826488D01*
X126273261Y-91826497D01*
X126369431Y-92032732D01*
X126369432Y-92032734D01*
X126499954Y-92219141D01*
X126660858Y-92380045D01*
X126660861Y-92380047D01*
X126847266Y-92510568D01*
X127053504Y-92606739D01*
X127273308Y-92665635D01*
X127435230Y-92679801D01*
X127499998Y-92685468D01*
X127500000Y-92685468D01*
X127500002Y-92685468D01*
X127556673Y-92680509D01*
X127726692Y-92665635D01*
X127946496Y-92606739D01*
X128152734Y-92510568D01*
X128339139Y-92380047D01*
X128500047Y-92219139D01*
X128630568Y-92032734D01*
X128726739Y-91826496D01*
X128785635Y-91606692D01*
X128805468Y-91380000D01*
X128790869Y-91213137D01*
X128804635Y-91144639D01*
X128826711Y-91114655D01*
X128882950Y-91058417D01*
X128965083Y-90935496D01*
X129021657Y-90798914D01*
X129035909Y-90727266D01*
X129047507Y-90668960D01*
X129050499Y-90653921D01*
X129050499Y-86921279D01*
X129070184Y-86854240D01*
X129122988Y-86808485D01*
X129192146Y-86798541D01*
X129255702Y-86827566D01*
X129262180Y-86833598D01*
X129713181Y-87284599D01*
X129746666Y-87345922D01*
X129749500Y-87372280D01*
X129749500Y-90253336D01*
X129729815Y-90320375D01*
X129696625Y-90354910D01*
X129660863Y-90379951D01*
X129499951Y-90540862D01*
X129369432Y-90727265D01*
X129369432Y-90727266D01*
X129273261Y-90933502D01*
X129273258Y-90933511D01*
X129214366Y-91153302D01*
X129214364Y-91153313D01*
X129194532Y-91379998D01*
X129194532Y-91380001D01*
X129214364Y-91606686D01*
X129214366Y-91606697D01*
X129273258Y-91826488D01*
X129273261Y-91826497D01*
X129369431Y-92032732D01*
X129369432Y-92032734D01*
X129499954Y-92219141D01*
X129660858Y-92380045D01*
X129660861Y-92380047D01*
X129847266Y-92510568D01*
X130053504Y-92606739D01*
X130273308Y-92665635D01*
X130435230Y-92679801D01*
X130499998Y-92685468D01*
X130500000Y-92685468D01*
X130500002Y-92685468D01*
X130556673Y-92680509D01*
X130726692Y-92665635D01*
X130946496Y-92606739D01*
X131123095Y-92524389D01*
X131192173Y-92513897D01*
X131255957Y-92542417D01*
X131294196Y-92600893D01*
X131299500Y-92636771D01*
X131299500Y-97743229D01*
X131279815Y-97810268D01*
X131227011Y-97856023D01*
X131157853Y-97865967D01*
X131123095Y-97855611D01*
X131025857Y-97810268D01*
X130946496Y-97773261D01*
X130946492Y-97773260D01*
X130946488Y-97773258D01*
X130726697Y-97714366D01*
X130726693Y-97714365D01*
X130726692Y-97714365D01*
X130726691Y-97714364D01*
X130726686Y-97714364D01*
X130500002Y-97694532D01*
X130499998Y-97694532D01*
X130273313Y-97714364D01*
X130273302Y-97714366D01*
X130053511Y-97773258D01*
X130053502Y-97773261D01*
X129847267Y-97869431D01*
X129847265Y-97869432D01*
X129660858Y-97999954D01*
X129499954Y-98160858D01*
X129369432Y-98347265D01*
X129369431Y-98347267D01*
X129273261Y-98553502D01*
X129273258Y-98553511D01*
X129214366Y-98773302D01*
X129214364Y-98773313D01*
X129194532Y-98999998D01*
X129194532Y-99000001D01*
X129214364Y-99226686D01*
X129214366Y-99226697D01*
X129273258Y-99446488D01*
X129273261Y-99446497D01*
X129369431Y-99652732D01*
X129369432Y-99652734D01*
X129499951Y-99839137D01*
X129499952Y-99839138D01*
X129499953Y-99839139D01*
X129603182Y-99942368D01*
X129636666Y-100003689D01*
X129639500Y-100030048D01*
X129639500Y-100396977D01*
X129619815Y-100464016D01*
X129603181Y-100484658D01*
X129504517Y-100583321D01*
X129397109Y-100731155D01*
X129314153Y-100893966D01*
X129257684Y-101067758D01*
X129242473Y-101163797D01*
X129212544Y-101226932D01*
X129153232Y-101263863D01*
X129083369Y-101262865D01*
X129025137Y-101224255D01*
X128997527Y-101163797D01*
X128982315Y-101067758D01*
X128982315Y-101067755D01*
X128925848Y-100893969D01*
X128842891Y-100731156D01*
X128735485Y-100583324D01*
X128636819Y-100484658D01*
X128603334Y-100423335D01*
X128600500Y-100396977D01*
X128600500Y-99734772D01*
X128620185Y-99667733D01*
X128622927Y-99663646D01*
X128630568Y-99652734D01*
X128726739Y-99446496D01*
X128785635Y-99226692D01*
X128805468Y-99000000D01*
X128785635Y-98773308D01*
X128726739Y-98553504D01*
X128630568Y-98347266D01*
X128500047Y-98160861D01*
X128500045Y-98160858D01*
X128339141Y-97999954D01*
X128152734Y-97869432D01*
X128152732Y-97869431D01*
X127946497Y-97773261D01*
X127946488Y-97773258D01*
X127726697Y-97714366D01*
X127726693Y-97714365D01*
X127726692Y-97714365D01*
X127726691Y-97714364D01*
X127726686Y-97714364D01*
X127500002Y-97694532D01*
X127499998Y-97694532D01*
X127273313Y-97714364D01*
X127273302Y-97714366D01*
X127053511Y-97773258D01*
X127053502Y-97773261D01*
X126847267Y-97869431D01*
X126847265Y-97869432D01*
X126660858Y-97999954D01*
X126499954Y-98160858D01*
X126369432Y-98347265D01*
X126369431Y-98347267D01*
X126273261Y-98553502D01*
X126273258Y-98553511D01*
X126214366Y-98773302D01*
X126214364Y-98773313D01*
X126194532Y-98999998D01*
X126194532Y-99000001D01*
X126214364Y-99226686D01*
X126214366Y-99226697D01*
X126273258Y-99446488D01*
X126273261Y-99446497D01*
X126369431Y-99652732D01*
X126369432Y-99652734D01*
X126499954Y-99839141D01*
X126660858Y-100000045D01*
X126660861Y-100000047D01*
X126847266Y-100130568D01*
X127027907Y-100214802D01*
X127080344Y-100260973D01*
X127099500Y-100327183D01*
X127099500Y-100396977D01*
X127079815Y-100464016D01*
X127063181Y-100484658D01*
X126964517Y-100583321D01*
X126857109Y-100731155D01*
X126774153Y-100893966D01*
X126717684Y-101067758D01*
X126702473Y-101163797D01*
X126672544Y-101226932D01*
X126613232Y-101263863D01*
X126543369Y-101262865D01*
X126485137Y-101224255D01*
X126457527Y-101163797D01*
X126442315Y-101067758D01*
X126442315Y-101067755D01*
X126385848Y-100893969D01*
X126302891Y-100731156D01*
X126195485Y-100583324D01*
X126096819Y-100484658D01*
X126063334Y-100423335D01*
X126060500Y-100396977D01*
X126060500Y-99736079D01*
X126031659Y-99591092D01*
X126031658Y-99591091D01*
X126031658Y-99591087D01*
X126029584Y-99586079D01*
X125975087Y-99454511D01*
X125975083Y-99454504D01*
X125969733Y-99446497D01*
X125937557Y-99398342D01*
X125892952Y-99331584D01*
X125826716Y-99265348D01*
X125793231Y-99204025D01*
X125790869Y-99166863D01*
X125805468Y-99000000D01*
X125785635Y-98773308D01*
X125726739Y-98553504D01*
X125630568Y-98347266D01*
X125500047Y-98160861D01*
X125500045Y-98160858D01*
X125339141Y-97999954D01*
X125152734Y-97869432D01*
X125152732Y-97869431D01*
X124946497Y-97773261D01*
X124946488Y-97773258D01*
X124726697Y-97714366D01*
X124726693Y-97714365D01*
X124726692Y-97714365D01*
X124726691Y-97714364D01*
X124726686Y-97714364D01*
X124500002Y-97694532D01*
X124499998Y-97694532D01*
X124273313Y-97714364D01*
X124273302Y-97714366D01*
X124053511Y-97773258D01*
X124053502Y-97773261D01*
X123847267Y-97869431D01*
X123847265Y-97869432D01*
X123660858Y-97999954D01*
X123499954Y-98160858D01*
X123369432Y-98347265D01*
X123369431Y-98347267D01*
X123273261Y-98553502D01*
X123273258Y-98553511D01*
X123214366Y-98773302D01*
X123214364Y-98773313D01*
X123194532Y-98999998D01*
X123194532Y-99000001D01*
X123214364Y-99226686D01*
X123214366Y-99226697D01*
X123250628Y-99362031D01*
X123248965Y-99431881D01*
X123209802Y-99489743D01*
X123145573Y-99517247D01*
X123076671Y-99505660D01*
X123043172Y-99481805D01*
X123015878Y-99454511D01*
X122826716Y-99265348D01*
X122793231Y-99204025D01*
X122790869Y-99166863D01*
X122805468Y-99000000D01*
X122785635Y-98773308D01*
X122726739Y-98553504D01*
X122630568Y-98347266D01*
X122500047Y-98160861D01*
X122500045Y-98160858D01*
X122339141Y-97999954D01*
X122152734Y-97869432D01*
X122152732Y-97869431D01*
X121946497Y-97773261D01*
X121946488Y-97773258D01*
X121726697Y-97714366D01*
X121726693Y-97714365D01*
X121726692Y-97714365D01*
X121726691Y-97714364D01*
X121726686Y-97714364D01*
X121500002Y-97694532D01*
X121499998Y-97694532D01*
X121273313Y-97714364D01*
X121273302Y-97714366D01*
X121053511Y-97773258D01*
X121053502Y-97773261D01*
X120847267Y-97869431D01*
X120847265Y-97869432D01*
X120660858Y-97999954D01*
X120499954Y-98160858D01*
X120369432Y-98347265D01*
X120369431Y-98347267D01*
X120273261Y-98553502D01*
X120273258Y-98553511D01*
X120214366Y-98773302D01*
X120214364Y-98773313D01*
X120194532Y-98999998D01*
X120194532Y-99000001D01*
X120214364Y-99226686D01*
X120214366Y-99226697D01*
X120250628Y-99362030D01*
X120248965Y-99431880D01*
X120209802Y-99489742D01*
X120145573Y-99517246D01*
X120076671Y-99505659D01*
X120043172Y-99481804D01*
X119826716Y-99265348D01*
X119793231Y-99204025D01*
X119790869Y-99166863D01*
X119805468Y-99000000D01*
X119785635Y-98773308D01*
X119726739Y-98553504D01*
X119630568Y-98347266D01*
X119500047Y-98160861D01*
X119500045Y-98160858D01*
X119339141Y-97999954D01*
X119152734Y-97869432D01*
X119152732Y-97869431D01*
X118946497Y-97773261D01*
X118946488Y-97773258D01*
X118726697Y-97714366D01*
X118726693Y-97714365D01*
X118726692Y-97714365D01*
X118726691Y-97714364D01*
X118726686Y-97714364D01*
X118500002Y-97694532D01*
X118499998Y-97694532D01*
X118273313Y-97714364D01*
X118273302Y-97714366D01*
X118053511Y-97773258D01*
X118053502Y-97773261D01*
X117847267Y-97869431D01*
X117847265Y-97869432D01*
X117660858Y-97999954D01*
X117499954Y-98160858D01*
X117369432Y-98347265D01*
X117369431Y-98347267D01*
X117273261Y-98553502D01*
X117273258Y-98553511D01*
X117214366Y-98773302D01*
X117214364Y-98773313D01*
X117194532Y-98999998D01*
X117194532Y-99000001D01*
X117214364Y-99226686D01*
X117214366Y-99226697D01*
X117250628Y-99362030D01*
X117248965Y-99431880D01*
X117209802Y-99489742D01*
X117145573Y-99517246D01*
X117076671Y-99505659D01*
X117043172Y-99481804D01*
X116826716Y-99265348D01*
X116793231Y-99204025D01*
X116790869Y-99166863D01*
X116805468Y-99000000D01*
X116785635Y-98773308D01*
X116726739Y-98553504D01*
X116630568Y-98347266D01*
X116500047Y-98160861D01*
X116500045Y-98160858D01*
X116339141Y-97999954D01*
X116152734Y-97869432D01*
X116152732Y-97869431D01*
X115946497Y-97773261D01*
X115946488Y-97773258D01*
X115726697Y-97714366D01*
X115726693Y-97714365D01*
X115726692Y-97714365D01*
X115726691Y-97714364D01*
X115726686Y-97714364D01*
X115500002Y-97694532D01*
X115499998Y-97694532D01*
X115273313Y-97714364D01*
X115273302Y-97714366D01*
X115053511Y-97773258D01*
X115053502Y-97773261D01*
X114847267Y-97869431D01*
X114847265Y-97869432D01*
X114660858Y-97999954D01*
X114499954Y-98160858D01*
X114369432Y-98347265D01*
X114369431Y-98347267D01*
X114273261Y-98553502D01*
X114273258Y-98553511D01*
X114214366Y-98773302D01*
X114214364Y-98773313D01*
X114194532Y-98999998D01*
X114194532Y-99000001D01*
X114214364Y-99226686D01*
X114214366Y-99226697D01*
X114250628Y-99362030D01*
X114248965Y-99431880D01*
X114209802Y-99489742D01*
X114145573Y-99517246D01*
X114076671Y-99505659D01*
X114043172Y-99481804D01*
X113826716Y-99265348D01*
X113793231Y-99204025D01*
X113790869Y-99166863D01*
X113805468Y-99000000D01*
X113785635Y-98773308D01*
X113726739Y-98553504D01*
X113630568Y-98347266D01*
X113500047Y-98160861D01*
X113500045Y-98160858D01*
X113339141Y-97999954D01*
X113152734Y-97869432D01*
X113152732Y-97869431D01*
X112946497Y-97773261D01*
X112946488Y-97773258D01*
X112726697Y-97714366D01*
X112726693Y-97714365D01*
X112726692Y-97714365D01*
X112726691Y-97714364D01*
X112726686Y-97714364D01*
X112500002Y-97694532D01*
X112499998Y-97694532D01*
X112273313Y-97714364D01*
X112273302Y-97714366D01*
X112053511Y-97773258D01*
X112053502Y-97773261D01*
X111847267Y-97869431D01*
X111847265Y-97869432D01*
X111660858Y-97999954D01*
X111499954Y-98160858D01*
X111369432Y-98347265D01*
X111369431Y-98347267D01*
X111273261Y-98553502D01*
X111273258Y-98553511D01*
X111214366Y-98773302D01*
X111214364Y-98773313D01*
X111194532Y-98999998D01*
X111194532Y-99000001D01*
X111214364Y-99226686D01*
X111214366Y-99226697D01*
X111273258Y-99446488D01*
X111273261Y-99446497D01*
X111369431Y-99652732D01*
X111369432Y-99652734D01*
X111499954Y-99839141D01*
X111660858Y-100000045D01*
X111660861Y-100000047D01*
X111847266Y-100130568D01*
X111932169Y-100170159D01*
X111984608Y-100216332D01*
X112003760Y-100283525D01*
X111983544Y-100350406D01*
X111952650Y-100382858D01*
X111854056Y-100454492D01*
X111854047Y-100454499D01*
X111724899Y-100583647D01*
X111724899Y-100583648D01*
X111617537Y-100731417D01*
X111534616Y-100894156D01*
X111478172Y-101067871D01*
X111449600Y-101248269D01*
X111449600Y-101750000D01*
X112285263Y-101750000D01*
X112284799Y-101750464D01*
X112231295Y-101843135D01*
X112203600Y-101946496D01*
X112203600Y-102053504D01*
X112231295Y-102156865D01*
X112284799Y-102249536D01*
X112285263Y-102250000D01*
X111449600Y-102250000D01*
X111449600Y-102751730D01*
X111478172Y-102932128D01*
X111534616Y-103105843D01*
X111617537Y-103268582D01*
X111724899Y-103416351D01*
X111724899Y-103416352D01*
X111854047Y-103545500D01*
X112001817Y-103652862D01*
X112164558Y-103735783D01*
X112338271Y-103792227D01*
X112359999Y-103795668D01*
X112360000Y-103795667D01*
X112360000Y-102324737D01*
X112360464Y-102325201D01*
X112453135Y-102378705D01*
X112556496Y-102406400D01*
X112663504Y-102406400D01*
X112766865Y-102378705D01*
X112859536Y-102325201D01*
X112860000Y-102324737D01*
X112860000Y-103795668D01*
X112881728Y-103792227D01*
X113055441Y-103735783D01*
X113218182Y-103652862D01*
X113365951Y-103545500D01*
X113365952Y-103545500D01*
X113495100Y-103416352D01*
X113495100Y-103416351D01*
X113602462Y-103268582D01*
X113685383Y-103105843D01*
X113741827Y-102932128D01*
X113741827Y-102932127D01*
X113757273Y-102834605D01*
X113787202Y-102771470D01*
X113846513Y-102734538D01*
X113916376Y-102735536D01*
X113974609Y-102774145D01*
X114002219Y-102834603D01*
X114017684Y-102932242D01*
X114017685Y-102932245D01*
X114074152Y-103106031D01*
X114157109Y-103268844D01*
X114264515Y-103416676D01*
X114393724Y-103545885D01*
X114541556Y-103653291D01*
X114704369Y-103736248D01*
X114878155Y-103792715D01*
X114945835Y-103803434D01*
X115058630Y-103821300D01*
X115058635Y-103821300D01*
X115241370Y-103821300D01*
X115341631Y-103805419D01*
X115421845Y-103792715D01*
X115595631Y-103736248D01*
X115758444Y-103653291D01*
X115906276Y-103545885D01*
X116035485Y-103416676D01*
X116142891Y-103268844D01*
X116225848Y-103106031D01*
X116282315Y-102932245D01*
X116294316Y-102856473D01*
X116297527Y-102836202D01*
X116327456Y-102773067D01*
X116386768Y-102736136D01*
X116456630Y-102737134D01*
X116514863Y-102775744D01*
X116542473Y-102836202D01*
X116557684Y-102932241D01*
X116557684Y-102932243D01*
X116557685Y-102932245D01*
X116614152Y-103106031D01*
X116697109Y-103268844D01*
X116804515Y-103416676D01*
X116933724Y-103545885D01*
X117081556Y-103653291D01*
X117244369Y-103736248D01*
X117418155Y-103792715D01*
X117485835Y-103803434D01*
X117598630Y-103821300D01*
X117598635Y-103821300D01*
X117781370Y-103821300D01*
X117881631Y-103805419D01*
X117961845Y-103792715D01*
X118135631Y-103736248D01*
X118298444Y-103653291D01*
X118446276Y-103545885D01*
X118575485Y-103416676D01*
X118682891Y-103268844D01*
X118765848Y-103106031D01*
X118822315Y-102932245D01*
X118834316Y-102856473D01*
X118837527Y-102836202D01*
X118867456Y-102773067D01*
X118926768Y-102736136D01*
X118996630Y-102737134D01*
X119054863Y-102775744D01*
X119082473Y-102836202D01*
X119097684Y-102932241D01*
X119097684Y-102932243D01*
X119097685Y-102932245D01*
X119154152Y-103106031D01*
X119237109Y-103268844D01*
X119344515Y-103416676D01*
X119473724Y-103545885D01*
X119621556Y-103653291D01*
X119784369Y-103736248D01*
X119958155Y-103792715D01*
X120025835Y-103803434D01*
X120138630Y-103821300D01*
X120138635Y-103821300D01*
X120321370Y-103821300D01*
X120421631Y-103805419D01*
X120501845Y-103792715D01*
X120675631Y-103736248D01*
X120838444Y-103653291D01*
X120986276Y-103545885D01*
X121115485Y-103416676D01*
X121222891Y-103268844D01*
X121305848Y-103106031D01*
X121362315Y-102932245D01*
X121374316Y-102856473D01*
X121377527Y-102836202D01*
X121407456Y-102773067D01*
X121466768Y-102736136D01*
X121536630Y-102737134D01*
X121594863Y-102775744D01*
X121622473Y-102836202D01*
X121637684Y-102932241D01*
X121637684Y-102932243D01*
X121637685Y-102932245D01*
X121694152Y-103106031D01*
X121777109Y-103268844D01*
X121884515Y-103416676D01*
X122013724Y-103545885D01*
X122161556Y-103653291D01*
X122324369Y-103736248D01*
X122498155Y-103792715D01*
X122565835Y-103803434D01*
X122678630Y-103821300D01*
X122678635Y-103821300D01*
X122861370Y-103821300D01*
X122961631Y-103805419D01*
X123041845Y-103792715D01*
X123215631Y-103736248D01*
X123378444Y-103653291D01*
X123526276Y-103545885D01*
X123655485Y-103416676D01*
X123762891Y-103268844D01*
X123845848Y-103106031D01*
X123902315Y-102932245D01*
X123914316Y-102856473D01*
X123917527Y-102836202D01*
X123947456Y-102773067D01*
X124006768Y-102736136D01*
X124076630Y-102737134D01*
X124134863Y-102775744D01*
X124162473Y-102836202D01*
X124177684Y-102932241D01*
X124177684Y-102932243D01*
X124177685Y-102932245D01*
X124234152Y-103106031D01*
X124317109Y-103268844D01*
X124424515Y-103416676D01*
X124553724Y-103545885D01*
X124701556Y-103653291D01*
X124864369Y-103736248D01*
X125038155Y-103792715D01*
X125105835Y-103803434D01*
X125218630Y-103821300D01*
X125218635Y-103821300D01*
X125401370Y-103821300D01*
X125501631Y-103805419D01*
X125581845Y-103792715D01*
X125755631Y-103736248D01*
X125918444Y-103653291D01*
X126066276Y-103545885D01*
X126195485Y-103416676D01*
X126302891Y-103268844D01*
X126385848Y-103106031D01*
X126442315Y-102932245D01*
X126454316Y-102856473D01*
X126457527Y-102836202D01*
X126487456Y-102773067D01*
X126546768Y-102736136D01*
X126616630Y-102737134D01*
X126674863Y-102775744D01*
X126702473Y-102836202D01*
X126717684Y-102932241D01*
X126717684Y-102932243D01*
X126717685Y-102932245D01*
X126774152Y-103106031D01*
X126857109Y-103268844D01*
X126964515Y-103416676D01*
X127093724Y-103545885D01*
X127241556Y-103653291D01*
X127404369Y-103736248D01*
X127578155Y-103792715D01*
X127645835Y-103803434D01*
X127758630Y-103821300D01*
X127758635Y-103821300D01*
X127941370Y-103821300D01*
X128041631Y-103805419D01*
X128121845Y-103792715D01*
X128295631Y-103736248D01*
X128458444Y-103653291D01*
X128606276Y-103545885D01*
X128735485Y-103416676D01*
X128842891Y-103268844D01*
X128925848Y-103106031D01*
X128982315Y-102932245D01*
X128994316Y-102856473D01*
X128997527Y-102836202D01*
X129027456Y-102773067D01*
X129086768Y-102736136D01*
X129156630Y-102737134D01*
X129214863Y-102775744D01*
X129242473Y-102836202D01*
X129257684Y-102932241D01*
X129257684Y-102932243D01*
X129257685Y-102932245D01*
X129314152Y-103106031D01*
X129397109Y-103268844D01*
X129504515Y-103416676D01*
X129633724Y-103545885D01*
X129781556Y-103653291D01*
X129944369Y-103736248D01*
X130118155Y-103792715D01*
X130185835Y-103803434D01*
X130298630Y-103821300D01*
X130298635Y-103821300D01*
X130481370Y-103821300D01*
X130581631Y-103805419D01*
X130661845Y-103792715D01*
X130835631Y-103736248D01*
X130998444Y-103653291D01*
X131102617Y-103577604D01*
X131168420Y-103554126D01*
X131236474Y-103569951D01*
X131285169Y-103620057D01*
X131299500Y-103677924D01*
X131299500Y-107942075D01*
X131279815Y-108009114D01*
X131227011Y-108054869D01*
X131157853Y-108064813D01*
X131102615Y-108042393D01*
X130998447Y-107966711D01*
X130998446Y-107966710D01*
X130998444Y-107966709D01*
X130835631Y-107883752D01*
X130661845Y-107827285D01*
X130661843Y-107827284D01*
X130661841Y-107827284D01*
X130481370Y-107798700D01*
X130481365Y-107798700D01*
X130298635Y-107798700D01*
X130298630Y-107798700D01*
X130118158Y-107827284D01*
X129944366Y-107883753D01*
X129781555Y-107966709D01*
X129633721Y-108074117D01*
X129504517Y-108203321D01*
X129397109Y-108351155D01*
X129314153Y-108513966D01*
X129257684Y-108687758D01*
X129242473Y-108783797D01*
X129212544Y-108846932D01*
X129153232Y-108883863D01*
X129083369Y-108882865D01*
X129025137Y-108844255D01*
X128997527Y-108783797D01*
X128982315Y-108687758D01*
X128982315Y-108687755D01*
X128925848Y-108513969D01*
X128842891Y-108351156D01*
X128735485Y-108203324D01*
X128606276Y-108074115D01*
X128458444Y-107966709D01*
X128295631Y-107883752D01*
X128121845Y-107827285D01*
X128121843Y-107827284D01*
X128121841Y-107827284D01*
X127941370Y-107798700D01*
X127941365Y-107798700D01*
X127758635Y-107798700D01*
X127758630Y-107798700D01*
X127578158Y-107827284D01*
X127404366Y-107883753D01*
X127241555Y-107966709D01*
X127093721Y-108074117D01*
X126964517Y-108203321D01*
X126857109Y-108351155D01*
X126774153Y-108513966D01*
X126717684Y-108687758D01*
X126702473Y-108783797D01*
X126672544Y-108846932D01*
X126613232Y-108883863D01*
X126543369Y-108882865D01*
X126485137Y-108844255D01*
X126457527Y-108783797D01*
X126442315Y-108687758D01*
X126442315Y-108687755D01*
X126385848Y-108513969D01*
X126302891Y-108351156D01*
X126195485Y-108203324D01*
X126066276Y-108074115D01*
X125918444Y-107966709D01*
X125755631Y-107883752D01*
X125581845Y-107827285D01*
X125581843Y-107827284D01*
X125581841Y-107827284D01*
X125401370Y-107798700D01*
X125401365Y-107798700D01*
X125218635Y-107798700D01*
X125218630Y-107798700D01*
X125093498Y-107818519D01*
X125024205Y-107809564D01*
X124970753Y-107764568D01*
X124950113Y-107697817D01*
X124950100Y-107696046D01*
X124950100Y-107125679D01*
X124921259Y-106980692D01*
X124921258Y-106980691D01*
X124921258Y-106980687D01*
X124921256Y-106980682D01*
X124864687Y-106844111D01*
X124864680Y-106844098D01*
X124782552Y-106721185D01*
X124743307Y-106681940D01*
X124678016Y-106616649D01*
X124149186Y-106087819D01*
X122478421Y-104417052D01*
X122478420Y-104417051D01*
X122478416Y-104417048D01*
X122377354Y-104349522D01*
X122377353Y-104349521D01*
X122377352Y-104349519D01*
X122355495Y-104334916D01*
X122355490Y-104334913D01*
X122218917Y-104278343D01*
X122218907Y-104278340D01*
X122073920Y-104249500D01*
X122073918Y-104249500D01*
X117926082Y-104249500D01*
X117926076Y-104249500D01*
X117897242Y-104255234D01*
X117897243Y-104255235D01*
X117781093Y-104278339D01*
X117781089Y-104278340D01*
X117717880Y-104304523D01*
X117644506Y-104334915D01*
X117644504Y-104334916D01*
X117622644Y-104349521D01*
X117622645Y-104349522D01*
X117521582Y-104417049D01*
X117521579Y-104417052D01*
X116417052Y-105521578D01*
X116417049Y-105521581D01*
X116387724Y-105565469D01*
X116387725Y-105565470D01*
X116334914Y-105644508D01*
X116278343Y-105781082D01*
X116278340Y-105781092D01*
X116249500Y-105926079D01*
X116249500Y-108117977D01*
X116229815Y-108185016D01*
X116177011Y-108230771D01*
X116107853Y-108240715D01*
X116044297Y-108211690D01*
X116037819Y-108205658D01*
X115906278Y-108074117D01*
X115906276Y-108074115D01*
X115758444Y-107966709D01*
X115595631Y-107883752D01*
X115421845Y-107827285D01*
X115421843Y-107827284D01*
X115421841Y-107827284D01*
X115241370Y-107798700D01*
X115241365Y-107798700D01*
X115058635Y-107798700D01*
X115058630Y-107798700D01*
X114878158Y-107827284D01*
X114704366Y-107883753D01*
X114541555Y-107966709D01*
X114393721Y-108074117D01*
X114264517Y-108203321D01*
X114157109Y-108351155D01*
X114074153Y-108513966D01*
X114017684Y-108687758D01*
X114002473Y-108783797D01*
X113972544Y-108846932D01*
X113913232Y-108883863D01*
X113843369Y-108882865D01*
X113785137Y-108844255D01*
X113757527Y-108783797D01*
X113742315Y-108687758D01*
X113742315Y-108687755D01*
X113685848Y-108513969D01*
X113602891Y-108351156D01*
X113495485Y-108203324D01*
X113366276Y-108074115D01*
X113218444Y-107966709D01*
X113055631Y-107883752D01*
X112881845Y-107827285D01*
X112881843Y-107827284D01*
X112881841Y-107827284D01*
X112701370Y-107798700D01*
X112701365Y-107798700D01*
X112518635Y-107798700D01*
X112518630Y-107798700D01*
X112338158Y-107827284D01*
X112164366Y-107883753D01*
X112001555Y-107966709D01*
X111853721Y-108074117D01*
X111724517Y-108203321D01*
X111617109Y-108351155D01*
X111534153Y-108513966D01*
X111477684Y-108687758D01*
X111449100Y-108868229D01*
X111449100Y-110371770D01*
X111473560Y-110526202D01*
X111477685Y-110552245D01*
X111534152Y-110726031D01*
X111617109Y-110888844D01*
X111724515Y-111036676D01*
X111853724Y-111165885D01*
X112001556Y-111273291D01*
X112164369Y-111356248D01*
X112338155Y-111412715D01*
X112390301Y-111420974D01*
X112518630Y-111441300D01*
X112518635Y-111441300D01*
X112701370Y-111441300D01*
X112801631Y-111425419D01*
X112881845Y-111412715D01*
X113055631Y-111356248D01*
X113218444Y-111273291D01*
X113366276Y-111165885D01*
X113495485Y-111036676D01*
X113602891Y-110888844D01*
X113685848Y-110726031D01*
X113742315Y-110552245D01*
X113751619Y-110493501D01*
X113757527Y-110456202D01*
X113787456Y-110393067D01*
X113846768Y-110356136D01*
X113916630Y-110357134D01*
X113974863Y-110395744D01*
X114002473Y-110456202D01*
X114013560Y-110526202D01*
X114017685Y-110552245D01*
X114074152Y-110726031D01*
X114157109Y-110888844D01*
X114264515Y-111036676D01*
X114393724Y-111165885D01*
X114541556Y-111273291D01*
X114704369Y-111356248D01*
X114878155Y-111412715D01*
X114930301Y-111420974D01*
X115058630Y-111441300D01*
X115058635Y-111441300D01*
X115241370Y-111441300D01*
X115341631Y-111425419D01*
X115421845Y-111412715D01*
X115595631Y-111356248D01*
X115758444Y-111273291D01*
X115906276Y-111165885D01*
X116035485Y-111036676D01*
X116142891Y-110888844D01*
X116225848Y-110726031D01*
X116282315Y-110552245D01*
X116291619Y-110493501D01*
X116297527Y-110456202D01*
X116327456Y-110393067D01*
X116386768Y-110356136D01*
X116456630Y-110357134D01*
X116514863Y-110395744D01*
X116542473Y-110456202D01*
X116553560Y-110526202D01*
X116557685Y-110552245D01*
X116614152Y-110726031D01*
X116697109Y-110888844D01*
X116804515Y-111036676D01*
X116933724Y-111165885D01*
X117081556Y-111273291D01*
X117244369Y-111356248D01*
X117418155Y-111412715D01*
X117470301Y-111420974D01*
X117598630Y-111441300D01*
X117598635Y-111441300D01*
X117781368Y-111441300D01*
X117794392Y-111439237D01*
X117863686Y-111448191D01*
X117917139Y-111493186D01*
X117937779Y-111559938D01*
X117919055Y-111627252D01*
X117901473Y-111649391D01*
X117547047Y-112003817D01*
X117513848Y-112053503D01*
X117513849Y-112053504D01*
X117464913Y-112126741D01*
X117408343Y-112263315D01*
X117408340Y-112263325D01*
X117379500Y-112408312D01*
X117379500Y-112408315D01*
X117379500Y-114203918D01*
X117379500Y-114203920D01*
X117379499Y-114203920D01*
X117408340Y-114348907D01*
X117408343Y-114348917D01*
X117464912Y-114485488D01*
X117464916Y-114485495D01*
X117489028Y-114521581D01*
X117489029Y-114521584D01*
X117489030Y-114521584D01*
X117547051Y-114608420D01*
X117547052Y-114608421D01*
X119067049Y-116128416D01*
X119171584Y-116232951D01*
X119171587Y-116232953D01*
X119171588Y-116232954D01*
X119294503Y-116315083D01*
X119294506Y-116315085D01*
X119351079Y-116338518D01*
X119351080Y-116338518D01*
X119431088Y-116371659D01*
X119547241Y-116394763D01*
X119566468Y-116398587D01*
X119576081Y-116400500D01*
X119576082Y-116400500D01*
X133113920Y-116400500D01*
X133211462Y-116381096D01*
X133258913Y-116371658D01*
X133395495Y-116315084D01*
X133444729Y-116282186D01*
X133444734Y-116282183D01*
X133469071Y-116265921D01*
X133518416Y-116232952D01*
X138037819Y-111713549D01*
X138099142Y-111680064D01*
X138168834Y-111685048D01*
X138224767Y-111726920D01*
X138249184Y-111792384D01*
X138249500Y-111801230D01*
X138249500Y-113211685D01*
X138249500Y-113211687D01*
X138249499Y-113211687D01*
X138278340Y-113356674D01*
X138278342Y-113356680D01*
X138334916Y-113493262D01*
X138339444Y-113500038D01*
X138339447Y-113500048D01*
X138339450Y-113500047D01*
X138398444Y-113588340D01*
X138417051Y-113616187D01*
X138417052Y-113616188D01*
X141033817Y-116232952D01*
X141033819Y-116232954D01*
X141063291Y-116252645D01*
X141107503Y-116282186D01*
X141156738Y-116315084D01*
X141156739Y-116315084D01*
X141156740Y-116315085D01*
X141156742Y-116315086D01*
X141293315Y-116371656D01*
X141293320Y-116371658D01*
X141293324Y-116371658D01*
X141293325Y-116371659D01*
X141438312Y-116400500D01*
X141438315Y-116400500D01*
X154613920Y-116400500D01*
X154711462Y-116381096D01*
X154758913Y-116371658D01*
X154895495Y-116315084D01*
X154944729Y-116282186D01*
X154944734Y-116282183D01*
X154969071Y-116265921D01*
X155018416Y-116232952D01*
X159838797Y-111412569D01*
X159900118Y-111379086D01*
X159969810Y-111384070D01*
X159982770Y-111389766D01*
X160054369Y-111426248D01*
X160228155Y-111482715D01*
X160294267Y-111493186D01*
X160408630Y-111511300D01*
X160408635Y-111511300D01*
X160591370Y-111511300D01*
X160695101Y-111494870D01*
X160771845Y-111482715D01*
X160945631Y-111426248D01*
X161108444Y-111343291D01*
X161256276Y-111235885D01*
X161385485Y-111106676D01*
X161492891Y-110958844D01*
X161575848Y-110796031D01*
X161632315Y-110622245D01*
X161643402Y-110552245D01*
X161647527Y-110526202D01*
X161677456Y-110463067D01*
X161736768Y-110426136D01*
X161806630Y-110427134D01*
X161864863Y-110465744D01*
X161892473Y-110526202D01*
X161902464Y-110589280D01*
X161907685Y-110622245D01*
X161964152Y-110796031D01*
X162047109Y-110958844D01*
X162154515Y-111106676D01*
X162283724Y-111235885D01*
X162431556Y-111343291D01*
X162594369Y-111426248D01*
X162680225Y-111454144D01*
X162737898Y-111493580D01*
X162765097Y-111557939D01*
X162753183Y-111626785D01*
X162729586Y-111659755D01*
X162710369Y-111678972D01*
X162649046Y-111712457D01*
X162611881Y-111714819D01*
X162606680Y-111714364D01*
X162587171Y-111712657D01*
X162380002Y-111694532D01*
X162379998Y-111694532D01*
X162153313Y-111714364D01*
X162153302Y-111714366D01*
X161933511Y-111773258D01*
X161933502Y-111773261D01*
X161727267Y-111869431D01*
X161727265Y-111869432D01*
X161540858Y-111999954D01*
X161379954Y-112160858D01*
X161249432Y-112347265D01*
X161249431Y-112347267D01*
X161153261Y-112553502D01*
X161153258Y-112553511D01*
X161094366Y-112773302D01*
X161094364Y-112773313D01*
X161074532Y-112999998D01*
X161074532Y-113000001D01*
X161094364Y-113226686D01*
X161094366Y-113226697D01*
X161153258Y-113446488D01*
X161153261Y-113446497D01*
X161249431Y-113652732D01*
X161249432Y-113652734D01*
X161379954Y-113839141D01*
X161540858Y-114000045D01*
X161540861Y-114000047D01*
X161727266Y-114130568D01*
X161933504Y-114226739D01*
X161933509Y-114226740D01*
X161933511Y-114226741D01*
X161986415Y-114240916D01*
X162153308Y-114285635D01*
X162311786Y-114299500D01*
X162379998Y-114305468D01*
X162380000Y-114305468D01*
X162380002Y-114305468D01*
X162448214Y-114299500D01*
X162606692Y-114285635D01*
X162826496Y-114226739D01*
X163032734Y-114130568D01*
X163219139Y-114000047D01*
X163380047Y-113839139D01*
X163510568Y-113652734D01*
X163606739Y-113446496D01*
X163665635Y-113226692D01*
X163685468Y-113000000D01*
X163665635Y-112773308D01*
X163665633Y-112773303D01*
X163665180Y-112768117D01*
X163678946Y-112699617D01*
X163701024Y-112669631D01*
X164617819Y-111752838D01*
X164679142Y-111719353D01*
X164748834Y-111724337D01*
X164804767Y-111766209D01*
X164829184Y-111831673D01*
X164829500Y-111840519D01*
X164829500Y-113057770D01*
X164809815Y-113124809D01*
X164793181Y-113145451D01*
X162725451Y-115213181D01*
X162664128Y-115246666D01*
X162637770Y-115249500D01*
X156926080Y-115249500D01*
X156781092Y-115278340D01*
X156781082Y-115278343D01*
X156644511Y-115334912D01*
X156644498Y-115334919D01*
X156521584Y-115417048D01*
X156521580Y-115417051D01*
X154725451Y-117213181D01*
X154664128Y-117246666D01*
X154637770Y-117249500D01*
X151299972Y-117249500D01*
X151259017Y-117242542D01*
X151179254Y-117214631D01*
X151179249Y-117214630D01*
X151000004Y-117194435D01*
X150999996Y-117194435D01*
X150820750Y-117214630D01*
X150820745Y-117214631D01*
X150650476Y-117274211D01*
X150497737Y-117370184D01*
X150370184Y-117497737D01*
X150274211Y-117650476D01*
X150214631Y-117820745D01*
X150214630Y-117820750D01*
X150194435Y-117999996D01*
X150194435Y-118000003D01*
X150214630Y-118179249D01*
X150214631Y-118179254D01*
X150274211Y-118349523D01*
X150323100Y-118427329D01*
X150370184Y-118502262D01*
X150497738Y-118629816D01*
X150650478Y-118725789D01*
X150820745Y-118785368D01*
X150820750Y-118785369D01*
X150999996Y-118805565D01*
X151000000Y-118805565D01*
X151000004Y-118805565D01*
X151179249Y-118785369D01*
X151179252Y-118785368D01*
X151179255Y-118785368D01*
X151259017Y-118757457D01*
X151299972Y-118750500D01*
X154125500Y-118750500D01*
X154192539Y-118770185D01*
X154238294Y-118822989D01*
X154249500Y-118874500D01*
X154249500Y-135073918D01*
X154249500Y-135073920D01*
X154249499Y-135073920D01*
X154278340Y-135218907D01*
X154278343Y-135218917D01*
X154334914Y-135355492D01*
X154367812Y-135404727D01*
X154367813Y-135404730D01*
X154417046Y-135478414D01*
X154417052Y-135478421D01*
X156658951Y-137720319D01*
X156692436Y-137781642D01*
X156687452Y-137851334D01*
X156645580Y-137907267D01*
X156580116Y-137931684D01*
X156571270Y-137932000D01*
X154044729Y-137932000D01*
X153977690Y-137912315D01*
X153957048Y-137895681D01*
X152786819Y-136725451D01*
X152753334Y-136664128D01*
X152750500Y-136637770D01*
X152750500Y-128206081D01*
X152740218Y-128154394D01*
X152737040Y-128138416D01*
X152721659Y-128061088D01*
X152688518Y-127981080D01*
X152688518Y-127981079D01*
X152665085Y-127924506D01*
X152665083Y-127924503D01*
X152582954Y-127801588D01*
X152582953Y-127801587D01*
X152582951Y-127801584D01*
X152478416Y-127697049D01*
X150055285Y-125273918D01*
X147220283Y-122438915D01*
X147186798Y-122377592D01*
X147187759Y-122320792D01*
X147198093Y-122279984D01*
X147198093Y-122279983D01*
X147198095Y-122279976D01*
X147198096Y-122279962D01*
X147217980Y-122040005D01*
X147217980Y-122039994D01*
X147198095Y-121800027D01*
X147198095Y-121800024D01*
X147138983Y-121566595D01*
X147042255Y-121346078D01*
X146910551Y-121144490D01*
X146747463Y-120967329D01*
X146619656Y-120867853D01*
X146578843Y-120811143D01*
X146575168Y-120741370D01*
X146609800Y-120680687D01*
X146619656Y-120672147D01*
X146640072Y-120656255D01*
X146747463Y-120572671D01*
X146910551Y-120395510D01*
X147042255Y-120193922D01*
X147138983Y-119973405D01*
X147198095Y-119739976D01*
X147217980Y-119500000D01*
X147211106Y-119417049D01*
X147198095Y-119260027D01*
X147198095Y-119260024D01*
X147138983Y-119026595D01*
X147042255Y-118806078D01*
X146910551Y-118604490D01*
X146747463Y-118427329D01*
X146597832Y-118310867D01*
X146557441Y-118279429D01*
X146345665Y-118164821D01*
X146345656Y-118164818D01*
X146117916Y-118086634D01*
X145939777Y-118056908D01*
X145880399Y-118047000D01*
X145639601Y-118047000D01*
X145592098Y-118054926D01*
X145402083Y-118086634D01*
X145174343Y-118164818D01*
X145174334Y-118164821D01*
X144962558Y-118279429D01*
X144828456Y-118383805D01*
X144772537Y-118427329D01*
X144772534Y-118427331D01*
X144772534Y-118427332D01*
X144609449Y-118604490D01*
X144477743Y-118806081D01*
X144381017Y-119026594D01*
X144321904Y-119260027D01*
X144302020Y-119499994D01*
X144302020Y-119500005D01*
X144321904Y-119739974D01*
X144332241Y-119780795D01*
X144329615Y-119850616D01*
X144299716Y-119898915D01*
X136985451Y-127213181D01*
X136924128Y-127246666D01*
X136897770Y-127249500D01*
X133626663Y-127249500D01*
X133559624Y-127229815D01*
X133525088Y-127196623D01*
X133500045Y-127160858D01*
X133339141Y-126999954D01*
X133152734Y-126869432D01*
X133152732Y-126869431D01*
X132946497Y-126773261D01*
X132946488Y-126773258D01*
X132726697Y-126714366D01*
X132726693Y-126714365D01*
X132726692Y-126714365D01*
X132726691Y-126714364D01*
X132726686Y-126714364D01*
X132500002Y-126694532D01*
X132499998Y-126694532D01*
X132273313Y-126714364D01*
X132273302Y-126714366D01*
X132053511Y-126773258D01*
X132053502Y-126773261D01*
X131847267Y-126869431D01*
X131847265Y-126869432D01*
X131660858Y-126999954D01*
X131499954Y-127160858D01*
X131369432Y-127347265D01*
X131369431Y-127347267D01*
X131273261Y-127553502D01*
X131273258Y-127553511D01*
X131214366Y-127773302D01*
X131214364Y-127773313D01*
X131194532Y-127999998D01*
X131194532Y-128000001D01*
X131214364Y-128226686D01*
X131214366Y-128226697D01*
X131273258Y-128446488D01*
X131273261Y-128446497D01*
X131369431Y-128652732D01*
X131369432Y-128652734D01*
X131499954Y-128839141D01*
X131660859Y-129000046D01*
X131696621Y-129025086D01*
X131740247Y-129079662D01*
X131749500Y-129126662D01*
X131749500Y-130126128D01*
X131729815Y-130193167D01*
X131684522Y-130235179D01*
X131676491Y-130239526D01*
X131545667Y-130341350D01*
X131480257Y-130392261D01*
X131311833Y-130575217D01*
X131175826Y-130783393D01*
X131075936Y-131011118D01*
X131014892Y-131252175D01*
X131014890Y-131252187D01*
X130994357Y-131499994D01*
X130994357Y-131500005D01*
X131014890Y-131747812D01*
X131014892Y-131747824D01*
X131075936Y-131988881D01*
X131175826Y-132216606D01*
X131311833Y-132424782D01*
X131325820Y-132439976D01*
X131480256Y-132607738D01*
X131676491Y-132760474D01*
X131684513Y-132764815D01*
X131734106Y-132814032D01*
X131749500Y-132873872D01*
X131749500Y-136626128D01*
X131729815Y-136693167D01*
X131684522Y-136735179D01*
X131676491Y-136739526D01*
X131569258Y-136822989D01*
X131480257Y-136892261D01*
X131311833Y-137075217D01*
X131175826Y-137283393D01*
X131075936Y-137511118D01*
X131014892Y-137752175D01*
X131014890Y-137752187D01*
X130994357Y-137999994D01*
X130994357Y-138000005D01*
X131014890Y-138247812D01*
X131014892Y-138247824D01*
X131075936Y-138488881D01*
X131175826Y-138716606D01*
X131311833Y-138924782D01*
X131311836Y-138924785D01*
X131480256Y-139107738D01*
X131676491Y-139260474D01*
X131687525Y-139266445D01*
X131737115Y-139315665D01*
X131752223Y-139383881D01*
X131728053Y-139449437D01*
X131672277Y-139491518D01*
X131628507Y-139499500D01*
X128871493Y-139499500D01*
X128804454Y-139479815D01*
X128758699Y-139427011D01*
X128748755Y-139357853D01*
X128777780Y-139294297D01*
X128812473Y-139266445D01*
X128823509Y-139260474D01*
X129019744Y-139107738D01*
X129188164Y-138924785D01*
X129324173Y-138716607D01*
X129424063Y-138488881D01*
X129485108Y-138247821D01*
X129491645Y-138168934D01*
X129505643Y-138000005D01*
X129505643Y-137999994D01*
X129485109Y-137752187D01*
X129485107Y-137752175D01*
X129424063Y-137511118D01*
X129324173Y-137283393D01*
X129188166Y-137075217D01*
X129135696Y-137018220D01*
X129019744Y-136892262D01*
X128823509Y-136739526D01*
X128823507Y-136739525D01*
X128823506Y-136739524D01*
X128604811Y-136621172D01*
X128604802Y-136621169D01*
X128369616Y-136540429D01*
X128124335Y-136499500D01*
X127875665Y-136499500D01*
X127630383Y-136540429D01*
X127395197Y-136621169D01*
X127395188Y-136621172D01*
X127176493Y-136739524D01*
X126980257Y-136892261D01*
X126811833Y-137075217D01*
X126675826Y-137283393D01*
X126575936Y-137511118D01*
X126514892Y-137752175D01*
X126514890Y-137752187D01*
X126494357Y-137999994D01*
X126494357Y-138000005D01*
X126514890Y-138247812D01*
X126514892Y-138247824D01*
X126575936Y-138488881D01*
X126675826Y-138716606D01*
X126811833Y-138924782D01*
X126811836Y-138924785D01*
X126980256Y-139107738D01*
X127176491Y-139260474D01*
X127187525Y-139266445D01*
X127237115Y-139315665D01*
X127252223Y-139383881D01*
X127228053Y-139449437D01*
X127172277Y-139491518D01*
X127128507Y-139499500D01*
X113168935Y-139499500D01*
X113101896Y-139479815D01*
X113056141Y-139427011D01*
X113046197Y-139357853D01*
X113075222Y-139294297D01*
X113108954Y-139266972D01*
X113205189Y-139213784D01*
X113205194Y-139213781D01*
X113498299Y-139005811D01*
X113498322Y-139005793D01*
X113579602Y-138933155D01*
X113579602Y-138933154D01*
X112261718Y-137615270D01*
X112379466Y-137529722D01*
X112529722Y-137379466D01*
X112615270Y-137261718D01*
X113933154Y-138579602D01*
X113933155Y-138579602D01*
X114005793Y-138498322D01*
X114005811Y-138498299D01*
X114213781Y-138205194D01*
X114213784Y-138205189D01*
X114387644Y-137890613D01*
X114387646Y-137890609D01*
X114525187Y-137558552D01*
X114624683Y-137213194D01*
X114624685Y-137213185D01*
X114684887Y-136858858D01*
X114684889Y-136858846D01*
X114705041Y-136500000D01*
X114684889Y-136141153D01*
X114684887Y-136141141D01*
X114624685Y-135786814D01*
X114624683Y-135786805D01*
X114525187Y-135441447D01*
X114387646Y-135109390D01*
X114387644Y-135109386D01*
X114213784Y-134794810D01*
X114213781Y-134794805D01*
X114005806Y-134501693D01*
X113933154Y-134420397D01*
X112615270Y-135738281D01*
X112529722Y-135620534D01*
X112379466Y-135470278D01*
X112261717Y-135384729D01*
X113579601Y-134066844D01*
X113579602Y-134066844D01*
X113498306Y-133994193D01*
X113205194Y-133786218D01*
X113205189Y-133786215D01*
X112890613Y-133612355D01*
X112890609Y-133612353D01*
X112558552Y-133474812D01*
X112213194Y-133375316D01*
X112213185Y-133375314D01*
X111858858Y-133315112D01*
X111858846Y-133315110D01*
X111500000Y-133294958D01*
X111141153Y-133315110D01*
X111141141Y-133315112D01*
X110786814Y-133375314D01*
X110786805Y-133375316D01*
X110441447Y-133474812D01*
X110109390Y-133612353D01*
X110109386Y-133612355D01*
X109794810Y-133786215D01*
X109794805Y-133786218D01*
X109501693Y-133994193D01*
X109420397Y-134066844D01*
X110738282Y-135384729D01*
X110620534Y-135470278D01*
X110470278Y-135620534D01*
X110384729Y-135738282D01*
X109066844Y-134420397D01*
X108994193Y-134501693D01*
X108786218Y-134794805D01*
X108786215Y-134794810D01*
X108733028Y-134891046D01*
X108683371Y-134940199D01*
X108615023Y-134954702D01*
X108549684Y-134929952D01*
X108508099Y-134873805D01*
X108500500Y-134831065D01*
X108500500Y-131500005D01*
X126494357Y-131500005D01*
X126514890Y-131747812D01*
X126514892Y-131747824D01*
X126575936Y-131988881D01*
X126675826Y-132216606D01*
X126811833Y-132424782D01*
X126825820Y-132439976D01*
X126980256Y-132607738D01*
X127176491Y-132760474D01*
X127395190Y-132878828D01*
X127630386Y-132959571D01*
X127875665Y-133000500D01*
X128124335Y-133000500D01*
X128369614Y-132959571D01*
X128604810Y-132878828D01*
X128823509Y-132760474D01*
X129019744Y-132607738D01*
X129188164Y-132424785D01*
X129324173Y-132216607D01*
X129424063Y-131988881D01*
X129485108Y-131747821D01*
X129486867Y-131726594D01*
X129505643Y-131500005D01*
X129505643Y-131499994D01*
X129485109Y-131252187D01*
X129485107Y-131252175D01*
X129424063Y-131011118D01*
X129324173Y-130783393D01*
X129188166Y-130575217D01*
X129166557Y-130551744D01*
X129019744Y-130392262D01*
X128823509Y-130239526D01*
X128823507Y-130239525D01*
X128823506Y-130239524D01*
X128604811Y-130121172D01*
X128604802Y-130121169D01*
X128369616Y-130040429D01*
X128124335Y-129999500D01*
X127875665Y-129999500D01*
X127630383Y-130040429D01*
X127395197Y-130121169D01*
X127395188Y-130121172D01*
X127176493Y-130239524D01*
X126980257Y-130392261D01*
X126811833Y-130575217D01*
X126675826Y-130783393D01*
X126575936Y-131011118D01*
X126514892Y-131252175D01*
X126514890Y-131252187D01*
X126494357Y-131499994D01*
X126494357Y-131500005D01*
X108500500Y-131500005D01*
X108500500Y-128000002D01*
X123575034Y-128000002D01*
X123594858Y-128226599D01*
X123594860Y-128226610D01*
X123653730Y-128446317D01*
X123653735Y-128446331D01*
X123749863Y-128652478D01*
X123800974Y-128725472D01*
X124480000Y-128046446D01*
X124480000Y-128052661D01*
X124507259Y-128154394D01*
X124559920Y-128245606D01*
X124634394Y-128320080D01*
X124725606Y-128372741D01*
X124827339Y-128400000D01*
X124833553Y-128400000D01*
X124154526Y-129079025D01*
X124227513Y-129130132D01*
X124227521Y-129130136D01*
X124433668Y-129226264D01*
X124433682Y-129226269D01*
X124653389Y-129285139D01*
X124653400Y-129285141D01*
X124879998Y-129304966D01*
X124880002Y-129304966D01*
X125106599Y-129285141D01*
X125106610Y-129285139D01*
X125326317Y-129226269D01*
X125326331Y-129226264D01*
X125532478Y-129130136D01*
X125605471Y-129079024D01*
X124926447Y-128400000D01*
X124932661Y-128400000D01*
X125034394Y-128372741D01*
X125125606Y-128320080D01*
X125200080Y-128245606D01*
X125252741Y-128154394D01*
X125280000Y-128052661D01*
X125280000Y-128046447D01*
X125959024Y-128725471D01*
X126010136Y-128652478D01*
X126106264Y-128446331D01*
X126106269Y-128446317D01*
X126165139Y-128226610D01*
X126165141Y-128226599D01*
X126184966Y-128000002D01*
X126184966Y-127999997D01*
X126165141Y-127773400D01*
X126165139Y-127773389D01*
X126106269Y-127553682D01*
X126106264Y-127553668D01*
X126010136Y-127347521D01*
X126010132Y-127347513D01*
X125959025Y-127274526D01*
X125280000Y-127953551D01*
X125280000Y-127947339D01*
X125252741Y-127845606D01*
X125200080Y-127754394D01*
X125125606Y-127679920D01*
X125034394Y-127627259D01*
X124932661Y-127600000D01*
X124926448Y-127600000D01*
X125605472Y-126920974D01*
X125532478Y-126869863D01*
X125326331Y-126773735D01*
X125326317Y-126773730D01*
X125106610Y-126714860D01*
X125106599Y-126714858D01*
X124880002Y-126695034D01*
X124879998Y-126695034D01*
X124653400Y-126714858D01*
X124653389Y-126714860D01*
X124433682Y-126773730D01*
X124433673Y-126773734D01*
X124227516Y-126869866D01*
X124227512Y-126869868D01*
X124154526Y-126920973D01*
X124154526Y-126920974D01*
X124833553Y-127600000D01*
X124827339Y-127600000D01*
X124725606Y-127627259D01*
X124634394Y-127679920D01*
X124559920Y-127754394D01*
X124507259Y-127845606D01*
X124480000Y-127947339D01*
X124480000Y-127953552D01*
X123800974Y-127274526D01*
X123800973Y-127274526D01*
X123749868Y-127347512D01*
X123749866Y-127347516D01*
X123653734Y-127553673D01*
X123653730Y-127553682D01*
X123594860Y-127773389D01*
X123594858Y-127773400D01*
X123575034Y-127999997D01*
X123575034Y-128000002D01*
X108500500Y-128000002D01*
X108500500Y-85668934D01*
X108520185Y-85601895D01*
X108572989Y-85556140D01*
X108642147Y-85546196D01*
X108705703Y-85575221D01*
X108733028Y-85608953D01*
X108786215Y-85705189D01*
X108786218Y-85705194D01*
X108994193Y-85998306D01*
X109066844Y-86079601D01*
X110384728Y-84761717D01*
X110470278Y-84879466D01*
X110620534Y-85029722D01*
X110738281Y-85115270D01*
X109420397Y-86433154D01*
X109501693Y-86505806D01*
X109794805Y-86713781D01*
X109794810Y-86713784D01*
X110109386Y-86887644D01*
X110109390Y-86887646D01*
X110441447Y-87025187D01*
X110786805Y-87124683D01*
X110786814Y-87124685D01*
X111141141Y-87184887D01*
X111141153Y-87184889D01*
X111500000Y-87205041D01*
X111858846Y-87184889D01*
X111858858Y-87184887D01*
X112213185Y-87124685D01*
X112213194Y-87124683D01*
X112558552Y-87025187D01*
X112890609Y-86887646D01*
X112890613Y-86887644D01*
X113205189Y-86713784D01*
X113205194Y-86713781D01*
X113498299Y-86505811D01*
X113498322Y-86505793D01*
X113579602Y-86433155D01*
X113579602Y-86433154D01*
X112261718Y-85115270D01*
X112379466Y-85029722D01*
X112529722Y-84879466D01*
X112615270Y-84761718D01*
X113933154Y-86079602D01*
X113933155Y-86079602D01*
X114005793Y-85998322D01*
X114005811Y-85998299D01*
X114213781Y-85705194D01*
X114213784Y-85705189D01*
X114387644Y-85390613D01*
X114387646Y-85390609D01*
X114525187Y-85058552D01*
X114624683Y-84713194D01*
X114624685Y-84713185D01*
X114684887Y-84358858D01*
X114684889Y-84358846D01*
X114705041Y-84000000D01*
X114684889Y-83641153D01*
X114684887Y-83641141D01*
X114624685Y-83286814D01*
X114624683Y-83286805D01*
X114525187Y-82941447D01*
X114387646Y-82609390D01*
X114387644Y-82609386D01*
X114213784Y-82294810D01*
X114213781Y-82294805D01*
X114005806Y-82001693D01*
X113933154Y-81920397D01*
X112615270Y-83238281D01*
X112529722Y-83120534D01*
X112379466Y-82970278D01*
X112261717Y-82884729D01*
X113579601Y-81566844D01*
X113579602Y-81566844D01*
X113498306Y-81494193D01*
X113205194Y-81286218D01*
X113205189Y-81286215D01*
X113108954Y-81233028D01*
X113059801Y-81183371D01*
X113045298Y-81115023D01*
X113070048Y-81049684D01*
X113126195Y-81008099D01*
X113168935Y-81000500D01*
X173970841Y-81000500D01*
X174037880Y-81020185D01*
G37*
G04 #@! TD.AperFunction*
G04 #@! TA.AperFunction,Conductor*
G36*
X144242464Y-122181415D02*
G01*
X144298397Y-122223287D01*
X144320520Y-122275035D01*
X144320646Y-122275004D01*
X144320847Y-122275800D01*
X144321437Y-122277179D01*
X144321901Y-122279962D01*
X144349715Y-122389795D01*
X144381017Y-122513405D01*
X144477745Y-122733922D01*
X144609449Y-122935510D01*
X144772537Y-123112671D01*
X144862608Y-123182776D01*
X144900344Y-123212147D01*
X144941157Y-123268857D01*
X144944831Y-123338630D01*
X144910199Y-123399313D01*
X144900344Y-123407853D01*
X144772539Y-123507327D01*
X144772534Y-123507332D01*
X144609449Y-123684490D01*
X144477743Y-123886081D01*
X144381017Y-124106594D01*
X144321904Y-124340027D01*
X144302020Y-124579994D01*
X144302020Y-124580005D01*
X144321904Y-124819972D01*
X144321904Y-124819975D01*
X144321905Y-124819976D01*
X144381017Y-125053405D01*
X144477745Y-125273922D01*
X144609449Y-125475510D01*
X144772537Y-125652671D01*
X144862608Y-125722776D01*
X144900344Y-125752147D01*
X144941157Y-125808857D01*
X144944831Y-125878630D01*
X144910199Y-125939313D01*
X144900344Y-125947853D01*
X144772539Y-126047327D01*
X144772534Y-126047332D01*
X144609449Y-126224490D01*
X144477743Y-126426081D01*
X144381017Y-126646594D01*
X144321904Y-126880027D01*
X144302020Y-127119994D01*
X144302020Y-127120005D01*
X144321904Y-127359972D01*
X144381017Y-127593405D01*
X144459965Y-127773389D01*
X144477745Y-127813922D01*
X144609449Y-128015510D01*
X144772537Y-128192671D01*
X144816254Y-128226697D01*
X144900344Y-128292147D01*
X144941157Y-128348857D01*
X144944831Y-128418630D01*
X144910199Y-128479313D01*
X144900344Y-128487853D01*
X144772539Y-128587327D01*
X144772534Y-128587332D01*
X144609449Y-128764490D01*
X144477743Y-128966081D01*
X144381017Y-129186594D01*
X144321904Y-129420027D01*
X144302020Y-129659994D01*
X144302020Y-129660005D01*
X144321904Y-129899972D01*
X144381017Y-130133405D01*
X144418308Y-130218421D01*
X144477745Y-130353922D01*
X144609449Y-130555510D01*
X144772537Y-130732671D01*
X144837705Y-130783393D01*
X144900344Y-130832147D01*
X144941157Y-130888857D01*
X144944831Y-130958630D01*
X144910199Y-131019313D01*
X144900344Y-131027853D01*
X144772539Y-131127327D01*
X144772534Y-131127332D01*
X144609449Y-131304490D01*
X144477743Y-131506081D01*
X144381017Y-131726594D01*
X144321904Y-131960027D01*
X144302020Y-132199994D01*
X144302020Y-132200005D01*
X144321904Y-132439972D01*
X144381017Y-132673405D01*
X144471123Y-132878827D01*
X144477745Y-132893922D01*
X144609449Y-133095510D01*
X144772537Y-133272671D01*
X144857021Y-133338428D01*
X144900750Y-133372463D01*
X144941563Y-133429173D01*
X144945238Y-133498946D01*
X144924746Y-133534851D01*
X144923791Y-133550237D01*
X145523992Y-134150438D01*
X145459215Y-134177271D01*
X145355211Y-134246764D01*
X145266764Y-134335211D01*
X145197271Y-134439215D01*
X145170438Y-134503992D01*
X144570881Y-133904435D01*
X144478185Y-134046317D01*
X144381491Y-134266759D01*
X144322399Y-134500110D01*
X144302522Y-134739994D01*
X144302522Y-134740005D01*
X144322399Y-134979889D01*
X144381491Y-135213240D01*
X144478185Y-135433682D01*
X144570880Y-135575563D01*
X145170438Y-134976006D01*
X145197271Y-135040785D01*
X145266764Y-135144789D01*
X145355211Y-135233236D01*
X145459215Y-135302729D01*
X145523991Y-135329560D01*
X144923790Y-135929761D01*
X144924747Y-135945171D01*
X144941565Y-135968539D01*
X144945239Y-136038312D01*
X144910607Y-136098995D01*
X144900752Y-136107535D01*
X144772539Y-136207327D01*
X144772534Y-136207332D01*
X144609449Y-136384490D01*
X144477743Y-136586081D01*
X144381017Y-136806594D01*
X144321904Y-137040027D01*
X144302020Y-137279994D01*
X144302020Y-137280005D01*
X144321904Y-137519972D01*
X144381017Y-137753405D01*
X144459217Y-137931684D01*
X144477745Y-137973922D01*
X144609449Y-138175510D01*
X144772537Y-138352671D01*
X144928908Y-138474379D01*
X144959649Y-138498306D01*
X144962561Y-138500572D01*
X145174336Y-138615179D01*
X145292598Y-138655778D01*
X145402083Y-138693365D01*
X145402085Y-138693365D01*
X145402087Y-138693366D01*
X145639601Y-138733000D01*
X145639602Y-138733000D01*
X145880398Y-138733000D01*
X145880399Y-138733000D01*
X146117913Y-138693366D01*
X146345664Y-138615179D01*
X146557439Y-138500572D01*
X146747463Y-138352671D01*
X146910551Y-138175510D01*
X147042255Y-137973922D01*
X147138983Y-137753405D01*
X147198095Y-137519976D01*
X147217980Y-137280000D01*
X147212444Y-137213194D01*
X147200904Y-137073920D01*
X147198095Y-137040024D01*
X147138983Y-136806595D01*
X147042255Y-136586078D01*
X146910551Y-136384490D01*
X146747463Y-136207329D01*
X146619246Y-136107534D01*
X146578433Y-136050824D01*
X146574759Y-135981051D01*
X146595253Y-135945140D01*
X146596208Y-135929760D01*
X145996008Y-135329560D01*
X146060785Y-135302729D01*
X146164789Y-135233236D01*
X146253236Y-135144789D01*
X146322729Y-135040785D01*
X146349560Y-134976007D01*
X146949117Y-135575564D01*
X147041815Y-135433679D01*
X147138508Y-135213240D01*
X147197600Y-134979889D01*
X147217478Y-134740005D01*
X147217478Y-134739994D01*
X147197600Y-134500110D01*
X147138508Y-134266759D01*
X147041815Y-134046320D01*
X146949117Y-133904434D01*
X146349560Y-134503991D01*
X146322729Y-134439215D01*
X146253236Y-134335211D01*
X146164789Y-134246764D01*
X146060785Y-134177271D01*
X145996007Y-134150438D01*
X146596208Y-133550237D01*
X146595251Y-133534823D01*
X146578435Y-133511456D01*
X146574762Y-133441683D01*
X146609395Y-133381001D01*
X146619231Y-133372477D01*
X146747463Y-133272671D01*
X146910551Y-133095510D01*
X147042255Y-132893922D01*
X147138983Y-132673405D01*
X147198095Y-132439976D01*
X147206932Y-132333320D01*
X147217980Y-132200005D01*
X147217980Y-132199994D01*
X147198504Y-131964963D01*
X147198095Y-131960024D01*
X147138983Y-131726595D01*
X147042255Y-131506078D01*
X146910551Y-131304490D01*
X146747463Y-131127329D01*
X146619656Y-131027853D01*
X146578843Y-130971143D01*
X146575168Y-130901370D01*
X146609800Y-130840687D01*
X146619656Y-130832147D01*
X146640072Y-130816255D01*
X146747463Y-130732671D01*
X146910551Y-130555510D01*
X147042255Y-130353922D01*
X147138983Y-130133405D01*
X147198095Y-129899976D01*
X147216454Y-129678415D01*
X147217980Y-129660005D01*
X147217980Y-129659994D01*
X147201859Y-129465450D01*
X147198095Y-129420024D01*
X147138983Y-129186595D01*
X147042255Y-128966078D01*
X146910551Y-128764490D01*
X146747463Y-128587329D01*
X146619656Y-128487853D01*
X146578843Y-128431143D01*
X146575168Y-128361370D01*
X146609800Y-128300687D01*
X146619656Y-128292147D01*
X146640072Y-128276255D01*
X146747463Y-128192671D01*
X146910551Y-128015510D01*
X147042255Y-127813922D01*
X147138983Y-127593405D01*
X147198095Y-127359976D01*
X147207484Y-127246666D01*
X147217980Y-127120005D01*
X147217980Y-127119994D01*
X147198095Y-126880027D01*
X147198095Y-126880024D01*
X147138983Y-126646595D01*
X147042255Y-126426078D01*
X146910551Y-126224490D01*
X146747463Y-126047329D01*
X146619656Y-125947853D01*
X146578843Y-125891143D01*
X146575168Y-125821370D01*
X146609800Y-125760687D01*
X146619656Y-125752147D01*
X146640072Y-125736255D01*
X146747463Y-125652671D01*
X146910551Y-125475510D01*
X147042255Y-125273922D01*
X147138983Y-125053405D01*
X147198095Y-124819976D01*
X147198096Y-124819969D01*
X147198560Y-124817192D01*
X147199063Y-124816153D01*
X147199354Y-124815004D01*
X147199590Y-124815063D01*
X147229008Y-124754306D01*
X147288621Y-124717865D01*
X147358473Y-124719437D01*
X147408550Y-124749917D01*
X151213181Y-128554548D01*
X151246666Y-128615871D01*
X151249500Y-128642229D01*
X151249500Y-137073918D01*
X151249500Y-137073920D01*
X151249499Y-137073920D01*
X151278340Y-137218907D01*
X151278343Y-137218917D01*
X151334914Y-137355492D01*
X151367812Y-137404727D01*
X151367813Y-137404730D01*
X151417046Y-137478414D01*
X151417052Y-137478421D01*
X152863415Y-138924782D01*
X153099548Y-139160915D01*
X153099549Y-139160916D01*
X153204084Y-139265451D01*
X153204086Y-139265452D01*
X153204086Y-139265453D01*
X153214481Y-139272399D01*
X153259285Y-139326011D01*
X153267992Y-139395337D01*
X153237837Y-139458364D01*
X153178393Y-139495082D01*
X153145589Y-139499500D01*
X133371493Y-139499500D01*
X133304454Y-139479815D01*
X133258699Y-139427011D01*
X133248755Y-139357853D01*
X133277780Y-139294297D01*
X133312473Y-139266445D01*
X133323509Y-139260474D01*
X133519744Y-139107738D01*
X133688164Y-138924785D01*
X133824173Y-138716607D01*
X133924063Y-138488881D01*
X133985108Y-138247821D01*
X133991645Y-138168934D01*
X134005643Y-138000005D01*
X134005643Y-137999994D01*
X133985109Y-137752187D01*
X133985107Y-137752175D01*
X133924063Y-137511118D01*
X133824173Y-137283393D01*
X133688166Y-137075217D01*
X133635696Y-137018220D01*
X133519744Y-136892262D01*
X133323509Y-136739526D01*
X133315477Y-136735179D01*
X133265891Y-136685961D01*
X133250500Y-136626128D01*
X133250500Y-132873872D01*
X133270185Y-132806833D01*
X133315487Y-132764815D01*
X133323509Y-132760474D01*
X133519744Y-132607738D01*
X133688164Y-132424785D01*
X133824173Y-132216607D01*
X133924063Y-131988881D01*
X133985108Y-131747821D01*
X133986867Y-131726594D01*
X134005643Y-131500005D01*
X134005643Y-131499994D01*
X133985109Y-131252187D01*
X133985107Y-131252175D01*
X133924063Y-131011118D01*
X133824173Y-130783393D01*
X133688166Y-130575217D01*
X133666557Y-130551744D01*
X133519744Y-130392262D01*
X133323509Y-130239526D01*
X133315477Y-130235179D01*
X133265891Y-130185961D01*
X133250500Y-130126128D01*
X133250500Y-129126662D01*
X133270185Y-129059623D01*
X133303379Y-129025086D01*
X133339140Y-129000046D01*
X133500045Y-128839141D01*
X133500047Y-128839139D01*
X133525088Y-128803377D01*
X133579665Y-128759752D01*
X133626663Y-128750500D01*
X137333920Y-128750500D01*
X137459744Y-128725471D01*
X137478913Y-128721658D01*
X137615495Y-128665084D01*
X137664729Y-128632186D01*
X137738416Y-128582952D01*
X144111451Y-122209914D01*
X144172772Y-122176431D01*
X144242464Y-122181415D01*
G37*
G04 #@! TD.AperFunction*
G04 #@! TA.AperFunction,Conductor*
G36*
X199933154Y-86079602D02*
G01*
X199933155Y-86079602D01*
X200005793Y-85998322D01*
X200005811Y-85998299D01*
X200213781Y-85705194D01*
X200213784Y-85705189D01*
X200266972Y-85608953D01*
X200316629Y-85559800D01*
X200384976Y-85545297D01*
X200450315Y-85570047D01*
X200491901Y-85626193D01*
X200499500Y-85668934D01*
X200499500Y-134831065D01*
X200479815Y-134898104D01*
X200427011Y-134943859D01*
X200357853Y-134953803D01*
X200294297Y-134924778D01*
X200266972Y-134891046D01*
X200213784Y-134794810D01*
X200213781Y-134794805D01*
X200005806Y-134501693D01*
X199933154Y-134420397D01*
X198615270Y-135738281D01*
X198529722Y-135620534D01*
X198379466Y-135470278D01*
X198261717Y-135384729D01*
X199579601Y-134066844D01*
X199579602Y-134066844D01*
X199498306Y-133994193D01*
X199205194Y-133786218D01*
X199205189Y-133786215D01*
X198890613Y-133612355D01*
X198890609Y-133612353D01*
X198558552Y-133474812D01*
X198213194Y-133375316D01*
X198213185Y-133375314D01*
X197858858Y-133315112D01*
X197858846Y-133315110D01*
X197500000Y-133294958D01*
X197141153Y-133315110D01*
X197141141Y-133315112D01*
X196786814Y-133375314D01*
X196786805Y-133375316D01*
X196441447Y-133474812D01*
X196109390Y-133612353D01*
X196109386Y-133612355D01*
X195794810Y-133786215D01*
X195794805Y-133786218D01*
X195501693Y-133994193D01*
X195420397Y-134066844D01*
X196738282Y-135384729D01*
X196620534Y-135470278D01*
X196470278Y-135620534D01*
X196384729Y-135738282D01*
X195066844Y-134420397D01*
X194994193Y-134501693D01*
X194786218Y-134794805D01*
X194786215Y-134794810D01*
X194612355Y-135109386D01*
X194612353Y-135109390D01*
X194474812Y-135441447D01*
X194375316Y-135786805D01*
X194375314Y-135786814D01*
X194315112Y-136141141D01*
X194315110Y-136141153D01*
X194294958Y-136500000D01*
X194315110Y-136858846D01*
X194315112Y-136858858D01*
X194375314Y-137213185D01*
X194375316Y-137213194D01*
X194474812Y-137558552D01*
X194612353Y-137890609D01*
X194612355Y-137890613D01*
X194786215Y-138205189D01*
X194786218Y-138205194D01*
X194994193Y-138498306D01*
X195066844Y-138579601D01*
X196384728Y-137261717D01*
X196470278Y-137379466D01*
X196620534Y-137529722D01*
X196738281Y-137615270D01*
X195420397Y-138933154D01*
X195501693Y-139005806D01*
X195794805Y-139213781D01*
X195794810Y-139213784D01*
X195891046Y-139266972D01*
X195940199Y-139316629D01*
X195954702Y-139384977D01*
X195929952Y-139450316D01*
X195873805Y-139491901D01*
X195831065Y-139499500D01*
X179871493Y-139499500D01*
X179804454Y-139479815D01*
X179758699Y-139427011D01*
X179748755Y-139357853D01*
X179777780Y-139294297D01*
X179812473Y-139266445D01*
X179823509Y-139260474D01*
X180019744Y-139107738D01*
X180188164Y-138924785D01*
X180324173Y-138716607D01*
X180424063Y-138488881D01*
X180485108Y-138247821D01*
X180491645Y-138168934D01*
X180505643Y-138000005D01*
X180505643Y-137999994D01*
X180485109Y-137752187D01*
X180485107Y-137752175D01*
X180424063Y-137511118D01*
X180324173Y-137283393D01*
X180188166Y-137075217D01*
X180135696Y-137018220D01*
X180019744Y-136892262D01*
X179823509Y-136739526D01*
X179815477Y-136735179D01*
X179765891Y-136685961D01*
X179750500Y-136626128D01*
X179750500Y-132873872D01*
X179770185Y-132806833D01*
X179815487Y-132764815D01*
X179823509Y-132760474D01*
X180019744Y-132607738D01*
X180188164Y-132424785D01*
X180324173Y-132216607D01*
X180424063Y-131988881D01*
X180485108Y-131747821D01*
X180486867Y-131726594D01*
X180505643Y-131500005D01*
X180505643Y-131499994D01*
X180485109Y-131252187D01*
X180485107Y-131252175D01*
X180424063Y-131011118D01*
X180324173Y-130783393D01*
X180188166Y-130575217D01*
X180166557Y-130551744D01*
X180019744Y-130392262D01*
X179823509Y-130239526D01*
X179815477Y-130235179D01*
X179765891Y-130185961D01*
X179750500Y-130126128D01*
X179750500Y-129126662D01*
X179770185Y-129059623D01*
X179803379Y-129025086D01*
X179839140Y-129000046D01*
X180000045Y-128839141D01*
X180000047Y-128839139D01*
X180130568Y-128652734D01*
X180226739Y-128446496D01*
X180285635Y-128226692D01*
X180305468Y-128000000D01*
X180285635Y-127773308D01*
X180226739Y-127553504D01*
X180130568Y-127347266D01*
X180000047Y-127160861D01*
X180000045Y-127160858D01*
X179839141Y-126999954D01*
X179652734Y-126869432D01*
X179652732Y-126869431D01*
X179446497Y-126773261D01*
X179446488Y-126773258D01*
X179226697Y-126714366D01*
X179226693Y-126714365D01*
X179226692Y-126714365D01*
X179226691Y-126714364D01*
X179226686Y-126714364D01*
X179000002Y-126694532D01*
X178999998Y-126694532D01*
X178773313Y-126714364D01*
X178773302Y-126714366D01*
X178553511Y-126773258D01*
X178553502Y-126773261D01*
X178347267Y-126869431D01*
X178347265Y-126869432D01*
X178160858Y-126999954D01*
X177999954Y-127160858D01*
X177869432Y-127347265D01*
X177869431Y-127347267D01*
X177773261Y-127553502D01*
X177773258Y-127553511D01*
X177714366Y-127773302D01*
X177714364Y-127773313D01*
X177694532Y-127999998D01*
X177694532Y-128000001D01*
X177714364Y-128226686D01*
X177714366Y-128226697D01*
X177773258Y-128446488D01*
X177773261Y-128446497D01*
X177869431Y-128652732D01*
X177869432Y-128652734D01*
X177999954Y-128839141D01*
X178160859Y-129000046D01*
X178196621Y-129025086D01*
X178240247Y-129079662D01*
X178249500Y-129126662D01*
X178249500Y-130126128D01*
X178229815Y-130193167D01*
X178184522Y-130235179D01*
X178176491Y-130239526D01*
X178045667Y-130341350D01*
X177980257Y-130392261D01*
X177811833Y-130575217D01*
X177675826Y-130783393D01*
X177575936Y-131011118D01*
X177514892Y-131252175D01*
X177514890Y-131252187D01*
X177494357Y-131499994D01*
X177494357Y-131500005D01*
X177514890Y-131747812D01*
X177514892Y-131747824D01*
X177575936Y-131988881D01*
X177675826Y-132216606D01*
X177811833Y-132424782D01*
X177825820Y-132439976D01*
X177980256Y-132607738D01*
X178176491Y-132760474D01*
X178184513Y-132764815D01*
X178234106Y-132814032D01*
X178249500Y-132873872D01*
X178249500Y-135888769D01*
X178229815Y-135955808D01*
X178177011Y-136001563D01*
X178107853Y-136011507D01*
X178044297Y-135982482D01*
X178037819Y-135976450D01*
X177478421Y-135417052D01*
X177478414Y-135417046D01*
X177404729Y-135367812D01*
X177404729Y-135367813D01*
X177355491Y-135334913D01*
X177218917Y-135278343D01*
X177218907Y-135278340D01*
X177073920Y-135249500D01*
X177073918Y-135249500D01*
X168926082Y-135249500D01*
X168926080Y-135249500D01*
X168781092Y-135278340D01*
X168781086Y-135278342D01*
X168644508Y-135334914D01*
X168644496Y-135334921D01*
X168595269Y-135367813D01*
X168521588Y-135417044D01*
X168521580Y-135417050D01*
X166042951Y-137895681D01*
X165981628Y-137929166D01*
X165955270Y-137932000D01*
X162490440Y-137932000D01*
X162423401Y-137912315D01*
X162377646Y-137859511D01*
X162367702Y-137790353D01*
X162376883Y-137758192D01*
X162378983Y-137753405D01*
X162438095Y-137519976D01*
X162457980Y-137280000D01*
X162452444Y-137213194D01*
X162440904Y-137073920D01*
X162438095Y-137040024D01*
X162378983Y-136806595D01*
X162282255Y-136586078D01*
X162150551Y-136384490D01*
X161987463Y-136207329D01*
X161924471Y-136158301D01*
X161859656Y-136107853D01*
X161818843Y-136051143D01*
X161815168Y-135981370D01*
X161849800Y-135920687D01*
X161859656Y-135912147D01*
X161889692Y-135888769D01*
X161987463Y-135812671D01*
X162150551Y-135635510D01*
X162282255Y-135433922D01*
X162378983Y-135213405D01*
X162438095Y-134979976D01*
X162452798Y-134802542D01*
X162457980Y-134740005D01*
X162457980Y-134739994D01*
X162438096Y-134500032D01*
X162438095Y-134500027D01*
X162438095Y-134500024D01*
X162427758Y-134459204D01*
X162430383Y-134389384D01*
X162460281Y-134341085D01*
X165301362Y-131500005D01*
X172994357Y-131500005D01*
X173014890Y-131747812D01*
X173014892Y-131747824D01*
X173075936Y-131988881D01*
X173175826Y-132216606D01*
X173311833Y-132424782D01*
X173325820Y-132439976D01*
X173480256Y-132607738D01*
X173676491Y-132760474D01*
X173895190Y-132878828D01*
X174130386Y-132959571D01*
X174375665Y-133000500D01*
X174624335Y-133000500D01*
X174869614Y-132959571D01*
X175104810Y-132878828D01*
X175323509Y-132760474D01*
X175519744Y-132607738D01*
X175688164Y-132424785D01*
X175824173Y-132216607D01*
X175924063Y-131988881D01*
X175985108Y-131747821D01*
X175986867Y-131726594D01*
X176005643Y-131500005D01*
X176005643Y-131499994D01*
X175985109Y-131252187D01*
X175985107Y-131252175D01*
X175924063Y-131011118D01*
X175824173Y-130783393D01*
X175688166Y-130575217D01*
X175666557Y-130551744D01*
X175519744Y-130392262D01*
X175323509Y-130239526D01*
X175323507Y-130239525D01*
X175323506Y-130239524D01*
X175104811Y-130121172D01*
X175104802Y-130121169D01*
X174869616Y-130040429D01*
X174624335Y-129999500D01*
X174375665Y-129999500D01*
X174130383Y-130040429D01*
X173895197Y-130121169D01*
X173895188Y-130121172D01*
X173676493Y-130239524D01*
X173480257Y-130392261D01*
X173311833Y-130575217D01*
X173175826Y-130783393D01*
X173075936Y-131011118D01*
X173014892Y-131252175D01*
X173014890Y-131252187D01*
X172994357Y-131499994D01*
X172994357Y-131500005D01*
X165301362Y-131500005D01*
X166582952Y-130218416D01*
X166647927Y-130121172D01*
X166665084Y-130095495D01*
X166721658Y-129958913D01*
X166750500Y-129813918D01*
X166750500Y-128000002D01*
X170075034Y-128000002D01*
X170094858Y-128226599D01*
X170094860Y-128226610D01*
X170153730Y-128446317D01*
X170153735Y-128446331D01*
X170249863Y-128652478D01*
X170300974Y-128725472D01*
X170980000Y-128046446D01*
X170980000Y-128052661D01*
X171007259Y-128154394D01*
X171059920Y-128245606D01*
X171134394Y-128320080D01*
X171225606Y-128372741D01*
X171327339Y-128400000D01*
X171333553Y-128400000D01*
X170654526Y-129079025D01*
X170727513Y-129130132D01*
X170727521Y-129130136D01*
X170933668Y-129226264D01*
X170933682Y-129226269D01*
X171153389Y-129285139D01*
X171153400Y-129285141D01*
X171379998Y-129304966D01*
X171380002Y-129304966D01*
X171606599Y-129285141D01*
X171606610Y-129285139D01*
X171826317Y-129226269D01*
X171826331Y-129226264D01*
X172032478Y-129130136D01*
X172105471Y-129079024D01*
X171426447Y-128400000D01*
X171432661Y-128400000D01*
X171534394Y-128372741D01*
X171625606Y-128320080D01*
X171700080Y-128245606D01*
X171752741Y-128154394D01*
X171780000Y-128052661D01*
X171780000Y-128046447D01*
X172459024Y-128725471D01*
X172510136Y-128652478D01*
X172606264Y-128446331D01*
X172606269Y-128446317D01*
X172665139Y-128226610D01*
X172665141Y-128226599D01*
X172684966Y-128000002D01*
X172684966Y-127999997D01*
X172665141Y-127773400D01*
X172665139Y-127773389D01*
X172606269Y-127553682D01*
X172606264Y-127553668D01*
X172510136Y-127347521D01*
X172510132Y-127347513D01*
X172459025Y-127274526D01*
X171780000Y-127953551D01*
X171780000Y-127947339D01*
X171752741Y-127845606D01*
X171700080Y-127754394D01*
X171625606Y-127679920D01*
X171534394Y-127627259D01*
X171432661Y-127600000D01*
X171426448Y-127600000D01*
X172105472Y-126920974D01*
X172032478Y-126869863D01*
X171826331Y-126773735D01*
X171826317Y-126773730D01*
X171606610Y-126714860D01*
X171606599Y-126714858D01*
X171380002Y-126695034D01*
X171379998Y-126695034D01*
X171153400Y-126714858D01*
X171153389Y-126714860D01*
X170933682Y-126773730D01*
X170933673Y-126773734D01*
X170727516Y-126869866D01*
X170727512Y-126869868D01*
X170654526Y-126920973D01*
X170654526Y-126920974D01*
X171333553Y-127600000D01*
X171327339Y-127600000D01*
X171225606Y-127627259D01*
X171134394Y-127679920D01*
X171059920Y-127754394D01*
X171007259Y-127845606D01*
X170980000Y-127947339D01*
X170980000Y-127953552D01*
X170300974Y-127274526D01*
X170300973Y-127274526D01*
X170249868Y-127347512D01*
X170249866Y-127347516D01*
X170153734Y-127553673D01*
X170153730Y-127553682D01*
X170094860Y-127773389D01*
X170094858Y-127773400D01*
X170075034Y-127999997D01*
X170075034Y-128000002D01*
X166750500Y-128000002D01*
X166750500Y-126362229D01*
X166770185Y-126295190D01*
X166786819Y-126274548D01*
X169274548Y-123786819D01*
X169335871Y-123753334D01*
X169362229Y-123750500D01*
X176353920Y-123750500D01*
X176451462Y-123731096D01*
X176498913Y-123721658D01*
X176635495Y-123665084D01*
X176719681Y-123608833D01*
X176758416Y-123582952D01*
X188998796Y-111342569D01*
X189060117Y-111309086D01*
X189129809Y-111314070D01*
X189142769Y-111319767D01*
X189206428Y-111352202D01*
X189214369Y-111356248D01*
X189388155Y-111412715D01*
X189440301Y-111420974D01*
X189568630Y-111441300D01*
X189568635Y-111441300D01*
X189751370Y-111441300D01*
X189846400Y-111426248D01*
X189931845Y-111412715D01*
X190087183Y-111362241D01*
X190157023Y-111360247D01*
X190216856Y-111396327D01*
X190247684Y-111459028D01*
X190249500Y-111480173D01*
X190249500Y-111873336D01*
X190229815Y-111940375D01*
X190196625Y-111974910D01*
X190160863Y-111999951D01*
X189999951Y-112160862D01*
X189869432Y-112347265D01*
X189869431Y-112347267D01*
X189773261Y-112553502D01*
X189773258Y-112553511D01*
X189714366Y-112773302D01*
X189714364Y-112773313D01*
X189694532Y-112999998D01*
X189694532Y-113000001D01*
X189714364Y-113226686D01*
X189714366Y-113226697D01*
X189773258Y-113446488D01*
X189773261Y-113446497D01*
X189869431Y-113652732D01*
X189869432Y-113652734D01*
X189999954Y-113839141D01*
X190160858Y-114000045D01*
X190160861Y-114000047D01*
X190347266Y-114130568D01*
X190553504Y-114226739D01*
X190553509Y-114226740D01*
X190553511Y-114226741D01*
X190606415Y-114240916D01*
X190773308Y-114285635D01*
X190931786Y-114299500D01*
X190999998Y-114305468D01*
X191000000Y-114305468D01*
X191000002Y-114305468D01*
X191068214Y-114299500D01*
X191226692Y-114285635D01*
X191446496Y-114226739D01*
X191652734Y-114130568D01*
X191839139Y-114000047D01*
X192000047Y-113839139D01*
X192130568Y-113652734D01*
X192226739Y-113446496D01*
X192254334Y-113343508D01*
X192290699Y-113283849D01*
X192353545Y-113253319D01*
X192422921Y-113261613D01*
X192475685Y-113304480D01*
X192499955Y-113339142D01*
X192660858Y-113500045D01*
X192660861Y-113500047D01*
X192847266Y-113630568D01*
X193053504Y-113726739D01*
X193273308Y-113785635D01*
X193417281Y-113798231D01*
X193499998Y-113805468D01*
X193500000Y-113805468D01*
X193500002Y-113805468D01*
X193556673Y-113800509D01*
X193726692Y-113785635D01*
X193946496Y-113726739D01*
X194152734Y-113630568D01*
X194339139Y-113500047D01*
X194500047Y-113339139D01*
X194630568Y-113152734D01*
X194637893Y-113137024D01*
X194684064Y-113084586D01*
X194751257Y-113065433D01*
X194818138Y-113085648D01*
X194862657Y-113137024D01*
X194869864Y-113152480D01*
X194920974Y-113225472D01*
X195600000Y-112546446D01*
X195600000Y-112552661D01*
X195627259Y-112654394D01*
X195679920Y-112745606D01*
X195754394Y-112820080D01*
X195845606Y-112872741D01*
X195947339Y-112900000D01*
X195953553Y-112900000D01*
X195274526Y-113579025D01*
X195347513Y-113630132D01*
X195347521Y-113630136D01*
X195553668Y-113726264D01*
X195553682Y-113726269D01*
X195773389Y-113785139D01*
X195773400Y-113785141D01*
X195999998Y-113804966D01*
X196000002Y-113804966D01*
X196226599Y-113785141D01*
X196226610Y-113785139D01*
X196446317Y-113726269D01*
X196446331Y-113726264D01*
X196652478Y-113630136D01*
X196725471Y-113579024D01*
X196046447Y-112900000D01*
X196052661Y-112900000D01*
X196154394Y-112872741D01*
X196245606Y-112820080D01*
X196320080Y-112745606D01*
X196372741Y-112654394D01*
X196400000Y-112552661D01*
X196400000Y-112546447D01*
X197079024Y-113225471D01*
X197130136Y-113152478D01*
X197226264Y-112946331D01*
X197226269Y-112946317D01*
X197285139Y-112726610D01*
X197285141Y-112726599D01*
X197304966Y-112500002D01*
X197304966Y-112499997D01*
X197285141Y-112273400D01*
X197285139Y-112273389D01*
X197226269Y-112053682D01*
X197226264Y-112053668D01*
X197130136Y-111847521D01*
X197130132Y-111847513D01*
X197079025Y-111774526D01*
X196400000Y-112453551D01*
X196400000Y-112447339D01*
X196372741Y-112345606D01*
X196320080Y-112254394D01*
X196245606Y-112179920D01*
X196154394Y-112127259D01*
X196052661Y-112100000D01*
X196046448Y-112100000D01*
X196725472Y-111420974D01*
X196652478Y-111369863D01*
X196446331Y-111273735D01*
X196446317Y-111273730D01*
X196226610Y-111214860D01*
X196226599Y-111214858D01*
X196000002Y-111195034D01*
X195999998Y-111195034D01*
X195773400Y-111214858D01*
X195773390Y-111214860D01*
X195767207Y-111216517D01*
X195697357Y-111214852D01*
X195639496Y-111175688D01*
X195611993Y-111111458D01*
X195623582Y-111042556D01*
X195634794Y-111023862D01*
X195732891Y-110888844D01*
X195815848Y-110726031D01*
X195872315Y-110552245D01*
X195887527Y-110456202D01*
X195900900Y-110371770D01*
X195900900Y-108868229D01*
X195872315Y-108687758D01*
X195872315Y-108687755D01*
X195815848Y-108513969D01*
X195732891Y-108351156D01*
X195625485Y-108203324D01*
X195496276Y-108074115D01*
X195348444Y-107966709D01*
X195185631Y-107883752D01*
X195011845Y-107827285D01*
X195011843Y-107827284D01*
X195011841Y-107827284D01*
X194831370Y-107798700D01*
X194831365Y-107798700D01*
X194648635Y-107798700D01*
X194648630Y-107798700D01*
X194468158Y-107827284D01*
X194294366Y-107883753D01*
X194131555Y-107966709D01*
X193983721Y-108074117D01*
X193854517Y-108203321D01*
X193747109Y-108351155D01*
X193664153Y-108513966D01*
X193607684Y-108687758D01*
X193592473Y-108783797D01*
X193562544Y-108846932D01*
X193503232Y-108883863D01*
X193433369Y-108882865D01*
X193375137Y-108844255D01*
X193347527Y-108783797D01*
X193332315Y-108687758D01*
X193332315Y-108687755D01*
X193275848Y-108513969D01*
X193192891Y-108351156D01*
X193085485Y-108203324D01*
X192956276Y-108074115D01*
X192808444Y-107966709D01*
X192645631Y-107883752D01*
X192471845Y-107827285D01*
X192471843Y-107827284D01*
X192471841Y-107827284D01*
X192291370Y-107798700D01*
X192291365Y-107798700D01*
X192108635Y-107798700D01*
X192108630Y-107798700D01*
X191928158Y-107827284D01*
X191754366Y-107883753D01*
X191591555Y-107966709D01*
X191443721Y-108074117D01*
X191314517Y-108203321D01*
X191207109Y-108351155D01*
X191124153Y-108513966D01*
X191067684Y-108687758D01*
X191052473Y-108783797D01*
X191022544Y-108846932D01*
X190963232Y-108883863D01*
X190893369Y-108882865D01*
X190835137Y-108844255D01*
X190807527Y-108783797D01*
X190792315Y-108687758D01*
X190792315Y-108687755D01*
X190735848Y-108513969D01*
X190652891Y-108351156D01*
X190545485Y-108203324D01*
X190416276Y-108074115D01*
X190268444Y-107966709D01*
X190105631Y-107883752D01*
X189931845Y-107827285D01*
X189931843Y-107827284D01*
X189931841Y-107827284D01*
X189751370Y-107798700D01*
X189751365Y-107798700D01*
X189568635Y-107798700D01*
X189568630Y-107798700D01*
X189388158Y-107827284D01*
X189214366Y-107883753D01*
X189051555Y-107966709D01*
X188903721Y-108074117D01*
X188774517Y-108203321D01*
X188667109Y-108351155D01*
X188584153Y-108513966D01*
X188527684Y-108687758D01*
X188512473Y-108783797D01*
X188482544Y-108846932D01*
X188423232Y-108883863D01*
X188353369Y-108882865D01*
X188295137Y-108844255D01*
X188267527Y-108783797D01*
X188252315Y-108687758D01*
X188252315Y-108687755D01*
X188195848Y-108513969D01*
X188112891Y-108351156D01*
X188005485Y-108203324D01*
X187876276Y-108074115D01*
X187728444Y-107966709D01*
X187565631Y-107883752D01*
X187411845Y-107833783D01*
X187354170Y-107794346D01*
X187326972Y-107729988D01*
X187338887Y-107661141D01*
X187362480Y-107628175D01*
X187544113Y-107446543D01*
X187554441Y-107431087D01*
X187620775Y-107331811D01*
X187673580Y-107204328D01*
X187682932Y-107157308D01*
X187715315Y-107095399D01*
X187716809Y-107093878D01*
X189073870Y-105736819D01*
X189135193Y-105703334D01*
X189161551Y-105700500D01*
X195068996Y-105700500D01*
X195160040Y-105682389D01*
X195204328Y-105673580D01*
X195274522Y-105644505D01*
X195331807Y-105620777D01*
X195331808Y-105620776D01*
X195331811Y-105620775D01*
X195446543Y-105544114D01*
X196744114Y-104246543D01*
X196820775Y-104131811D01*
X196873580Y-104004329D01*
X196889144Y-103926082D01*
X196900500Y-103868993D01*
X196900500Y-87453342D01*
X196893964Y-87420486D01*
X196893964Y-87420484D01*
X196872392Y-87312032D01*
X196874568Y-87311599D01*
X196874023Y-87251697D01*
X196911261Y-87192577D01*
X196974550Y-87162976D01*
X197014084Y-87163300D01*
X197141141Y-87184887D01*
X197141153Y-87184889D01*
X197500000Y-87205041D01*
X197858846Y-87184889D01*
X197858858Y-87184887D01*
X198213185Y-87124685D01*
X198213194Y-87124683D01*
X198558552Y-87025187D01*
X198890609Y-86887646D01*
X198890613Y-86887644D01*
X199205189Y-86713784D01*
X199205194Y-86713781D01*
X199498299Y-86505811D01*
X199498322Y-86505793D01*
X199579602Y-86433155D01*
X199579602Y-86433154D01*
X198261718Y-85115270D01*
X198379466Y-85029722D01*
X198529722Y-84879466D01*
X198615270Y-84761718D01*
X199933154Y-86079602D01*
G37*
G04 #@! TD.AperFunction*
G04 #@! TA.AperFunction,Conductor*
G36*
X199933154Y-138579602D02*
G01*
X199933155Y-138579602D01*
X200005793Y-138498322D01*
X200005811Y-138498299D01*
X200213781Y-138205194D01*
X200213784Y-138205189D01*
X200266972Y-138108953D01*
X200316629Y-138059800D01*
X200384976Y-138045297D01*
X200450315Y-138070047D01*
X200491901Y-138126193D01*
X200499500Y-138168934D01*
X200499500Y-139375500D01*
X200479815Y-139442539D01*
X200427011Y-139488294D01*
X200375500Y-139499500D01*
X199168935Y-139499500D01*
X199101896Y-139479815D01*
X199056141Y-139427011D01*
X199046197Y-139357853D01*
X199075222Y-139294297D01*
X199108954Y-139266972D01*
X199205189Y-139213784D01*
X199205194Y-139213781D01*
X199498299Y-139005811D01*
X199498322Y-139005793D01*
X199579602Y-138933155D01*
X199579602Y-138933154D01*
X198261718Y-137615270D01*
X198379466Y-137529722D01*
X198529722Y-137379466D01*
X198615270Y-137261718D01*
X199933154Y-138579602D01*
G37*
G04 #@! TD.AperFunction*
G04 #@! TA.AperFunction,Conductor*
G36*
X131600000Y-112552661D02*
G01*
X131627259Y-112654394D01*
X131679920Y-112745606D01*
X131754394Y-112820080D01*
X131845606Y-112872741D01*
X131947339Y-112900000D01*
X131953551Y-112900000D01*
X131274526Y-113579025D01*
X131347513Y-113630132D01*
X131347521Y-113630136D01*
X131553668Y-113726264D01*
X131553682Y-113726269D01*
X131773389Y-113785139D01*
X131773399Y-113785141D01*
X131923027Y-113798231D01*
X131988095Y-113823683D01*
X132029074Y-113880273D01*
X132032953Y-113950035D01*
X131999902Y-114009440D01*
X131935418Y-114073925D01*
X131746160Y-114263182D01*
X131684840Y-114296666D01*
X131658481Y-114299500D01*
X127804752Y-114299500D01*
X127737713Y-114279815D01*
X127691958Y-114227011D01*
X127682014Y-114157853D01*
X127711039Y-114094297D01*
X127733629Y-114073925D01*
X127839139Y-114000047D01*
X128000047Y-113839139D01*
X128130568Y-113652734D01*
X128226739Y-113446496D01*
X128254334Y-113343508D01*
X128290699Y-113283849D01*
X128353545Y-113253319D01*
X128422921Y-113261613D01*
X128475685Y-113304480D01*
X128499955Y-113339142D01*
X128660858Y-113500045D01*
X128660861Y-113500047D01*
X128847266Y-113630568D01*
X129053504Y-113726739D01*
X129273308Y-113785635D01*
X129417281Y-113798231D01*
X129499998Y-113805468D01*
X129500000Y-113805468D01*
X129500002Y-113805468D01*
X129556673Y-113800509D01*
X129726692Y-113785635D01*
X129946496Y-113726739D01*
X130152734Y-113630568D01*
X130339139Y-113500047D01*
X130500047Y-113339139D01*
X130630568Y-113152734D01*
X130637893Y-113137024D01*
X130684064Y-113084586D01*
X130751257Y-113065433D01*
X130818138Y-113085648D01*
X130862657Y-113137024D01*
X130869864Y-113152480D01*
X130920974Y-113225472D01*
X131600000Y-112546446D01*
X131600000Y-112552661D01*
G37*
G04 #@! TD.AperFunction*
G04 #@! TA.AperFunction,Conductor*
G36*
X152850000Y-112552661D02*
G01*
X152877259Y-112654394D01*
X152929920Y-112745606D01*
X153004394Y-112820080D01*
X153095606Y-112872741D01*
X153197339Y-112900000D01*
X153203551Y-112900000D01*
X152524526Y-113579025D01*
X152597513Y-113630132D01*
X152597521Y-113630136D01*
X152803668Y-113726264D01*
X152803682Y-113726269D01*
X153023389Y-113785139D01*
X153023400Y-113785141D01*
X153249998Y-113804966D01*
X153250002Y-113804966D01*
X153476599Y-113785141D01*
X153476610Y-113785139D01*
X153696317Y-113726269D01*
X153696326Y-113726265D01*
X153902482Y-113630134D01*
X154088825Y-113499653D01*
X154092966Y-113496180D01*
X154093926Y-113497324D01*
X154149142Y-113467174D01*
X154218834Y-113472158D01*
X154274767Y-113514030D01*
X154299184Y-113579494D01*
X154299500Y-113588340D01*
X154299500Y-113658481D01*
X154279815Y-113725520D01*
X154263181Y-113746162D01*
X153746162Y-114263181D01*
X153684839Y-114296666D01*
X153658481Y-114299500D01*
X149054752Y-114299500D01*
X148987713Y-114279815D01*
X148941958Y-114227011D01*
X148932014Y-114157853D01*
X148961039Y-114094297D01*
X148983629Y-114073925D01*
X149089139Y-114000047D01*
X149250047Y-113839139D01*
X149380568Y-113652734D01*
X149476739Y-113446496D01*
X149504334Y-113343508D01*
X149540699Y-113283849D01*
X149603545Y-113253319D01*
X149672921Y-113261613D01*
X149725685Y-113304480D01*
X149749955Y-113339142D01*
X149910858Y-113500045D01*
X149910861Y-113500047D01*
X150097266Y-113630568D01*
X150303504Y-113726739D01*
X150523308Y-113785635D01*
X150667281Y-113798231D01*
X150749998Y-113805468D01*
X150750000Y-113805468D01*
X150750002Y-113805468D01*
X150806673Y-113800509D01*
X150976692Y-113785635D01*
X151196496Y-113726739D01*
X151402734Y-113630568D01*
X151589139Y-113500047D01*
X151750047Y-113339139D01*
X151880568Y-113152734D01*
X151887893Y-113137024D01*
X151934064Y-113084586D01*
X152001257Y-113065433D01*
X152068138Y-113085648D01*
X152112657Y-113137024D01*
X152119864Y-113152480D01*
X152170974Y-113225472D01*
X152850000Y-112546446D01*
X152850000Y-112552661D01*
G37*
G04 #@! TD.AperFunction*
G04 #@! TA.AperFunction,Conductor*
G36*
X174600000Y-112552661D02*
G01*
X174627259Y-112654394D01*
X174679920Y-112745606D01*
X174754394Y-112820080D01*
X174845606Y-112872741D01*
X174947339Y-112900000D01*
X174953553Y-112900000D01*
X174274526Y-113579025D01*
X174347513Y-113630132D01*
X174352207Y-113632842D01*
X174350933Y-113635046D01*
X174395374Y-113674072D01*
X174414613Y-113741241D01*
X174394485Y-113808148D01*
X174378297Y-113828100D01*
X173993218Y-114213181D01*
X173931895Y-114246666D01*
X173905537Y-114249500D01*
X170876161Y-114249500D01*
X170809122Y-114229815D01*
X170763367Y-114177011D01*
X170753423Y-114107853D01*
X170782448Y-114044297D01*
X170805038Y-114023925D01*
X170825724Y-114009440D01*
X170839139Y-114000047D01*
X171000047Y-113839139D01*
X171130568Y-113652734D01*
X171226739Y-113446496D01*
X171254334Y-113343508D01*
X171290699Y-113283849D01*
X171353545Y-113253319D01*
X171422921Y-113261613D01*
X171475685Y-113304480D01*
X171499955Y-113339142D01*
X171660858Y-113500045D01*
X171660861Y-113500047D01*
X171847266Y-113630568D01*
X172053504Y-113726739D01*
X172273308Y-113785635D01*
X172417281Y-113798231D01*
X172499998Y-113805468D01*
X172500000Y-113805468D01*
X172500002Y-113805468D01*
X172556673Y-113800509D01*
X172726692Y-113785635D01*
X172946496Y-113726739D01*
X173152734Y-113630568D01*
X173339139Y-113500047D01*
X173500047Y-113339139D01*
X173630568Y-113152734D01*
X173637893Y-113137024D01*
X173684064Y-113084586D01*
X173751257Y-113065433D01*
X173818138Y-113085648D01*
X173862657Y-113137024D01*
X173869864Y-113152480D01*
X173920974Y-113225472D01*
X174600000Y-112546446D01*
X174600000Y-112552661D01*
G37*
G04 #@! TD.AperFunction*
G04 #@! TA.AperFunction,Conductor*
G36*
X131659217Y-110589280D02*
G01*
X131692187Y-110612876D01*
X132064241Y-110984930D01*
X132097726Y-111046253D01*
X132092742Y-111115945D01*
X132050870Y-111171878D01*
X131987367Y-111196139D01*
X131773400Y-111214858D01*
X131773389Y-111214860D01*
X131553682Y-111273730D01*
X131553673Y-111273734D01*
X131347516Y-111369866D01*
X131347512Y-111369868D01*
X131274526Y-111420973D01*
X131274526Y-111420974D01*
X131953553Y-112100000D01*
X131947339Y-112100000D01*
X131845606Y-112127259D01*
X131754394Y-112179920D01*
X131679920Y-112254394D01*
X131627259Y-112345606D01*
X131600000Y-112447339D01*
X131600000Y-112453552D01*
X130920974Y-111774526D01*
X130920973Y-111774526D01*
X130869868Y-111847512D01*
X130869867Y-111847514D01*
X130862656Y-111862979D01*
X130816482Y-111915417D01*
X130749288Y-111934567D01*
X130682407Y-111914350D01*
X130637893Y-111862976D01*
X130630568Y-111847266D01*
X130523724Y-111694675D01*
X130500045Y-111660858D01*
X130480037Y-111640850D01*
X130446552Y-111579527D01*
X130451536Y-111509835D01*
X130493408Y-111453902D01*
X130548320Y-111430696D01*
X130609699Y-111420974D01*
X130661845Y-111412715D01*
X130835631Y-111356248D01*
X130998444Y-111273291D01*
X131146276Y-111165885D01*
X131275485Y-111036676D01*
X131382891Y-110888844D01*
X131465848Y-110726031D01*
X131486575Y-110662237D01*
X131526013Y-110604563D01*
X131590371Y-110577365D01*
X131659217Y-110589280D01*
G37*
G04 #@! TD.AperFunction*
G04 #@! TA.AperFunction,Conductor*
G36*
X152460180Y-111322643D02*
G01*
X152508877Y-111372748D01*
X152517156Y-111413604D01*
X153203553Y-112100000D01*
X153197339Y-112100000D01*
X153095606Y-112127259D01*
X153004394Y-112179920D01*
X152929920Y-112254394D01*
X152877259Y-112345606D01*
X152850000Y-112447339D01*
X152850000Y-112453552D01*
X152170974Y-111774526D01*
X152170973Y-111774526D01*
X152119868Y-111847512D01*
X152119867Y-111847514D01*
X152112656Y-111862979D01*
X152066482Y-111915417D01*
X151999288Y-111934567D01*
X151932407Y-111914350D01*
X151887893Y-111862976D01*
X151880568Y-111847266D01*
X151773722Y-111694673D01*
X151751396Y-111628469D01*
X151768406Y-111560702D01*
X151819354Y-111512889D01*
X151855900Y-111501079D01*
X151889621Y-111495737D01*
X151971845Y-111482715D01*
X152145631Y-111426248D01*
X152308444Y-111343291D01*
X152326323Y-111330300D01*
X152392126Y-111306820D01*
X152460180Y-111322643D01*
G37*
G04 #@! TD.AperFunction*
G04 #@! TA.AperFunction,Conductor*
G36*
X175817388Y-108420185D02*
G01*
X175863143Y-108472989D01*
X175873087Y-108542147D01*
X175868280Y-108562816D01*
X175860500Y-108586761D01*
X175827684Y-108687758D01*
X175799100Y-108868229D01*
X175799100Y-110371770D01*
X175823560Y-110526202D01*
X175827685Y-110552245D01*
X175884152Y-110726031D01*
X175967109Y-110888844D01*
X176074515Y-111036676D01*
X176074517Y-111036678D01*
X176173181Y-111135342D01*
X176206666Y-111196665D01*
X176209500Y-111223023D01*
X176209500Y-111650620D01*
X176189815Y-111717659D01*
X176137011Y-111763414D01*
X176080384Y-111773167D01*
X175400000Y-112453552D01*
X175400000Y-112447339D01*
X175372741Y-112345606D01*
X175320080Y-112254394D01*
X175245606Y-112179920D01*
X175154394Y-112127259D01*
X175052661Y-112100000D01*
X175046448Y-112100000D01*
X175725472Y-111420974D01*
X175652478Y-111369863D01*
X175446331Y-111273735D01*
X175446317Y-111273730D01*
X175226610Y-111214860D01*
X175226599Y-111214858D01*
X175000002Y-111195034D01*
X174999998Y-111195034D01*
X174773400Y-111214858D01*
X174773389Y-111214860D01*
X174553682Y-111273730D01*
X174553673Y-111273734D01*
X174347516Y-111369866D01*
X174347512Y-111369868D01*
X174274526Y-111420973D01*
X174274526Y-111420974D01*
X174953553Y-112100000D01*
X174947339Y-112100000D01*
X174845606Y-112127259D01*
X174754394Y-112179920D01*
X174679920Y-112254394D01*
X174627259Y-112345606D01*
X174600000Y-112447339D01*
X174600000Y-112453552D01*
X173920974Y-111774526D01*
X173920973Y-111774526D01*
X173869868Y-111847512D01*
X173869867Y-111847514D01*
X173862656Y-111862979D01*
X173816482Y-111915417D01*
X173749288Y-111934567D01*
X173682407Y-111914350D01*
X173637893Y-111862976D01*
X173630568Y-111847266D01*
X173539817Y-111717659D01*
X173500043Y-111660855D01*
X173496566Y-111656711D01*
X173497931Y-111655565D01*
X173468271Y-111601246D01*
X173473255Y-111531554D01*
X173515127Y-111475621D01*
X173551115Y-111456958D01*
X173645631Y-111426248D01*
X173808444Y-111343291D01*
X173956276Y-111235885D01*
X174085485Y-111106676D01*
X174192891Y-110958844D01*
X174275848Y-110796031D01*
X174332315Y-110622245D01*
X174347527Y-110526202D01*
X174360900Y-110441770D01*
X174360900Y-108938229D01*
X174341843Y-108817915D01*
X174332315Y-108757755D01*
X174275848Y-108583969D01*
X174275845Y-108583963D01*
X174274231Y-108580794D01*
X174261335Y-108512125D01*
X174287612Y-108447384D01*
X174344719Y-108407128D01*
X174384716Y-108400500D01*
X175750349Y-108400500D01*
X175817388Y-108420185D01*
G37*
G04 #@! TD.AperFunction*
G04 #@! TA.AperFunction,Conductor*
G36*
X195257603Y-111404051D02*
G01*
X195953553Y-112100000D01*
X195947339Y-112100000D01*
X195845606Y-112127259D01*
X195754394Y-112179920D01*
X195679920Y-112254394D01*
X195627259Y-112345606D01*
X195600000Y-112447339D01*
X195600000Y-112453552D01*
X194920974Y-111774526D01*
X194920973Y-111774526D01*
X194869868Y-111847512D01*
X194869867Y-111847514D01*
X194862656Y-111862979D01*
X194816482Y-111915417D01*
X194749288Y-111934567D01*
X194682407Y-111914350D01*
X194637893Y-111862976D01*
X194630568Y-111847266D01*
X194523724Y-111694675D01*
X194500045Y-111660858D01*
X194481060Y-111641873D01*
X194447575Y-111580550D01*
X194452559Y-111510858D01*
X194494431Y-111454925D01*
X194559895Y-111430508D01*
X194588139Y-111431719D01*
X194648630Y-111441300D01*
X194648635Y-111441300D01*
X194831370Y-111441300D01*
X195011839Y-111412716D01*
X195011839Y-111412715D01*
X195011845Y-111412715D01*
X195131609Y-111373800D01*
X195201444Y-111371805D01*
X195257603Y-111404051D01*
G37*
G04 #@! TD.AperFunction*
G04 #@! TA.AperFunction,Conductor*
G36*
X153260354Y-99714332D02*
G01*
X153295769Y-99774562D01*
X153299500Y-99804752D01*
X153299500Y-111075086D01*
X153297173Y-111075086D01*
X153286063Y-111133582D01*
X153237985Y-111184279D01*
X153186501Y-111200589D01*
X153023400Y-111214858D01*
X153023389Y-111214860D01*
X152803682Y-111273730D01*
X152803668Y-111273735D01*
X152719171Y-111313137D01*
X152650094Y-111323629D01*
X152586310Y-111295109D01*
X152548071Y-111236632D01*
X152547517Y-111166765D01*
X152579087Y-111113073D01*
X152585485Y-111106676D01*
X152692891Y-110958844D01*
X152775848Y-110796031D01*
X152832315Y-110622245D01*
X152847527Y-110526202D01*
X152860900Y-110441770D01*
X152860900Y-108938229D01*
X152841843Y-108817915D01*
X152832315Y-108757755D01*
X152775848Y-108583969D01*
X152692891Y-108421156D01*
X152585485Y-108273324D01*
X152456276Y-108144115D01*
X152308444Y-108036709D01*
X152145631Y-107953752D01*
X151971845Y-107897285D01*
X151971843Y-107897284D01*
X151971841Y-107897284D01*
X151791370Y-107868700D01*
X151791365Y-107868700D01*
X151608635Y-107868700D01*
X151608630Y-107868700D01*
X151428158Y-107897284D01*
X151254366Y-107953753D01*
X151091555Y-108036709D01*
X150943721Y-108144117D01*
X150814517Y-108273321D01*
X150707109Y-108421155D01*
X150624153Y-108583966D01*
X150567684Y-108757758D01*
X150552473Y-108853797D01*
X150522544Y-108916932D01*
X150463232Y-108953863D01*
X150393369Y-108952865D01*
X150335137Y-108914255D01*
X150307527Y-108853797D01*
X150299293Y-108801812D01*
X150292315Y-108757755D01*
X150235848Y-108583969D01*
X150152891Y-108421156D01*
X150045485Y-108273324D01*
X149916276Y-108144115D01*
X149768444Y-108036709D01*
X149605631Y-107953752D01*
X149431845Y-107897285D01*
X149431843Y-107897284D01*
X149431841Y-107897284D01*
X149251370Y-107868700D01*
X149251365Y-107868700D01*
X149068635Y-107868700D01*
X149068630Y-107868700D01*
X148888158Y-107897284D01*
X148714366Y-107953753D01*
X148551555Y-108036709D01*
X148403721Y-108144117D01*
X148274517Y-108273321D01*
X148167109Y-108421155D01*
X148084153Y-108583966D01*
X148027684Y-108757758D01*
X148012473Y-108853797D01*
X147982544Y-108916932D01*
X147923232Y-108953863D01*
X147853369Y-108952865D01*
X147795137Y-108914255D01*
X147767527Y-108853797D01*
X147759293Y-108801812D01*
X147752315Y-108757755D01*
X147695848Y-108583969D01*
X147612891Y-108421156D01*
X147505485Y-108273324D01*
X147376276Y-108144115D01*
X147228444Y-108036709D01*
X147065635Y-107953753D01*
X147019118Y-107938639D01*
X146969756Y-107908389D01*
X143753307Y-104691939D01*
X143730652Y-104655866D01*
X143728812Y-104656753D01*
X143725792Y-104650483D01*
X143629815Y-104497737D01*
X143502262Y-104370184D01*
X143349523Y-104274211D01*
X143179254Y-104214631D01*
X143179249Y-104214630D01*
X143000004Y-104194435D01*
X142999996Y-104194435D01*
X142820750Y-104214630D01*
X142820745Y-104214631D01*
X142650476Y-104274211D01*
X142497737Y-104370184D01*
X142370184Y-104497737D01*
X142274211Y-104650476D01*
X142214631Y-104820745D01*
X142214630Y-104820750D01*
X142194435Y-104999996D01*
X142194435Y-105000003D01*
X142214630Y-105179249D01*
X142214631Y-105179254D01*
X142274211Y-105349523D01*
X142355204Y-105478421D01*
X142370184Y-105502262D01*
X142497738Y-105629816D01*
X142650478Y-105725789D01*
X142650483Y-105725792D01*
X142656753Y-105728812D01*
X142655864Y-105730656D01*
X142691937Y-105753305D01*
X144142959Y-107204326D01*
X144719786Y-107781153D01*
X144753271Y-107842476D01*
X144748287Y-107912168D01*
X144706415Y-107968101D01*
X144640951Y-107992518D01*
X144575811Y-107979319D01*
X144525636Y-107953754D01*
X144525633Y-107953753D01*
X144525631Y-107953752D01*
X144351845Y-107897285D01*
X144351843Y-107897284D01*
X144351841Y-107897284D01*
X144171370Y-107868700D01*
X144171365Y-107868700D01*
X143988635Y-107868700D01*
X143988630Y-107868700D01*
X143808158Y-107897284D01*
X143634371Y-107953751D01*
X143634361Y-107953755D01*
X143562771Y-107990232D01*
X143494102Y-108003128D01*
X143429361Y-107976851D01*
X143418796Y-107967428D01*
X140868421Y-105417052D01*
X140868414Y-105417046D01*
X140784663Y-105361086D01*
X140784663Y-105361087D01*
X140745495Y-105334916D01*
X140745492Y-105334914D01*
X140745491Y-105334914D01*
X140608917Y-105278343D01*
X140608907Y-105278340D01*
X140463920Y-105249500D01*
X140463918Y-105249500D01*
X135299972Y-105249500D01*
X135259017Y-105242542D01*
X135179254Y-105214631D01*
X135179249Y-105214630D01*
X135000004Y-105194435D01*
X134999996Y-105194435D01*
X134820750Y-105214630D01*
X134820745Y-105214631D01*
X134650476Y-105274211D01*
X134497737Y-105370184D01*
X134370184Y-105497737D01*
X134274211Y-105650476D01*
X134214631Y-105820745D01*
X134214630Y-105820750D01*
X134194435Y-105999996D01*
X134194435Y-106000003D01*
X134214630Y-106179249D01*
X134214631Y-106179254D01*
X134274211Y-106349523D01*
X134289270Y-106373489D01*
X134370184Y-106502262D01*
X134497738Y-106629816D01*
X134550109Y-106662723D01*
X134648639Y-106724634D01*
X134650478Y-106725789D01*
X134820745Y-106785368D01*
X134820750Y-106785369D01*
X134999996Y-106805565D01*
X135000000Y-106805565D01*
X135000004Y-106805565D01*
X135179249Y-106785369D01*
X135179252Y-106785368D01*
X135179255Y-106785368D01*
X135259017Y-106757457D01*
X135299972Y-106750500D01*
X140027770Y-106750500D01*
X140094809Y-106770185D01*
X140115451Y-106786819D01*
X141098238Y-107769606D01*
X141131723Y-107830929D01*
X141126739Y-107900621D01*
X141084867Y-107956554D01*
X141066852Y-107967772D01*
X140931555Y-108036709D01*
X140783721Y-108144117D01*
X140654517Y-108273321D01*
X140547109Y-108421155D01*
X140464153Y-108583966D01*
X140407684Y-108757758D01*
X140392473Y-108853797D01*
X140362544Y-108916932D01*
X140303232Y-108953863D01*
X140233369Y-108952865D01*
X140175137Y-108914255D01*
X140147527Y-108853797D01*
X140139293Y-108801812D01*
X140132315Y-108757755D01*
X140075848Y-108583969D01*
X139992891Y-108421156D01*
X139885485Y-108273324D01*
X139756276Y-108144115D01*
X139608444Y-108036709D01*
X139445631Y-107953752D01*
X139271845Y-107897285D01*
X139271843Y-107897284D01*
X139271841Y-107897284D01*
X139091370Y-107868700D01*
X139091365Y-107868700D01*
X138908635Y-107868700D01*
X138908630Y-107868700D01*
X138728158Y-107897284D01*
X138554366Y-107953753D01*
X138391555Y-108036709D01*
X138243721Y-108144117D01*
X138114517Y-108273321D01*
X138007109Y-108421155D01*
X137924153Y-108583966D01*
X137867684Y-108757758D01*
X137852473Y-108853797D01*
X137822544Y-108916932D01*
X137763232Y-108953863D01*
X137693369Y-108952865D01*
X137635137Y-108914255D01*
X137607527Y-108853797D01*
X137599293Y-108801812D01*
X137592315Y-108757755D01*
X137535848Y-108583969D01*
X137452891Y-108421156D01*
X137345485Y-108273324D01*
X137216276Y-108144115D01*
X137068444Y-108036709D01*
X136905631Y-107953752D01*
X136731845Y-107897285D01*
X136731843Y-107897284D01*
X136731841Y-107897284D01*
X136551370Y-107868700D01*
X136551365Y-107868700D01*
X136368635Y-107868700D01*
X136368630Y-107868700D01*
X136188158Y-107897284D01*
X136014366Y-107953753D01*
X135851555Y-108036709D01*
X135703721Y-108144117D01*
X135574517Y-108273321D01*
X135467109Y-108421155D01*
X135384153Y-108583966D01*
X135327684Y-108757758D01*
X135312473Y-108853797D01*
X135282544Y-108916932D01*
X135223232Y-108953863D01*
X135153369Y-108952865D01*
X135095137Y-108914255D01*
X135067527Y-108853797D01*
X135059293Y-108801812D01*
X135052315Y-108757755D01*
X134995848Y-108583969D01*
X134912891Y-108421156D01*
X134805485Y-108273324D01*
X134676276Y-108144115D01*
X134528444Y-108036709D01*
X134365631Y-107953752D01*
X134191845Y-107897285D01*
X134191843Y-107897284D01*
X134191841Y-107897284D01*
X134011370Y-107868700D01*
X134011365Y-107868700D01*
X133828635Y-107868700D01*
X133828630Y-107868700D01*
X133648158Y-107897284D01*
X133474366Y-107953753D01*
X133311555Y-108036709D01*
X133163721Y-108144117D01*
X133034517Y-108273321D01*
X133034517Y-108273322D01*
X133034515Y-108273324D01*
X132977970Y-108351152D01*
X132924818Y-108424309D01*
X132869488Y-108466974D01*
X132799874Y-108472953D01*
X132738079Y-108440347D01*
X132703722Y-108379508D01*
X132700500Y-108351423D01*
X132700500Y-103407725D01*
X132720185Y-103340686D01*
X132772989Y-103294931D01*
X132842147Y-103284987D01*
X132905703Y-103314012D01*
X132924818Y-103334839D01*
X133034899Y-103486352D01*
X133164047Y-103615500D01*
X133311817Y-103722862D01*
X133474558Y-103805783D01*
X133648271Y-103862227D01*
X133669999Y-103865668D01*
X133670000Y-103865667D01*
X133670000Y-102394737D01*
X133670464Y-102395201D01*
X133763135Y-102448705D01*
X133866496Y-102476400D01*
X133973504Y-102476400D01*
X134076865Y-102448705D01*
X134169536Y-102395201D01*
X134170000Y-102394737D01*
X134170000Y-103865668D01*
X134191728Y-103862227D01*
X134365441Y-103805783D01*
X134528182Y-103722862D01*
X134675951Y-103615500D01*
X134675952Y-103615500D01*
X134805100Y-103486352D01*
X134805100Y-103486351D01*
X134912462Y-103338582D01*
X134995383Y-103175843D01*
X135051827Y-103002128D01*
X135051827Y-103002127D01*
X135067273Y-102904605D01*
X135097202Y-102841470D01*
X135156513Y-102804538D01*
X135226376Y-102805536D01*
X135284609Y-102844145D01*
X135312219Y-102904603D01*
X135327684Y-103002242D01*
X135327685Y-103002245D01*
X135384152Y-103176031D01*
X135467109Y-103338844D01*
X135574515Y-103486676D01*
X135703724Y-103615885D01*
X135851556Y-103723291D01*
X136014369Y-103806248D01*
X136188155Y-103862715D01*
X136255835Y-103873434D01*
X136368630Y-103891300D01*
X136368635Y-103891300D01*
X136551370Y-103891300D01*
X136651631Y-103875419D01*
X136731845Y-103862715D01*
X136905631Y-103806248D01*
X137068444Y-103723291D01*
X137216276Y-103615885D01*
X137345485Y-103486676D01*
X137452891Y-103338844D01*
X137535848Y-103176031D01*
X137592315Y-103002245D01*
X137603402Y-102932242D01*
X137607527Y-102906202D01*
X137637456Y-102843067D01*
X137696768Y-102806136D01*
X137766630Y-102807134D01*
X137824863Y-102845744D01*
X137852473Y-102906202D01*
X137867684Y-103002241D01*
X137867684Y-103002243D01*
X137867685Y-103002245D01*
X137924152Y-103176031D01*
X138007109Y-103338844D01*
X138114515Y-103486676D01*
X138243724Y-103615885D01*
X138391556Y-103723291D01*
X138554369Y-103806248D01*
X138728155Y-103862715D01*
X138795835Y-103873434D01*
X138908630Y-103891300D01*
X138908635Y-103891300D01*
X139091370Y-103891300D01*
X139191631Y-103875419D01*
X139271845Y-103862715D01*
X139445631Y-103806248D01*
X139608444Y-103723291D01*
X139756276Y-103615885D01*
X139885485Y-103486676D01*
X139992891Y-103338844D01*
X140075848Y-103176031D01*
X140132315Y-103002245D01*
X140143402Y-102932242D01*
X140147527Y-102906202D01*
X140177456Y-102843067D01*
X140236768Y-102806136D01*
X140306630Y-102807134D01*
X140364863Y-102845744D01*
X140392473Y-102906202D01*
X140407684Y-103002241D01*
X140407684Y-103002243D01*
X140407685Y-103002245D01*
X140464152Y-103176031D01*
X140547109Y-103338844D01*
X140654515Y-103486676D01*
X140783724Y-103615885D01*
X140931556Y-103723291D01*
X141094369Y-103806248D01*
X141268155Y-103862715D01*
X141335835Y-103873434D01*
X141448630Y-103891300D01*
X141448635Y-103891300D01*
X141631370Y-103891300D01*
X141731631Y-103875419D01*
X141811845Y-103862715D01*
X141985631Y-103806248D01*
X142148444Y-103723291D01*
X142296276Y-103615885D01*
X142425485Y-103486676D01*
X142532891Y-103338844D01*
X142615848Y-103176031D01*
X142672315Y-103002245D01*
X142683402Y-102932242D01*
X142687527Y-102906202D01*
X142717456Y-102843067D01*
X142776768Y-102806136D01*
X142846630Y-102807134D01*
X142904863Y-102845744D01*
X142932473Y-102906202D01*
X142947684Y-103002241D01*
X142947684Y-103002243D01*
X142947685Y-103002245D01*
X143004152Y-103176031D01*
X143087109Y-103338844D01*
X143194515Y-103486676D01*
X143323724Y-103615885D01*
X143471556Y-103723291D01*
X143634369Y-103806248D01*
X143808155Y-103862715D01*
X143875835Y-103873434D01*
X143988630Y-103891300D01*
X143988635Y-103891300D01*
X144171370Y-103891300D01*
X144271631Y-103875419D01*
X144351845Y-103862715D01*
X144525631Y-103806248D01*
X144688444Y-103723291D01*
X144836276Y-103615885D01*
X144965485Y-103486676D01*
X145072891Y-103338844D01*
X145155848Y-103176031D01*
X145212315Y-103002245D01*
X145223402Y-102932242D01*
X145227527Y-102906202D01*
X145257456Y-102843067D01*
X145316768Y-102806136D01*
X145386630Y-102807134D01*
X145444863Y-102845744D01*
X145472473Y-102906202D01*
X145487684Y-103002241D01*
X145487684Y-103002243D01*
X145487685Y-103002245D01*
X145544152Y-103176031D01*
X145627109Y-103338844D01*
X145734515Y-103486676D01*
X145863724Y-103615885D01*
X146011556Y-103723291D01*
X146174369Y-103806248D01*
X146348155Y-103862715D01*
X146415835Y-103873434D01*
X146528630Y-103891300D01*
X146528635Y-103891300D01*
X146711370Y-103891300D01*
X146811631Y-103875419D01*
X146891845Y-103862715D01*
X147065631Y-103806248D01*
X147228444Y-103723291D01*
X147376276Y-103615885D01*
X147505485Y-103486676D01*
X147612891Y-103338844D01*
X147695848Y-103176031D01*
X147752315Y-103002245D01*
X147763402Y-102932242D01*
X147767527Y-102906202D01*
X147797456Y-102843067D01*
X147856768Y-102806136D01*
X147926630Y-102807134D01*
X147984863Y-102845744D01*
X148012473Y-102906202D01*
X148027684Y-103002241D01*
X148027684Y-103002243D01*
X148027685Y-103002245D01*
X148084152Y-103176031D01*
X148167109Y-103338844D01*
X148274515Y-103486676D01*
X148403724Y-103615885D01*
X148551556Y-103723291D01*
X148714369Y-103806248D01*
X148888155Y-103862715D01*
X148955835Y-103873434D01*
X149068630Y-103891300D01*
X149068635Y-103891300D01*
X149251370Y-103891300D01*
X149351631Y-103875419D01*
X149431845Y-103862715D01*
X149605631Y-103806248D01*
X149768444Y-103723291D01*
X149916276Y-103615885D01*
X150045485Y-103486676D01*
X150152891Y-103338844D01*
X150235848Y-103176031D01*
X150292315Y-103002245D01*
X150303402Y-102932242D01*
X150307527Y-102906202D01*
X150337456Y-102843067D01*
X150396768Y-102806136D01*
X150466630Y-102807134D01*
X150524863Y-102845744D01*
X150552473Y-102906202D01*
X150567684Y-103002241D01*
X150567684Y-103002243D01*
X150567685Y-103002245D01*
X150624152Y-103176031D01*
X150707109Y-103338844D01*
X150814515Y-103486676D01*
X150943724Y-103615885D01*
X151091556Y-103723291D01*
X151254369Y-103806248D01*
X151428155Y-103862715D01*
X151495835Y-103873434D01*
X151608630Y-103891300D01*
X151608635Y-103891300D01*
X151791370Y-103891300D01*
X151891631Y-103875419D01*
X151971845Y-103862715D01*
X152145631Y-103806248D01*
X152308444Y-103723291D01*
X152456276Y-103615885D01*
X152585485Y-103486676D01*
X152692891Y-103338844D01*
X152775848Y-103176031D01*
X152832315Y-103002245D01*
X152855403Y-102856473D01*
X152860900Y-102821770D01*
X152860900Y-101318229D01*
X152841843Y-101197915D01*
X152832315Y-101137755D01*
X152775848Y-100963969D01*
X152692891Y-100801156D01*
X152585485Y-100653324D01*
X152486819Y-100554658D01*
X152453334Y-100493335D01*
X152450500Y-100466977D01*
X152450500Y-100303867D01*
X152470185Y-100236828D01*
X152522095Y-100191485D01*
X152652734Y-100130568D01*
X152839139Y-100000047D01*
X153000047Y-99839139D01*
X153073925Y-99733628D01*
X153128501Y-99690004D01*
X153197999Y-99682810D01*
X153260354Y-99714332D01*
G37*
G04 #@! TD.AperFunction*
G04 #@! TA.AperFunction,Conductor*
G36*
X156726376Y-102805536D02*
G01*
X156784609Y-102844145D01*
X156812219Y-102904603D01*
X156827684Y-103002242D01*
X156827685Y-103002245D01*
X156884152Y-103176031D01*
X156967109Y-103338844D01*
X157074515Y-103486676D01*
X157203724Y-103615885D01*
X157351556Y-103723291D01*
X157514369Y-103806248D01*
X157688155Y-103862715D01*
X157755835Y-103873434D01*
X157868630Y-103891300D01*
X157868635Y-103891300D01*
X158051370Y-103891300D01*
X158151631Y-103875419D01*
X158231845Y-103862715D01*
X158405631Y-103806248D01*
X158568444Y-103723291D01*
X158716276Y-103615885D01*
X158845485Y-103486676D01*
X158952891Y-103338844D01*
X159035848Y-103176031D01*
X159092315Y-103002245D01*
X159103402Y-102932242D01*
X159107527Y-102906202D01*
X159137456Y-102843067D01*
X159196768Y-102806136D01*
X159266630Y-102807134D01*
X159324863Y-102845744D01*
X159352473Y-102906202D01*
X159367684Y-103002241D01*
X159367684Y-103002243D01*
X159367685Y-103002245D01*
X159424152Y-103176031D01*
X159507109Y-103338844D01*
X159614515Y-103486676D01*
X159743724Y-103615885D01*
X159891556Y-103723291D01*
X160054369Y-103806248D01*
X160228155Y-103862715D01*
X160295835Y-103873434D01*
X160408630Y-103891300D01*
X160408635Y-103891300D01*
X160591370Y-103891300D01*
X160691631Y-103875419D01*
X160771845Y-103862715D01*
X160945631Y-103806248D01*
X161108444Y-103723291D01*
X161256276Y-103615885D01*
X161385485Y-103486676D01*
X161492891Y-103338844D01*
X161575848Y-103176031D01*
X161632315Y-103002245D01*
X161643402Y-102932242D01*
X161647527Y-102906202D01*
X161677456Y-102843067D01*
X161736768Y-102806136D01*
X161806630Y-102807134D01*
X161864863Y-102845744D01*
X161892473Y-102906202D01*
X161907684Y-103002241D01*
X161907684Y-103002243D01*
X161907685Y-103002245D01*
X161964152Y-103176031D01*
X162047109Y-103338844D01*
X162154515Y-103486676D01*
X162283724Y-103615885D01*
X162431556Y-103723291D01*
X162594369Y-103806248D01*
X162768155Y-103862715D01*
X162835835Y-103873434D01*
X162948630Y-103891300D01*
X162948635Y-103891300D01*
X163131370Y-103891300D01*
X163231631Y-103875419D01*
X163311845Y-103862715D01*
X163485631Y-103806248D01*
X163648444Y-103723291D01*
X163796276Y-103615885D01*
X163925485Y-103486676D01*
X164032891Y-103338844D01*
X164115848Y-103176031D01*
X164172315Y-103002245D01*
X164183402Y-102932242D01*
X164187527Y-102906202D01*
X164217456Y-102843067D01*
X164276768Y-102806136D01*
X164346630Y-102807134D01*
X164404863Y-102845744D01*
X164432473Y-102906202D01*
X164447684Y-103002241D01*
X164447684Y-103002243D01*
X164447685Y-103002245D01*
X164504152Y-103176031D01*
X164587109Y-103338844D01*
X164694515Y-103486676D01*
X164823724Y-103615885D01*
X164971556Y-103723291D01*
X165134369Y-103806248D01*
X165308155Y-103862715D01*
X165375835Y-103873434D01*
X165488630Y-103891300D01*
X165488635Y-103891300D01*
X165671370Y-103891300D01*
X165771631Y-103875419D01*
X165851845Y-103862715D01*
X166025631Y-103806248D01*
X166188444Y-103723291D01*
X166336276Y-103615885D01*
X166465485Y-103486676D01*
X166572891Y-103338844D01*
X166655848Y-103176031D01*
X166712315Y-103002245D01*
X166723402Y-102932242D01*
X166727527Y-102906202D01*
X166757456Y-102843067D01*
X166816768Y-102806136D01*
X166886630Y-102807134D01*
X166944863Y-102845744D01*
X166972473Y-102906202D01*
X166987684Y-103002241D01*
X166987684Y-103002243D01*
X166987685Y-103002245D01*
X167044152Y-103176031D01*
X167127109Y-103338844D01*
X167234515Y-103486676D01*
X167363724Y-103615885D01*
X167511556Y-103723291D01*
X167674369Y-103806248D01*
X167848155Y-103862715D01*
X167915835Y-103873434D01*
X168028630Y-103891300D01*
X168028635Y-103891300D01*
X168211370Y-103891300D01*
X168311631Y-103875419D01*
X168391845Y-103862715D01*
X168565631Y-103806248D01*
X168728444Y-103723291D01*
X168876276Y-103615885D01*
X169005485Y-103486676D01*
X169112891Y-103338844D01*
X169195848Y-103176031D01*
X169252315Y-103002245D01*
X169263402Y-102932242D01*
X169267527Y-102906202D01*
X169297456Y-102843067D01*
X169356768Y-102806136D01*
X169426630Y-102807134D01*
X169484863Y-102845744D01*
X169512473Y-102906202D01*
X169527684Y-103002241D01*
X169527684Y-103002243D01*
X169527685Y-103002245D01*
X169584152Y-103176031D01*
X169667109Y-103338844D01*
X169774515Y-103486676D01*
X169903724Y-103615885D01*
X170051556Y-103723291D01*
X170214369Y-103806248D01*
X170388155Y-103862715D01*
X170455835Y-103873434D01*
X170568630Y-103891300D01*
X170568635Y-103891300D01*
X170751370Y-103891300D01*
X170851631Y-103875419D01*
X170931845Y-103862715D01*
X171105631Y-103806248D01*
X171268444Y-103723291D01*
X171416276Y-103615885D01*
X171545485Y-103486676D01*
X171652891Y-103338844D01*
X171735848Y-103176031D01*
X171792315Y-103002245D01*
X171803402Y-102932242D01*
X171807527Y-102906202D01*
X171837456Y-102843067D01*
X171896768Y-102806136D01*
X171966630Y-102807134D01*
X172024863Y-102845744D01*
X172052473Y-102906202D01*
X172067684Y-103002241D01*
X172067684Y-103002243D01*
X172067685Y-103002245D01*
X172124152Y-103176031D01*
X172207109Y-103338844D01*
X172314515Y-103486676D01*
X172443724Y-103615885D01*
X172443727Y-103615887D01*
X172546223Y-103690355D01*
X172588889Y-103745685D01*
X172594868Y-103815298D01*
X172562262Y-103877093D01*
X172561019Y-103878354D01*
X170888479Y-105550895D01*
X170827156Y-105584380D01*
X170757464Y-105579396D01*
X170701531Y-105537524D01*
X170677114Y-105472060D01*
X170691966Y-105403787D01*
X170695805Y-105397241D01*
X170725788Y-105349524D01*
X170730900Y-105334916D01*
X170785368Y-105179255D01*
X170787896Y-105156818D01*
X170805565Y-105000003D01*
X170805565Y-104999996D01*
X170785369Y-104820750D01*
X170785368Y-104820745D01*
X170740297Y-104691939D01*
X170725789Y-104650478D01*
X170629816Y-104497738D01*
X170502262Y-104370184D01*
X170469374Y-104349519D01*
X170349523Y-104274211D01*
X170179254Y-104214631D01*
X170179249Y-104214630D01*
X170000004Y-104194435D01*
X169999996Y-104194435D01*
X169820750Y-104214630D01*
X169820745Y-104214631D01*
X169740983Y-104242542D01*
X169700028Y-104249500D01*
X165116076Y-104249500D01*
X165087242Y-104255234D01*
X165087243Y-104255235D01*
X164971093Y-104278339D01*
X164971089Y-104278340D01*
X164907880Y-104304523D01*
X164834506Y-104334915D01*
X164834504Y-104334916D01*
X164812644Y-104349521D01*
X164812645Y-104349522D01*
X164711582Y-104417049D01*
X164711579Y-104417052D01*
X161161203Y-107967427D01*
X161099880Y-108000912D01*
X161030188Y-107995928D01*
X161017228Y-107990231D01*
X160945636Y-107953754D01*
X160945633Y-107953753D01*
X160945631Y-107953752D01*
X160771845Y-107897285D01*
X160771843Y-107897284D01*
X160771841Y-107897284D01*
X160591370Y-107868700D01*
X160591365Y-107868700D01*
X160408635Y-107868700D01*
X160408630Y-107868700D01*
X160228158Y-107897284D01*
X160054366Y-107953753D01*
X159891555Y-108036709D01*
X159743721Y-108144117D01*
X159614517Y-108273321D01*
X159507109Y-108421155D01*
X159424153Y-108583966D01*
X159367684Y-108757758D01*
X159352473Y-108853797D01*
X159322544Y-108916932D01*
X159263232Y-108953863D01*
X159193369Y-108952865D01*
X159135137Y-108914255D01*
X159107527Y-108853797D01*
X159099293Y-108801812D01*
X159092315Y-108757755D01*
X159035848Y-108583969D01*
X158952891Y-108421156D01*
X158845485Y-108273324D01*
X158716276Y-108144115D01*
X158568444Y-108036709D01*
X158405631Y-107953752D01*
X158231845Y-107897285D01*
X158231843Y-107897284D01*
X158231841Y-107897284D01*
X158051370Y-107868700D01*
X158051365Y-107868700D01*
X157868635Y-107868700D01*
X157868630Y-107868700D01*
X157688158Y-107897284D01*
X157514366Y-107953753D01*
X157351555Y-108036709D01*
X157203721Y-108144117D01*
X157074517Y-108273321D01*
X156967109Y-108421155D01*
X156884153Y-108583966D01*
X156827684Y-108757758D01*
X156812473Y-108853797D01*
X156782544Y-108916932D01*
X156723232Y-108953863D01*
X156653369Y-108952865D01*
X156595137Y-108914255D01*
X156567527Y-108853797D01*
X156559293Y-108801812D01*
X156552315Y-108757755D01*
X156495848Y-108583969D01*
X156412891Y-108421156D01*
X156305485Y-108273324D01*
X156206819Y-108174658D01*
X156173334Y-108113335D01*
X156170500Y-108086977D01*
X156170500Y-105942230D01*
X156190185Y-105875191D01*
X156206819Y-105854549D01*
X156582947Y-105478421D01*
X156582952Y-105478416D01*
X156655269Y-105370184D01*
X156665084Y-105355495D01*
X156721658Y-105218913D01*
X156750500Y-105073918D01*
X156750500Y-104299972D01*
X156757458Y-104259017D01*
X156785368Y-104179254D01*
X156785369Y-104179249D01*
X156805565Y-104000003D01*
X156805565Y-103999996D01*
X156785369Y-103820750D01*
X156785368Y-103820745D01*
X156755801Y-103736248D01*
X156725789Y-103650478D01*
X156629816Y-103497738D01*
X156502262Y-103370184D01*
X156497338Y-103365260D01*
X156499183Y-103363414D01*
X156465924Y-103316023D01*
X156463078Y-103246212D01*
X156472895Y-103219974D01*
X156495384Y-103175837D01*
X156551827Y-103002128D01*
X156551827Y-103002127D01*
X156567273Y-102904605D01*
X156597202Y-102841470D01*
X156656513Y-102804538D01*
X156726376Y-102805536D01*
G37*
G04 #@! TD.AperFunction*
G04 #@! TA.AperFunction,Conductor*
G36*
X177210000Y-103795668D02*
G01*
X177231728Y-103792227D01*
X177405441Y-103735783D01*
X177568182Y-103652862D01*
X177715951Y-103545500D01*
X177715952Y-103545500D01*
X177845100Y-103416352D01*
X177845100Y-103416351D01*
X177952462Y-103268582D01*
X178035383Y-103105843D01*
X178091827Y-102932128D01*
X178091827Y-102932127D01*
X178107273Y-102834605D01*
X178137202Y-102771470D01*
X178196513Y-102734538D01*
X178266376Y-102735536D01*
X178324609Y-102774145D01*
X178352219Y-102834603D01*
X178367684Y-102932242D01*
X178367685Y-102932245D01*
X178424152Y-103106031D01*
X178507109Y-103268844D01*
X178614515Y-103416676D01*
X178743724Y-103545885D01*
X178891556Y-103653291D01*
X179054369Y-103736248D01*
X179228155Y-103792715D01*
X179295835Y-103803434D01*
X179408630Y-103821300D01*
X179408635Y-103821300D01*
X179591370Y-103821300D01*
X179691631Y-103805419D01*
X179771845Y-103792715D01*
X179945631Y-103736248D01*
X180108444Y-103653291D01*
X180256276Y-103545885D01*
X180385485Y-103416676D01*
X180492891Y-103268844D01*
X180575848Y-103106031D01*
X180632315Y-102932245D01*
X180644316Y-102856473D01*
X180647527Y-102836202D01*
X180677456Y-102773067D01*
X180736768Y-102736136D01*
X180806630Y-102737134D01*
X180864863Y-102775744D01*
X180892473Y-102836202D01*
X180907684Y-102932241D01*
X180907684Y-102932243D01*
X180907685Y-102932245D01*
X180964152Y-103106031D01*
X181047109Y-103268844D01*
X181154515Y-103416676D01*
X181283724Y-103545885D01*
X181431556Y-103653291D01*
X181594369Y-103736248D01*
X181768155Y-103792715D01*
X181835835Y-103803434D01*
X181948630Y-103821300D01*
X181948635Y-103821300D01*
X182131370Y-103821300D01*
X182231631Y-103805419D01*
X182311845Y-103792715D01*
X182485631Y-103736248D01*
X182648444Y-103653291D01*
X182796276Y-103545885D01*
X182925485Y-103416676D01*
X183032891Y-103268844D01*
X183115848Y-103106031D01*
X183172315Y-102932245D01*
X183184316Y-102856473D01*
X183187527Y-102836202D01*
X183217456Y-102773067D01*
X183276768Y-102736136D01*
X183346630Y-102737134D01*
X183404863Y-102775744D01*
X183432473Y-102836202D01*
X183447684Y-102932241D01*
X183447684Y-102932243D01*
X183447685Y-102932245D01*
X183504152Y-103106031D01*
X183587109Y-103268844D01*
X183694515Y-103416676D01*
X183823724Y-103545885D01*
X183971556Y-103653291D01*
X184134369Y-103736248D01*
X184308155Y-103792715D01*
X184375835Y-103803434D01*
X184488630Y-103821300D01*
X184488635Y-103821300D01*
X184671370Y-103821300D01*
X184771631Y-103805419D01*
X184851845Y-103792715D01*
X185025631Y-103736248D01*
X185188444Y-103653291D01*
X185336276Y-103545885D01*
X185465485Y-103416676D01*
X185572891Y-103268844D01*
X185655848Y-103106031D01*
X185712315Y-102932245D01*
X185724316Y-102856473D01*
X185727527Y-102836202D01*
X185757456Y-102773067D01*
X185816768Y-102736136D01*
X185886630Y-102737134D01*
X185944863Y-102775744D01*
X185972473Y-102836202D01*
X185987684Y-102932241D01*
X185987684Y-102932243D01*
X185987685Y-102932245D01*
X186044152Y-103106031D01*
X186127109Y-103268844D01*
X186234515Y-103416676D01*
X186363724Y-103545885D01*
X186511556Y-103653291D01*
X186674369Y-103736248D01*
X186848155Y-103792715D01*
X186915835Y-103803434D01*
X187028630Y-103821300D01*
X187028635Y-103821300D01*
X187211370Y-103821300D01*
X187311631Y-103805419D01*
X187391845Y-103792715D01*
X187565631Y-103736248D01*
X187728444Y-103653291D01*
X187876276Y-103545885D01*
X188005485Y-103416676D01*
X188112891Y-103268844D01*
X188195848Y-103106031D01*
X188252315Y-102932245D01*
X188264316Y-102856473D01*
X188267527Y-102836202D01*
X188297456Y-102773067D01*
X188356768Y-102736136D01*
X188426630Y-102737134D01*
X188484863Y-102775744D01*
X188512473Y-102836202D01*
X188527684Y-102932241D01*
X188527684Y-102932243D01*
X188527685Y-102932245D01*
X188584152Y-103106031D01*
X188667109Y-103268844D01*
X188774515Y-103416676D01*
X188903724Y-103545885D01*
X189051556Y-103653291D01*
X189214369Y-103736248D01*
X189388155Y-103792715D01*
X189455835Y-103803434D01*
X189568630Y-103821300D01*
X189568635Y-103821300D01*
X189751370Y-103821300D01*
X189851631Y-103805419D01*
X189931845Y-103792715D01*
X190105631Y-103736248D01*
X190268444Y-103653291D01*
X190416276Y-103545885D01*
X190545485Y-103416676D01*
X190652891Y-103268844D01*
X190735848Y-103106031D01*
X190792315Y-102932245D01*
X190804316Y-102856473D01*
X190807527Y-102836202D01*
X190837456Y-102773067D01*
X190896768Y-102736136D01*
X190966630Y-102737134D01*
X191024863Y-102775744D01*
X191052473Y-102836202D01*
X191067684Y-102932241D01*
X191067684Y-102932243D01*
X191067685Y-102932245D01*
X191124152Y-103106031D01*
X191207109Y-103268844D01*
X191314515Y-103416676D01*
X191443724Y-103545885D01*
X191591556Y-103653291D01*
X191754369Y-103736248D01*
X191928155Y-103792715D01*
X191995835Y-103803434D01*
X192108630Y-103821300D01*
X192108635Y-103821300D01*
X192291370Y-103821300D01*
X192391631Y-103805419D01*
X192471845Y-103792715D01*
X192645631Y-103736248D01*
X192808444Y-103653291D01*
X192956276Y-103545885D01*
X193085485Y-103416676D01*
X193192891Y-103268844D01*
X193275848Y-103106031D01*
X193332315Y-102932245D01*
X193344316Y-102856473D01*
X193347527Y-102836202D01*
X193377456Y-102773067D01*
X193436768Y-102736136D01*
X193506630Y-102737134D01*
X193564863Y-102775744D01*
X193592473Y-102836202D01*
X193607684Y-102932241D01*
X193607684Y-102932243D01*
X193607685Y-102932245D01*
X193664152Y-103106031D01*
X193747109Y-103268844D01*
X193854515Y-103416676D01*
X193983724Y-103545885D01*
X194131556Y-103653291D01*
X194294369Y-103736248D01*
X194468155Y-103792715D01*
X194535835Y-103803434D01*
X194648630Y-103821300D01*
X194648635Y-103821300D01*
X194831368Y-103821300D01*
X194853526Y-103817789D01*
X194878230Y-103813877D01*
X194947522Y-103822831D01*
X195000975Y-103867826D01*
X195021616Y-103934577D01*
X195002892Y-104001891D01*
X194985311Y-104024031D01*
X194899824Y-104109517D01*
X194746160Y-104263182D01*
X194684840Y-104296666D01*
X194658481Y-104299500D01*
X188751036Y-104299500D01*
X188615709Y-104326418D01*
X188615699Y-104326421D01*
X188488224Y-104379222D01*
X188373486Y-104455887D01*
X186455887Y-106373486D01*
X186379222Y-106488224D01*
X186326420Y-106615701D01*
X186326418Y-106615708D01*
X186317066Y-106662723D01*
X186284680Y-106724634D01*
X186283130Y-106726211D01*
X185515490Y-107493851D01*
X185515484Y-107493858D01*
X185460545Y-107576082D01*
X185438826Y-107608586D01*
X185438822Y-107608593D01*
X185386021Y-107736067D01*
X185386018Y-107736077D01*
X185358140Y-107876229D01*
X185325755Y-107938140D01*
X185265039Y-107972714D01*
X185195270Y-107968974D01*
X185180229Y-107962522D01*
X185025636Y-107883754D01*
X185025633Y-107883753D01*
X185025631Y-107883752D01*
X184851845Y-107827285D01*
X184851843Y-107827284D01*
X184851841Y-107827284D01*
X184671370Y-107798700D01*
X184671365Y-107798700D01*
X184488635Y-107798700D01*
X184488630Y-107798700D01*
X184308158Y-107827284D01*
X184134366Y-107883753D01*
X183971555Y-107966709D01*
X183823721Y-108074117D01*
X183694517Y-108203321D01*
X183587109Y-108351155D01*
X183504153Y-108513966D01*
X183447684Y-108687758D01*
X183432473Y-108783797D01*
X183402544Y-108846932D01*
X183343232Y-108883863D01*
X183273369Y-108882865D01*
X183215137Y-108844255D01*
X183187527Y-108783797D01*
X183172315Y-108687758D01*
X183172315Y-108687755D01*
X183115848Y-108513969D01*
X183032891Y-108351156D01*
X182925485Y-108203324D01*
X182796276Y-108074115D01*
X182648444Y-107966709D01*
X182628514Y-107956554D01*
X182485635Y-107883753D01*
X182447637Y-107871407D01*
X182445595Y-107870743D01*
X182387921Y-107831306D01*
X182360723Y-107766947D01*
X182372638Y-107698100D01*
X182396231Y-107665135D01*
X183308059Y-106753306D01*
X183344132Y-106730657D01*
X183343244Y-106728813D01*
X183349515Y-106725792D01*
X183349516Y-106725790D01*
X183349522Y-106725789D01*
X183502262Y-106629816D01*
X183629816Y-106502262D01*
X183725789Y-106349522D01*
X183785368Y-106179255D01*
X183785369Y-106179249D01*
X183805565Y-106000003D01*
X183805565Y-105999996D01*
X183785369Y-105820750D01*
X183785368Y-105820745D01*
X183760788Y-105750500D01*
X183725789Y-105650478D01*
X183629816Y-105497738D01*
X183502262Y-105370184D01*
X183469379Y-105349522D01*
X183349523Y-105274211D01*
X183179254Y-105214631D01*
X183179249Y-105214630D01*
X183000004Y-105194435D01*
X182999996Y-105194435D01*
X182820750Y-105214630D01*
X182820745Y-105214631D01*
X182650476Y-105274211D01*
X182497737Y-105370184D01*
X182370184Y-105497737D01*
X182274208Y-105650483D01*
X182271186Y-105656758D01*
X182269361Y-105655878D01*
X182246692Y-105691939D01*
X181075451Y-106863181D01*
X181014128Y-106896666D01*
X180987770Y-106899500D01*
X171820551Y-106899500D01*
X171753512Y-106879815D01*
X171707757Y-106827011D01*
X171697813Y-106757853D01*
X171726838Y-106694297D01*
X171732870Y-106687819D01*
X175544112Y-102876577D01*
X175544114Y-102876575D01*
X175590616Y-102806979D01*
X175644226Y-102762176D01*
X175713551Y-102753467D01*
X175776578Y-102783621D01*
X175813298Y-102843064D01*
X175816190Y-102856473D01*
X175828172Y-102932128D01*
X175884616Y-103105843D01*
X175967537Y-103268582D01*
X176074899Y-103416351D01*
X176074899Y-103416352D01*
X176204047Y-103545500D01*
X176351817Y-103652862D01*
X176514558Y-103735783D01*
X176688271Y-103792227D01*
X176709999Y-103795668D01*
X176710000Y-103795667D01*
X176710000Y-102324737D01*
X176710464Y-102325201D01*
X176803135Y-102378705D01*
X176906496Y-102406400D01*
X177013504Y-102406400D01*
X177116865Y-102378705D01*
X177209536Y-102325201D01*
X177210000Y-102324737D01*
X177210000Y-103795668D01*
G37*
G04 #@! TD.AperFunction*
G04 #@! TA.AperFunction,Conductor*
G36*
X195898104Y-81020185D02*
G01*
X195943859Y-81072989D01*
X195953803Y-81142147D01*
X195924778Y-81205703D01*
X195891046Y-81233028D01*
X195794810Y-81286215D01*
X195794805Y-81286218D01*
X195501693Y-81494193D01*
X195420397Y-81566844D01*
X196738282Y-82884729D01*
X196620534Y-82970278D01*
X196470278Y-83120534D01*
X196384729Y-83238282D01*
X195066844Y-81920397D01*
X194994193Y-82001693D01*
X194786218Y-82294805D01*
X194786215Y-82294810D01*
X194612355Y-82609386D01*
X194612353Y-82609390D01*
X194474812Y-82941447D01*
X194375316Y-83286805D01*
X194375314Y-83286814D01*
X194315112Y-83641141D01*
X194315110Y-83641153D01*
X194294958Y-84000000D01*
X194314029Y-84339587D01*
X194298134Y-84407625D01*
X194247979Y-84456269D01*
X194179487Y-84470074D01*
X194114404Y-84444659D01*
X194102543Y-84434221D01*
X191444211Y-81775888D01*
X191444210Y-81775887D01*
X191329472Y-81699222D01*
X191201997Y-81646421D01*
X191201987Y-81646418D01*
X191066661Y-81619500D01*
X191066659Y-81619500D01*
X191066658Y-81619500D01*
X185118994Y-81619500D01*
X184981006Y-81619500D01*
X184981004Y-81619500D01*
X184845677Y-81646418D01*
X184845667Y-81646421D01*
X184718192Y-81699222D01*
X184603454Y-81775887D01*
X182796160Y-83583181D01*
X182734837Y-83616666D01*
X182708479Y-83619500D01*
X181502129Y-83619500D01*
X181502123Y-83619501D01*
X181442516Y-83625908D01*
X181307671Y-83676202D01*
X181307664Y-83676206D01*
X181192455Y-83762452D01*
X181192452Y-83762455D01*
X181106206Y-83877664D01*
X181106202Y-83877671D01*
X181055908Y-84012517D01*
X181049501Y-84072116D01*
X181049500Y-84072135D01*
X181049500Y-85867870D01*
X181049501Y-85867876D01*
X181055908Y-85927483D01*
X181106202Y-86062328D01*
X181106206Y-86062335D01*
X181192452Y-86177544D01*
X181192455Y-86177547D01*
X181307664Y-86263793D01*
X181307671Y-86263797D01*
X181439081Y-86312810D01*
X181495015Y-86354681D01*
X181519432Y-86420145D01*
X181504580Y-86488418D01*
X181483430Y-86516673D01*
X181361503Y-86638600D01*
X181313874Y-86706623D01*
X181259297Y-86750248D01*
X181212299Y-86759500D01*
X180796080Y-86759500D01*
X180651092Y-86788340D01*
X180651082Y-86788343D01*
X180514511Y-86844912D01*
X180514498Y-86844919D01*
X180391584Y-86927048D01*
X180391580Y-86927051D01*
X177265348Y-90053282D01*
X177204025Y-90086767D01*
X177166861Y-90089129D01*
X177000003Y-90074532D01*
X176999998Y-90074532D01*
X176773313Y-90094364D01*
X176773302Y-90094366D01*
X176553511Y-90153258D01*
X176553502Y-90153261D01*
X176347267Y-90249431D01*
X176347265Y-90249432D01*
X176160858Y-90379954D01*
X175999954Y-90540858D01*
X175926075Y-90646370D01*
X175871498Y-90689995D01*
X175802000Y-90697189D01*
X175739645Y-90665666D01*
X175704231Y-90605437D01*
X175700500Y-90575247D01*
X175700500Y-87753341D01*
X175695193Y-87726665D01*
X175695193Y-87726662D01*
X175673581Y-87618014D01*
X175673580Y-87618007D01*
X175667696Y-87603802D01*
X175620777Y-87490527D01*
X175544112Y-87375789D01*
X174394957Y-86226634D01*
X174361472Y-86165311D01*
X174366456Y-86095619D01*
X174408328Y-86039686D01*
X174473792Y-86015269D01*
X174533530Y-86025878D01*
X174540817Y-86029157D01*
X174540835Y-86029164D01*
X174852658Y-86126332D01*
X175173961Y-86185213D01*
X175500000Y-86204934D01*
X175826038Y-86185213D01*
X176147341Y-86126332D01*
X176459164Y-86029164D01*
X176459175Y-86029160D01*
X176757041Y-85895102D01*
X176757043Y-85895101D01*
X177036586Y-85726112D01*
X177224968Y-85578523D01*
X177224968Y-85578522D01*
X176082737Y-84436290D01*
X176216602Y-84339033D01*
X176339033Y-84216602D01*
X176436290Y-84082737D01*
X177578522Y-85224968D01*
X177578523Y-85224968D01*
X177726112Y-85036586D01*
X177895101Y-84757043D01*
X177895102Y-84757041D01*
X178029160Y-84459175D01*
X178029164Y-84459164D01*
X178126332Y-84147341D01*
X178185213Y-83826038D01*
X178204934Y-83500000D01*
X178185213Y-83173961D01*
X178126332Y-82852658D01*
X178029164Y-82540835D01*
X178029160Y-82540824D01*
X177895102Y-82242958D01*
X177895101Y-82242956D01*
X177726118Y-81963423D01*
X177578522Y-81775030D01*
X176436290Y-82917262D01*
X176339033Y-82783398D01*
X176216602Y-82660967D01*
X176082736Y-82563709D01*
X177224968Y-81421476D01*
X177036576Y-81273881D01*
X176965009Y-81230617D01*
X176917822Y-81179089D01*
X176905983Y-81110230D01*
X176933252Y-81045901D01*
X176990970Y-81006527D01*
X177029159Y-81000500D01*
X195831065Y-81000500D01*
X195898104Y-81020185D01*
G37*
G04 #@! TD.AperFunction*
G04 #@! TA.AperFunction,Conductor*
G36*
X109898104Y-81020185D02*
G01*
X109943859Y-81072989D01*
X109953803Y-81142147D01*
X109924778Y-81205703D01*
X109891046Y-81233028D01*
X109794810Y-81286215D01*
X109794805Y-81286218D01*
X109501693Y-81494193D01*
X109420397Y-81566844D01*
X110738282Y-82884729D01*
X110620534Y-82970278D01*
X110470278Y-83120534D01*
X110384729Y-83238282D01*
X109066844Y-81920397D01*
X108994193Y-82001693D01*
X108786218Y-82294805D01*
X108786215Y-82294810D01*
X108733028Y-82391046D01*
X108683371Y-82440199D01*
X108615023Y-82454702D01*
X108549684Y-82429952D01*
X108508099Y-82373805D01*
X108500500Y-82331065D01*
X108500500Y-81124500D01*
X108520185Y-81057461D01*
X108572989Y-81011706D01*
X108624500Y-81000500D01*
X109831065Y-81000500D01*
X109898104Y-81020185D01*
G37*
G04 #@! TD.AperFunction*
G04 #@! TA.AperFunction,Conductor*
G36*
X200442539Y-81020185D02*
G01*
X200488294Y-81072989D01*
X200499500Y-81124500D01*
X200499500Y-82331065D01*
X200479815Y-82398104D01*
X200427011Y-82443859D01*
X200357853Y-82453803D01*
X200294297Y-82424778D01*
X200266972Y-82391046D01*
X200213784Y-82294810D01*
X200213781Y-82294805D01*
X200005806Y-82001693D01*
X199933154Y-81920397D01*
X198615270Y-83238281D01*
X198529722Y-83120534D01*
X198379466Y-82970278D01*
X198261717Y-82884729D01*
X199579601Y-81566844D01*
X199579602Y-81566844D01*
X199498306Y-81494193D01*
X199205194Y-81286218D01*
X199205189Y-81286215D01*
X199108954Y-81233028D01*
X199059801Y-81183371D01*
X199045298Y-81115023D01*
X199070048Y-81049684D01*
X199126195Y-81008099D01*
X199168935Y-81000500D01*
X200375500Y-81000500D01*
X200442539Y-81020185D01*
G37*
G04 #@! TD.AperFunction*
M02*
