G04 #@! TF.GenerationSoftware,KiCad,Pcbnew,8.0.0*
G04 #@! TF.CreationDate,2024-03-17T17:04:49+00:00*
G04 #@! TF.ProjectId,binClock,62696e43-6c6f-4636-9b2e-6b696361645f,rev?*
G04 #@! TF.SameCoordinates,Original*
G04 #@! TF.FileFunction,Soldermask,Top*
G04 #@! TF.FilePolarity,Negative*
%FSLAX46Y46*%
G04 Gerber Fmt 4.6, Leading zero omitted, Abs format (unit mm)*
G04 Created by KiCad (PCBNEW 8.0.0) date 2024-03-17 17:04:49*
%MOMM*%
%LPD*%
G01*
G04 APERTURE LIST*
%ADD10O,1.524800X2.845600*%
%ADD11C,3.100000*%
%ADD12C,5.400000*%
%ADD13R,1.700000X1.700000*%
%ADD14O,1.700000X1.700000*%
%ADD15C,1.600000*%
%ADD16O,1.600000X1.600000*%
%ADD17C,2.600000*%
%ADD18C,4.400000*%
%ADD19C,2.109000*%
%ADD20C,2.000000*%
G04 APERTURE END LIST*
D10*
X173200000Y-102070000D03*
X170660000Y-102070000D03*
X168120000Y-102070000D03*
X165580000Y-102070000D03*
X163040000Y-102070000D03*
X160500000Y-102070000D03*
X157960000Y-102070000D03*
X155420000Y-102070000D03*
X155420000Y-109690000D03*
X157960000Y-109690000D03*
X160500000Y-109690000D03*
X163040000Y-109690000D03*
X165580000Y-109690000D03*
X168120000Y-109690000D03*
X170660000Y-109690000D03*
X173200000Y-109690000D03*
D11*
X197500000Y-136500000D03*
D12*
X197500000Y-136500000D03*
D13*
X117900000Y-84970000D03*
D14*
X120440000Y-84970000D03*
X122980000Y-84970000D03*
X125400000Y-84970000D03*
X125520000Y-87510000D03*
X122980000Y-87510000D03*
X120440000Y-87510000D03*
X117900000Y-87510000D03*
D13*
X160900000Y-84970000D03*
D14*
X163440000Y-84970000D03*
X165980000Y-84970000D03*
X168400000Y-84970000D03*
X168520000Y-87510000D03*
X165980000Y-87510000D03*
X163440000Y-87510000D03*
X160900000Y-87510000D03*
D11*
X197500000Y-84000000D03*
D12*
X197500000Y-84000000D03*
D10*
X130390000Y-102000000D03*
X127850000Y-102000000D03*
X125310000Y-102000000D03*
X122770000Y-102000000D03*
X120230000Y-102000000D03*
X117690000Y-102000000D03*
X115150000Y-102000000D03*
X112610000Y-102000000D03*
X112610000Y-109620000D03*
X115150000Y-109620000D03*
X117690000Y-109620000D03*
X120230000Y-109620000D03*
X122770000Y-109620000D03*
X125310000Y-109620000D03*
X127850000Y-109620000D03*
X130390000Y-109620000D03*
D15*
X195000000Y-91380000D03*
D16*
X195000000Y-99000000D03*
D15*
X137000000Y-99000000D03*
D16*
X137000000Y-91380000D03*
D17*
X175500000Y-83500000D03*
D18*
X175500000Y-83500000D03*
D15*
X134000000Y-99000000D03*
D16*
X134000000Y-91380000D03*
D15*
X124880000Y-128000000D03*
D16*
X132500000Y-128000000D03*
D17*
X132500000Y-84000000D03*
D18*
X132500000Y-84000000D03*
D15*
X167500000Y-91380000D03*
D16*
X167500000Y-99000000D03*
D15*
X170500000Y-91380000D03*
D16*
X170500000Y-99000000D03*
D15*
X121500000Y-99000000D03*
D16*
X121500000Y-91380000D03*
D15*
X124500000Y-91380000D03*
D16*
X124500000Y-99000000D03*
D15*
X186000000Y-99000000D03*
D16*
X186000000Y-91380000D03*
D19*
X145760000Y-119500000D03*
X145760000Y-122040000D03*
X145760000Y-124580000D03*
X145760000Y-127120000D03*
X145760000Y-132200000D03*
X145760000Y-129660000D03*
X161000000Y-137280000D03*
X145760000Y-137280000D03*
X161000000Y-134740000D03*
X161000000Y-132200000D03*
X161000000Y-129660000D03*
X161000000Y-127120000D03*
X161000000Y-124580000D03*
X161000000Y-122040000D03*
X161000000Y-119500000D03*
X145760000Y-134740000D03*
D15*
X112500000Y-99000000D03*
D16*
X112500000Y-91380000D03*
D15*
X152000000Y-91380000D03*
D16*
X152000000Y-99000000D03*
D15*
X143000000Y-99000000D03*
D16*
X143000000Y-91380000D03*
D15*
X173500000Y-91380000D03*
D16*
X173500000Y-99000000D03*
D10*
X194740000Y-102000000D03*
X192200000Y-102000000D03*
X189660000Y-102000000D03*
X187120000Y-102000000D03*
X184580000Y-102000000D03*
X182040000Y-102000000D03*
X179500000Y-102000000D03*
X176960000Y-102000000D03*
X176960000Y-109620000D03*
X179500000Y-109620000D03*
X182040000Y-109620000D03*
X184580000Y-109620000D03*
X187120000Y-109620000D03*
X189660000Y-109620000D03*
X192200000Y-109620000D03*
X194740000Y-109620000D03*
D15*
X129500000Y-112500000D03*
X132000000Y-112500000D03*
X115500000Y-99000000D03*
D16*
X115500000Y-91380000D03*
D15*
X149000000Y-91380000D03*
D16*
X149000000Y-99000000D03*
D15*
X162380000Y-113000000D03*
D16*
X170000000Y-113000000D03*
D20*
X174500000Y-138000000D03*
X174500000Y-131500000D03*
X179000000Y-138000000D03*
X179000000Y-131500000D03*
D11*
X111500000Y-84000000D03*
D12*
X111500000Y-84000000D03*
D15*
X192000000Y-91380000D03*
D16*
X192000000Y-99000000D03*
D15*
X164500000Y-99000000D03*
D16*
X164500000Y-91380000D03*
D15*
X183000000Y-99000000D03*
D16*
X183000000Y-91380000D03*
D15*
X177000000Y-99000000D03*
D16*
X177000000Y-91380000D03*
D15*
X172500000Y-112500000D03*
X175000000Y-112500000D03*
X140630000Y-113000000D03*
D16*
X148250000Y-113000000D03*
D15*
X158500000Y-99000000D03*
D16*
X158500000Y-91380000D03*
D15*
X193500000Y-112500000D03*
X196000000Y-112500000D03*
D10*
X151700000Y-102070000D03*
X149160000Y-102070000D03*
X146620000Y-102070000D03*
X144080000Y-102070000D03*
X141540000Y-102070000D03*
X139000000Y-102070000D03*
X136460000Y-102070000D03*
X133920000Y-102070000D03*
X133920000Y-109690000D03*
X136460000Y-109690000D03*
X139000000Y-109690000D03*
X141540000Y-109690000D03*
X144080000Y-109690000D03*
X146620000Y-109690000D03*
X149160000Y-109690000D03*
X151700000Y-109690000D03*
D20*
X128000000Y-138000000D03*
X128000000Y-131500000D03*
X132500000Y-138000000D03*
X132500000Y-131500000D03*
D15*
X189000000Y-91380000D03*
D16*
X189000000Y-99000000D03*
D15*
X180000000Y-99000000D03*
D16*
X180000000Y-91380000D03*
D15*
X118500000Y-99000000D03*
D16*
X118500000Y-91380000D03*
D11*
X111500000Y-136500000D03*
D12*
X111500000Y-136500000D03*
D15*
X130500000Y-91380000D03*
D16*
X130500000Y-99000000D03*
D15*
X155500000Y-99000000D03*
D16*
X155500000Y-91380000D03*
D13*
X139440000Y-84970000D03*
D14*
X141980000Y-84970000D03*
X144520000Y-84970000D03*
X146940000Y-84970000D03*
X147060000Y-87510000D03*
X144520000Y-87510000D03*
X141980000Y-87510000D03*
X139440000Y-87510000D03*
D15*
X150750000Y-112500000D03*
X153250000Y-112500000D03*
X161500000Y-99000000D03*
D16*
X161500000Y-91380000D03*
D15*
X140000000Y-99000000D03*
D16*
X140000000Y-91380000D03*
D15*
X171380000Y-128000000D03*
D16*
X179000000Y-128000000D03*
D15*
X183380000Y-113000000D03*
D16*
X191000000Y-113000000D03*
D13*
X182400000Y-84970000D03*
D14*
X184940000Y-84970000D03*
X187480000Y-84970000D03*
X189900000Y-84970000D03*
X190020000Y-87510000D03*
X187480000Y-87510000D03*
X184940000Y-87510000D03*
X182400000Y-87510000D03*
D15*
X146000000Y-91380000D03*
D16*
X146000000Y-99000000D03*
D15*
X119380000Y-113000000D03*
D16*
X127000000Y-113000000D03*
D15*
X127500000Y-91380000D03*
D16*
X127500000Y-99000000D03*
M02*
