G04 #@! TF.GenerationSoftware,KiCad,Pcbnew,8.0.0*
G04 #@! TF.CreationDate,2024-03-17T17:04:49+00:00*
G04 #@! TF.ProjectId,binClock,62696e43-6c6f-4636-9b2e-6b696361645f,rev?*
G04 #@! TF.SameCoordinates,Original*
G04 #@! TF.FileFunction,Legend,Top*
G04 #@! TF.FilePolarity,Positive*
%FSLAX46Y46*%
G04 Gerber Fmt 4.6, Leading zero omitted, Abs format (unit mm)*
G04 Created by KiCad (PCBNEW 8.0.0) date 2024-03-17 17:04:49*
%MOMM*%
%LPD*%
G01*
G04 APERTURE LIST*
%ADD10C,0.100000*%
%ADD11C,0.300000*%
%ADD12C,0.150000*%
%ADD13C,0.127000*%
%ADD14C,0.152400*%
%ADD15C,0.120000*%
%ADD16O,1.524800X2.845600*%
%ADD17C,3.100000*%
%ADD18C,5.400000*%
%ADD19R,1.700000X1.700000*%
%ADD20O,1.700000X1.700000*%
%ADD21C,1.600000*%
%ADD22O,1.600000X1.600000*%
%ADD23C,2.600000*%
%ADD24C,4.400000*%
%ADD25C,2.109000*%
%ADD26C,2.000000*%
G04 APERTURE END LIST*
D10*
X117946741Y-89800990D02*
X117851503Y-89753371D01*
X117851503Y-89753371D02*
X117803884Y-89705752D01*
X117803884Y-89705752D02*
X117756265Y-89610514D01*
X117756265Y-89610514D02*
X117756265Y-89562895D01*
X117756265Y-89562895D02*
X117803884Y-89467657D01*
X117803884Y-89467657D02*
X117851503Y-89420038D01*
X117851503Y-89420038D02*
X117946741Y-89372419D01*
X117946741Y-89372419D02*
X118137217Y-89372419D01*
X118137217Y-89372419D02*
X118232455Y-89420038D01*
X118232455Y-89420038D02*
X118280074Y-89467657D01*
X118280074Y-89467657D02*
X118327693Y-89562895D01*
X118327693Y-89562895D02*
X118327693Y-89610514D01*
X118327693Y-89610514D02*
X118280074Y-89705752D01*
X118280074Y-89705752D02*
X118232455Y-89753371D01*
X118232455Y-89753371D02*
X118137217Y-89800990D01*
X118137217Y-89800990D02*
X117946741Y-89800990D01*
X117946741Y-89800990D02*
X117851503Y-89848609D01*
X117851503Y-89848609D02*
X117803884Y-89896228D01*
X117803884Y-89896228D02*
X117756265Y-89991466D01*
X117756265Y-89991466D02*
X117756265Y-90181942D01*
X117756265Y-90181942D02*
X117803884Y-90277180D01*
X117803884Y-90277180D02*
X117851503Y-90324800D01*
X117851503Y-90324800D02*
X117946741Y-90372419D01*
X117946741Y-90372419D02*
X118137217Y-90372419D01*
X118137217Y-90372419D02*
X118232455Y-90324800D01*
X118232455Y-90324800D02*
X118280074Y-90277180D01*
X118280074Y-90277180D02*
X118327693Y-90181942D01*
X118327693Y-90181942D02*
X118327693Y-89991466D01*
X118327693Y-89991466D02*
X118280074Y-89896228D01*
X118280074Y-89896228D02*
X118232455Y-89848609D01*
X118232455Y-89848609D02*
X118137217Y-89800990D01*
X125732455Y-82205752D02*
X125732455Y-82872419D01*
X125494360Y-81824800D02*
X125256265Y-82539085D01*
X125256265Y-82539085D02*
X125875312Y-82539085D01*
X190232455Y-82205752D02*
X190232455Y-82872419D01*
X189994360Y-81824800D02*
X189756265Y-82539085D01*
X189756265Y-82539085D02*
X190375312Y-82539085D01*
X139827693Y-82872419D02*
X139256265Y-82872419D01*
X139541979Y-82872419D02*
X139541979Y-81872419D01*
X139541979Y-81872419D02*
X139446741Y-82015276D01*
X139446741Y-82015276D02*
X139351503Y-82110514D01*
X139351503Y-82110514D02*
X139256265Y-82158133D01*
X131803884Y-89372419D02*
X131803884Y-88372419D01*
X131803884Y-88372419D02*
X132137217Y-89086704D01*
X132137217Y-89086704D02*
X132470550Y-88372419D01*
X132470550Y-88372419D02*
X132470550Y-89372419D01*
X132899122Y-88467657D02*
X132946741Y-88420038D01*
X132946741Y-88420038D02*
X133041979Y-88372419D01*
X133041979Y-88372419D02*
X133280074Y-88372419D01*
X133280074Y-88372419D02*
X133375312Y-88420038D01*
X133375312Y-88420038D02*
X133422931Y-88467657D01*
X133422931Y-88467657D02*
X133470550Y-88562895D01*
X133470550Y-88562895D02*
X133470550Y-88658133D01*
X133470550Y-88658133D02*
X133422931Y-88800990D01*
X133422931Y-88800990D02*
X132851503Y-89372419D01*
X132851503Y-89372419D02*
X133470550Y-89372419D01*
X182827693Y-82872419D02*
X182256265Y-82872419D01*
X182541979Y-82872419D02*
X182541979Y-81872419D01*
X182541979Y-81872419D02*
X182446741Y-82015276D01*
X182446741Y-82015276D02*
X182351503Y-82110514D01*
X182351503Y-82110514D02*
X182256265Y-82158133D01*
X168780074Y-89372419D02*
X168303884Y-89372419D01*
X168303884Y-89372419D02*
X168256265Y-89848609D01*
X168256265Y-89848609D02*
X168303884Y-89800990D01*
X168303884Y-89800990D02*
X168399122Y-89753371D01*
X168399122Y-89753371D02*
X168637217Y-89753371D01*
X168637217Y-89753371D02*
X168732455Y-89800990D01*
X168732455Y-89800990D02*
X168780074Y-89848609D01*
X168780074Y-89848609D02*
X168827693Y-89943847D01*
X168827693Y-89943847D02*
X168827693Y-90181942D01*
X168827693Y-90181942D02*
X168780074Y-90277180D01*
X168780074Y-90277180D02*
X168732455Y-90324800D01*
X168732455Y-90324800D02*
X168637217Y-90372419D01*
X168637217Y-90372419D02*
X168399122Y-90372419D01*
X168399122Y-90372419D02*
X168303884Y-90324800D01*
X168303884Y-90324800D02*
X168256265Y-90277180D01*
X190280074Y-89372419D02*
X189803884Y-89372419D01*
X189803884Y-89372419D02*
X189756265Y-89848609D01*
X189756265Y-89848609D02*
X189803884Y-89800990D01*
X189803884Y-89800990D02*
X189899122Y-89753371D01*
X189899122Y-89753371D02*
X190137217Y-89753371D01*
X190137217Y-89753371D02*
X190232455Y-89800990D01*
X190232455Y-89800990D02*
X190280074Y-89848609D01*
X190280074Y-89848609D02*
X190327693Y-89943847D01*
X190327693Y-89943847D02*
X190327693Y-90181942D01*
X190327693Y-90181942D02*
X190280074Y-90277180D01*
X190280074Y-90277180D02*
X190232455Y-90324800D01*
X190232455Y-90324800D02*
X190137217Y-90372419D01*
X190137217Y-90372419D02*
X189899122Y-90372419D01*
X189899122Y-90372419D02*
X189803884Y-90324800D01*
X189803884Y-90324800D02*
X189756265Y-90277180D01*
X147232455Y-82205752D02*
X147232455Y-82872419D01*
X146994360Y-81824800D02*
X146756265Y-82539085D01*
X146756265Y-82539085D02*
X147375312Y-82539085D01*
X182446741Y-89800990D02*
X182351503Y-89753371D01*
X182351503Y-89753371D02*
X182303884Y-89705752D01*
X182303884Y-89705752D02*
X182256265Y-89610514D01*
X182256265Y-89610514D02*
X182256265Y-89562895D01*
X182256265Y-89562895D02*
X182303884Y-89467657D01*
X182303884Y-89467657D02*
X182351503Y-89420038D01*
X182351503Y-89420038D02*
X182446741Y-89372419D01*
X182446741Y-89372419D02*
X182637217Y-89372419D01*
X182637217Y-89372419D02*
X182732455Y-89420038D01*
X182732455Y-89420038D02*
X182780074Y-89467657D01*
X182780074Y-89467657D02*
X182827693Y-89562895D01*
X182827693Y-89562895D02*
X182827693Y-89610514D01*
X182827693Y-89610514D02*
X182780074Y-89705752D01*
X182780074Y-89705752D02*
X182732455Y-89753371D01*
X182732455Y-89753371D02*
X182637217Y-89800990D01*
X182637217Y-89800990D02*
X182446741Y-89800990D01*
X182446741Y-89800990D02*
X182351503Y-89848609D01*
X182351503Y-89848609D02*
X182303884Y-89896228D01*
X182303884Y-89896228D02*
X182256265Y-89991466D01*
X182256265Y-89991466D02*
X182256265Y-90181942D01*
X182256265Y-90181942D02*
X182303884Y-90277180D01*
X182303884Y-90277180D02*
X182351503Y-90324800D01*
X182351503Y-90324800D02*
X182446741Y-90372419D01*
X182446741Y-90372419D02*
X182637217Y-90372419D01*
X182637217Y-90372419D02*
X182732455Y-90324800D01*
X182732455Y-90324800D02*
X182780074Y-90277180D01*
X182780074Y-90277180D02*
X182827693Y-90181942D01*
X182827693Y-90181942D02*
X182827693Y-89991466D01*
X182827693Y-89991466D02*
X182780074Y-89896228D01*
X182780074Y-89896228D02*
X182732455Y-89848609D01*
X182732455Y-89848609D02*
X182637217Y-89800990D01*
X139446741Y-89800990D02*
X139351503Y-89753371D01*
X139351503Y-89753371D02*
X139303884Y-89705752D01*
X139303884Y-89705752D02*
X139256265Y-89610514D01*
X139256265Y-89610514D02*
X139256265Y-89562895D01*
X139256265Y-89562895D02*
X139303884Y-89467657D01*
X139303884Y-89467657D02*
X139351503Y-89420038D01*
X139351503Y-89420038D02*
X139446741Y-89372419D01*
X139446741Y-89372419D02*
X139637217Y-89372419D01*
X139637217Y-89372419D02*
X139732455Y-89420038D01*
X139732455Y-89420038D02*
X139780074Y-89467657D01*
X139780074Y-89467657D02*
X139827693Y-89562895D01*
X139827693Y-89562895D02*
X139827693Y-89610514D01*
X139827693Y-89610514D02*
X139780074Y-89705752D01*
X139780074Y-89705752D02*
X139732455Y-89753371D01*
X139732455Y-89753371D02*
X139637217Y-89800990D01*
X139637217Y-89800990D02*
X139446741Y-89800990D01*
X139446741Y-89800990D02*
X139351503Y-89848609D01*
X139351503Y-89848609D02*
X139303884Y-89896228D01*
X139303884Y-89896228D02*
X139256265Y-89991466D01*
X139256265Y-89991466D02*
X139256265Y-90181942D01*
X139256265Y-90181942D02*
X139303884Y-90277180D01*
X139303884Y-90277180D02*
X139351503Y-90324800D01*
X139351503Y-90324800D02*
X139446741Y-90372419D01*
X139446741Y-90372419D02*
X139637217Y-90372419D01*
X139637217Y-90372419D02*
X139732455Y-90324800D01*
X139732455Y-90324800D02*
X139780074Y-90277180D01*
X139780074Y-90277180D02*
X139827693Y-90181942D01*
X139827693Y-90181942D02*
X139827693Y-89991466D01*
X139827693Y-89991466D02*
X139780074Y-89896228D01*
X139780074Y-89896228D02*
X139732455Y-89848609D01*
X139732455Y-89848609D02*
X139637217Y-89800990D01*
X147280074Y-89372419D02*
X146803884Y-89372419D01*
X146803884Y-89372419D02*
X146756265Y-89848609D01*
X146756265Y-89848609D02*
X146803884Y-89800990D01*
X146803884Y-89800990D02*
X146899122Y-89753371D01*
X146899122Y-89753371D02*
X147137217Y-89753371D01*
X147137217Y-89753371D02*
X147232455Y-89800990D01*
X147232455Y-89800990D02*
X147280074Y-89848609D01*
X147280074Y-89848609D02*
X147327693Y-89943847D01*
X147327693Y-89943847D02*
X147327693Y-90181942D01*
X147327693Y-90181942D02*
X147280074Y-90277180D01*
X147280074Y-90277180D02*
X147232455Y-90324800D01*
X147232455Y-90324800D02*
X147137217Y-90372419D01*
X147137217Y-90372419D02*
X146899122Y-90372419D01*
X146899122Y-90372419D02*
X146803884Y-90324800D01*
X146803884Y-90324800D02*
X146756265Y-90277180D01*
X160946741Y-89800990D02*
X160851503Y-89753371D01*
X160851503Y-89753371D02*
X160803884Y-89705752D01*
X160803884Y-89705752D02*
X160756265Y-89610514D01*
X160756265Y-89610514D02*
X160756265Y-89562895D01*
X160756265Y-89562895D02*
X160803884Y-89467657D01*
X160803884Y-89467657D02*
X160851503Y-89420038D01*
X160851503Y-89420038D02*
X160946741Y-89372419D01*
X160946741Y-89372419D02*
X161137217Y-89372419D01*
X161137217Y-89372419D02*
X161232455Y-89420038D01*
X161232455Y-89420038D02*
X161280074Y-89467657D01*
X161280074Y-89467657D02*
X161327693Y-89562895D01*
X161327693Y-89562895D02*
X161327693Y-89610514D01*
X161327693Y-89610514D02*
X161280074Y-89705752D01*
X161280074Y-89705752D02*
X161232455Y-89753371D01*
X161232455Y-89753371D02*
X161137217Y-89800990D01*
X161137217Y-89800990D02*
X160946741Y-89800990D01*
X160946741Y-89800990D02*
X160851503Y-89848609D01*
X160851503Y-89848609D02*
X160803884Y-89896228D01*
X160803884Y-89896228D02*
X160756265Y-89991466D01*
X160756265Y-89991466D02*
X160756265Y-90181942D01*
X160756265Y-90181942D02*
X160803884Y-90277180D01*
X160803884Y-90277180D02*
X160851503Y-90324800D01*
X160851503Y-90324800D02*
X160946741Y-90372419D01*
X160946741Y-90372419D02*
X161137217Y-90372419D01*
X161137217Y-90372419D02*
X161232455Y-90324800D01*
X161232455Y-90324800D02*
X161280074Y-90277180D01*
X161280074Y-90277180D02*
X161327693Y-90181942D01*
X161327693Y-90181942D02*
X161327693Y-89991466D01*
X161327693Y-89991466D02*
X161280074Y-89896228D01*
X161280074Y-89896228D02*
X161232455Y-89848609D01*
X161232455Y-89848609D02*
X161137217Y-89800990D01*
X125780074Y-89372419D02*
X125303884Y-89372419D01*
X125303884Y-89372419D02*
X125256265Y-89848609D01*
X125256265Y-89848609D02*
X125303884Y-89800990D01*
X125303884Y-89800990D02*
X125399122Y-89753371D01*
X125399122Y-89753371D02*
X125637217Y-89753371D01*
X125637217Y-89753371D02*
X125732455Y-89800990D01*
X125732455Y-89800990D02*
X125780074Y-89848609D01*
X125780074Y-89848609D02*
X125827693Y-89943847D01*
X125827693Y-89943847D02*
X125827693Y-90181942D01*
X125827693Y-90181942D02*
X125780074Y-90277180D01*
X125780074Y-90277180D02*
X125732455Y-90324800D01*
X125732455Y-90324800D02*
X125637217Y-90372419D01*
X125637217Y-90372419D02*
X125399122Y-90372419D01*
X125399122Y-90372419D02*
X125303884Y-90324800D01*
X125303884Y-90324800D02*
X125256265Y-90277180D01*
X168732455Y-82205752D02*
X168732455Y-82872419D01*
X168494360Y-81824800D02*
X168256265Y-82539085D01*
X168256265Y-82539085D02*
X168875312Y-82539085D01*
X174803884Y-88872419D02*
X174803884Y-87872419D01*
X174803884Y-87872419D02*
X175137217Y-88586704D01*
X175137217Y-88586704D02*
X175470550Y-87872419D01*
X175470550Y-87872419D02*
X175470550Y-88872419D01*
X175899122Y-87967657D02*
X175946741Y-87920038D01*
X175946741Y-87920038D02*
X176041979Y-87872419D01*
X176041979Y-87872419D02*
X176280074Y-87872419D01*
X176280074Y-87872419D02*
X176375312Y-87920038D01*
X176375312Y-87920038D02*
X176422931Y-87967657D01*
X176422931Y-87967657D02*
X176470550Y-88062895D01*
X176470550Y-88062895D02*
X176470550Y-88158133D01*
X176470550Y-88158133D02*
X176422931Y-88300990D01*
X176422931Y-88300990D02*
X175851503Y-88872419D01*
X175851503Y-88872419D02*
X176470550Y-88872419D01*
D11*
X182054510Y-120470996D02*
X182054510Y-118970996D01*
X182054510Y-119542425D02*
X182197368Y-119470996D01*
X182197368Y-119470996D02*
X182483082Y-119470996D01*
X182483082Y-119470996D02*
X182625939Y-119542425D01*
X182625939Y-119542425D02*
X182697368Y-119613853D01*
X182697368Y-119613853D02*
X182768796Y-119756710D01*
X182768796Y-119756710D02*
X182768796Y-120185282D01*
X182768796Y-120185282D02*
X182697368Y-120328139D01*
X182697368Y-120328139D02*
X182625939Y-120399568D01*
X182625939Y-120399568D02*
X182483082Y-120470996D01*
X182483082Y-120470996D02*
X182197368Y-120470996D01*
X182197368Y-120470996D02*
X182054510Y-120399568D01*
X183411653Y-120470996D02*
X183411653Y-119470996D01*
X183411653Y-118970996D02*
X183340225Y-119042425D01*
X183340225Y-119042425D02*
X183411653Y-119113853D01*
X183411653Y-119113853D02*
X183483082Y-119042425D01*
X183483082Y-119042425D02*
X183411653Y-118970996D01*
X183411653Y-118970996D02*
X183411653Y-119113853D01*
X184125939Y-119470996D02*
X184125939Y-120470996D01*
X184125939Y-119613853D02*
X184197368Y-119542425D01*
X184197368Y-119542425D02*
X184340225Y-119470996D01*
X184340225Y-119470996D02*
X184554511Y-119470996D01*
X184554511Y-119470996D02*
X184697368Y-119542425D01*
X184697368Y-119542425D02*
X184768797Y-119685282D01*
X184768797Y-119685282D02*
X184768797Y-120470996D01*
X186340225Y-120328139D02*
X186268797Y-120399568D01*
X186268797Y-120399568D02*
X186054511Y-120470996D01*
X186054511Y-120470996D02*
X185911654Y-120470996D01*
X185911654Y-120470996D02*
X185697368Y-120399568D01*
X185697368Y-120399568D02*
X185554511Y-120256710D01*
X185554511Y-120256710D02*
X185483082Y-120113853D01*
X185483082Y-120113853D02*
X185411654Y-119828139D01*
X185411654Y-119828139D02*
X185411654Y-119613853D01*
X185411654Y-119613853D02*
X185483082Y-119328139D01*
X185483082Y-119328139D02*
X185554511Y-119185282D01*
X185554511Y-119185282D02*
X185697368Y-119042425D01*
X185697368Y-119042425D02*
X185911654Y-118970996D01*
X185911654Y-118970996D02*
X186054511Y-118970996D01*
X186054511Y-118970996D02*
X186268797Y-119042425D01*
X186268797Y-119042425D02*
X186340225Y-119113853D01*
X187197368Y-120470996D02*
X187054511Y-120399568D01*
X187054511Y-120399568D02*
X186983082Y-120256710D01*
X186983082Y-120256710D02*
X186983082Y-118970996D01*
X187983082Y-120470996D02*
X187840225Y-120399568D01*
X187840225Y-120399568D02*
X187768796Y-120328139D01*
X187768796Y-120328139D02*
X187697368Y-120185282D01*
X187697368Y-120185282D02*
X187697368Y-119756710D01*
X187697368Y-119756710D02*
X187768796Y-119613853D01*
X187768796Y-119613853D02*
X187840225Y-119542425D01*
X187840225Y-119542425D02*
X187983082Y-119470996D01*
X187983082Y-119470996D02*
X188197368Y-119470996D01*
X188197368Y-119470996D02*
X188340225Y-119542425D01*
X188340225Y-119542425D02*
X188411654Y-119613853D01*
X188411654Y-119613853D02*
X188483082Y-119756710D01*
X188483082Y-119756710D02*
X188483082Y-120185282D01*
X188483082Y-120185282D02*
X188411654Y-120328139D01*
X188411654Y-120328139D02*
X188340225Y-120399568D01*
X188340225Y-120399568D02*
X188197368Y-120470996D01*
X188197368Y-120470996D02*
X187983082Y-120470996D01*
X189768797Y-120399568D02*
X189625939Y-120470996D01*
X189625939Y-120470996D02*
X189340225Y-120470996D01*
X189340225Y-120470996D02*
X189197368Y-120399568D01*
X189197368Y-120399568D02*
X189125939Y-120328139D01*
X189125939Y-120328139D02*
X189054511Y-120185282D01*
X189054511Y-120185282D02*
X189054511Y-119756710D01*
X189054511Y-119756710D02*
X189125939Y-119613853D01*
X189125939Y-119613853D02*
X189197368Y-119542425D01*
X189197368Y-119542425D02*
X189340225Y-119470996D01*
X189340225Y-119470996D02*
X189625939Y-119470996D01*
X189625939Y-119470996D02*
X189768797Y-119542425D01*
X190411653Y-120470996D02*
X190411653Y-118970996D01*
X190554511Y-119899568D02*
X190983082Y-120470996D01*
X190983082Y-119470996D02*
X190411653Y-120042425D01*
X192625939Y-119470996D02*
X192983082Y-120470996D01*
X192983082Y-120470996D02*
X193340225Y-119470996D01*
X194697368Y-120470996D02*
X193840225Y-120470996D01*
X194268796Y-120470996D02*
X194268796Y-118970996D01*
X194268796Y-118970996D02*
X194125939Y-119185282D01*
X194125939Y-119185282D02*
X193983082Y-119328139D01*
X193983082Y-119328139D02*
X193840225Y-119399568D01*
X195340224Y-120328139D02*
X195411653Y-120399568D01*
X195411653Y-120399568D02*
X195340224Y-120470996D01*
X195340224Y-120470996D02*
X195268796Y-120399568D01*
X195268796Y-120399568D02*
X195340224Y-120328139D01*
X195340224Y-120328139D02*
X195340224Y-120470996D01*
X196340225Y-118970996D02*
X196483082Y-118970996D01*
X196483082Y-118970996D02*
X196625939Y-119042425D01*
X196625939Y-119042425D02*
X196697368Y-119113853D01*
X196697368Y-119113853D02*
X196768796Y-119256710D01*
X196768796Y-119256710D02*
X196840225Y-119542425D01*
X196840225Y-119542425D02*
X196840225Y-119899568D01*
X196840225Y-119899568D02*
X196768796Y-120185282D01*
X196768796Y-120185282D02*
X196697368Y-120328139D01*
X196697368Y-120328139D02*
X196625939Y-120399568D01*
X196625939Y-120399568D02*
X196483082Y-120470996D01*
X196483082Y-120470996D02*
X196340225Y-120470996D01*
X196340225Y-120470996D02*
X196197368Y-120399568D01*
X196197368Y-120399568D02*
X196125939Y-120328139D01*
X196125939Y-120328139D02*
X196054510Y-120185282D01*
X196054510Y-120185282D02*
X195983082Y-119899568D01*
X195983082Y-119899568D02*
X195983082Y-119542425D01*
X195983082Y-119542425D02*
X196054510Y-119256710D01*
X196054510Y-119256710D02*
X196125939Y-119113853D01*
X196125939Y-119113853D02*
X196197368Y-119042425D01*
X196197368Y-119042425D02*
X196340225Y-118970996D01*
X197483081Y-120328139D02*
X197554510Y-120399568D01*
X197554510Y-120399568D02*
X197483081Y-120470996D01*
X197483081Y-120470996D02*
X197411653Y-120399568D01*
X197411653Y-120399568D02*
X197483081Y-120328139D01*
X197483081Y-120328139D02*
X197483081Y-120470996D01*
X198983082Y-120470996D02*
X198125939Y-120470996D01*
X198554510Y-120470996D02*
X198554510Y-118970996D01*
X198554510Y-118970996D02*
X198411653Y-119185282D01*
X198411653Y-119185282D02*
X198268796Y-119328139D01*
X198268796Y-119328139D02*
X198125939Y-119399568D01*
X182054510Y-122885912D02*
X182054510Y-121385912D01*
X182054510Y-121385912D02*
X182411653Y-121385912D01*
X182411653Y-121385912D02*
X182625939Y-121457341D01*
X182625939Y-121457341D02*
X182768796Y-121600198D01*
X182768796Y-121600198D02*
X182840225Y-121743055D01*
X182840225Y-121743055D02*
X182911653Y-122028769D01*
X182911653Y-122028769D02*
X182911653Y-122243055D01*
X182911653Y-122243055D02*
X182840225Y-122528769D01*
X182840225Y-122528769D02*
X182768796Y-122671626D01*
X182768796Y-122671626D02*
X182625939Y-122814484D01*
X182625939Y-122814484D02*
X182411653Y-122885912D01*
X182411653Y-122885912D02*
X182054510Y-122885912D01*
X184197368Y-122885912D02*
X184197368Y-122100198D01*
X184197368Y-122100198D02*
X184125939Y-121957341D01*
X184125939Y-121957341D02*
X183983082Y-121885912D01*
X183983082Y-121885912D02*
X183697368Y-121885912D01*
X183697368Y-121885912D02*
X183554510Y-121957341D01*
X184197368Y-122814484D02*
X184054510Y-122885912D01*
X184054510Y-122885912D02*
X183697368Y-122885912D01*
X183697368Y-122885912D02*
X183554510Y-122814484D01*
X183554510Y-122814484D02*
X183483082Y-122671626D01*
X183483082Y-122671626D02*
X183483082Y-122528769D01*
X183483082Y-122528769D02*
X183554510Y-122385912D01*
X183554510Y-122385912D02*
X183697368Y-122314484D01*
X183697368Y-122314484D02*
X184054510Y-122314484D01*
X184054510Y-122314484D02*
X184197368Y-122243055D01*
X184911653Y-121885912D02*
X184911653Y-122885912D01*
X184911653Y-122028769D02*
X184983082Y-121957341D01*
X184983082Y-121957341D02*
X185125939Y-121885912D01*
X185125939Y-121885912D02*
X185340225Y-121885912D01*
X185340225Y-121885912D02*
X185483082Y-121957341D01*
X185483082Y-121957341D02*
X185554511Y-122100198D01*
X185554511Y-122100198D02*
X185554511Y-122885912D01*
X186268796Y-122885912D02*
X186268796Y-121885912D01*
X186268796Y-121385912D02*
X186197368Y-121457341D01*
X186197368Y-121457341D02*
X186268796Y-121528769D01*
X186268796Y-121528769D02*
X186340225Y-121457341D01*
X186340225Y-121457341D02*
X186268796Y-121385912D01*
X186268796Y-121385912D02*
X186268796Y-121528769D01*
X187554511Y-122814484D02*
X187411654Y-122885912D01*
X187411654Y-122885912D02*
X187125940Y-122885912D01*
X187125940Y-122885912D02*
X186983082Y-122814484D01*
X186983082Y-122814484D02*
X186911654Y-122671626D01*
X186911654Y-122671626D02*
X186911654Y-122100198D01*
X186911654Y-122100198D02*
X186983082Y-121957341D01*
X186983082Y-121957341D02*
X187125940Y-121885912D01*
X187125940Y-121885912D02*
X187411654Y-121885912D01*
X187411654Y-121885912D02*
X187554511Y-121957341D01*
X187554511Y-121957341D02*
X187625940Y-122100198D01*
X187625940Y-122100198D02*
X187625940Y-122243055D01*
X187625940Y-122243055D02*
X186911654Y-122385912D01*
X188483082Y-122885912D02*
X188340225Y-122814484D01*
X188340225Y-122814484D02*
X188268796Y-122671626D01*
X188268796Y-122671626D02*
X188268796Y-121385912D01*
X191054510Y-122743055D02*
X190983082Y-122814484D01*
X190983082Y-122814484D02*
X190768796Y-122885912D01*
X190768796Y-122885912D02*
X190625939Y-122885912D01*
X190625939Y-122885912D02*
X190411653Y-122814484D01*
X190411653Y-122814484D02*
X190268796Y-122671626D01*
X190268796Y-122671626D02*
X190197367Y-122528769D01*
X190197367Y-122528769D02*
X190125939Y-122243055D01*
X190125939Y-122243055D02*
X190125939Y-122028769D01*
X190125939Y-122028769D02*
X190197367Y-121743055D01*
X190197367Y-121743055D02*
X190268796Y-121600198D01*
X190268796Y-121600198D02*
X190411653Y-121457341D01*
X190411653Y-121457341D02*
X190625939Y-121385912D01*
X190625939Y-121385912D02*
X190768796Y-121385912D01*
X190768796Y-121385912D02*
X190983082Y-121457341D01*
X190983082Y-121457341D02*
X191054510Y-121528769D01*
X191911653Y-122885912D02*
X191768796Y-122814484D01*
X191768796Y-122814484D02*
X191697367Y-122743055D01*
X191697367Y-122743055D02*
X191625939Y-122600198D01*
X191625939Y-122600198D02*
X191625939Y-122171626D01*
X191625939Y-122171626D02*
X191697367Y-122028769D01*
X191697367Y-122028769D02*
X191768796Y-121957341D01*
X191768796Y-121957341D02*
X191911653Y-121885912D01*
X191911653Y-121885912D02*
X192125939Y-121885912D01*
X192125939Y-121885912D02*
X192268796Y-121957341D01*
X192268796Y-121957341D02*
X192340225Y-122028769D01*
X192340225Y-122028769D02*
X192411653Y-122171626D01*
X192411653Y-122171626D02*
X192411653Y-122600198D01*
X192411653Y-122600198D02*
X192340225Y-122743055D01*
X192340225Y-122743055D02*
X192268796Y-122814484D01*
X192268796Y-122814484D02*
X192125939Y-122885912D01*
X192125939Y-122885912D02*
X191911653Y-122885912D01*
X193268796Y-122885912D02*
X193125939Y-122814484D01*
X193125939Y-122814484D02*
X193054510Y-122671626D01*
X193054510Y-122671626D02*
X193054510Y-121385912D01*
X194054510Y-122885912D02*
X193911653Y-122814484D01*
X193911653Y-122814484D02*
X193840224Y-122743055D01*
X193840224Y-122743055D02*
X193768796Y-122600198D01*
X193768796Y-122600198D02*
X193768796Y-122171626D01*
X193768796Y-122171626D02*
X193840224Y-122028769D01*
X193840224Y-122028769D02*
X193911653Y-121957341D01*
X193911653Y-121957341D02*
X194054510Y-121885912D01*
X194054510Y-121885912D02*
X194268796Y-121885912D01*
X194268796Y-121885912D02*
X194411653Y-121957341D01*
X194411653Y-121957341D02*
X194483082Y-122028769D01*
X194483082Y-122028769D02*
X194554510Y-122171626D01*
X194554510Y-122171626D02*
X194554510Y-122600198D01*
X194554510Y-122600198D02*
X194483082Y-122743055D01*
X194483082Y-122743055D02*
X194411653Y-122814484D01*
X194411653Y-122814484D02*
X194268796Y-122885912D01*
X194268796Y-122885912D02*
X194054510Y-122885912D01*
X195197367Y-121885912D02*
X195197367Y-122885912D01*
X195197367Y-122028769D02*
X195268796Y-121957341D01*
X195268796Y-121957341D02*
X195411653Y-121885912D01*
X195411653Y-121885912D02*
X195625939Y-121885912D01*
X195625939Y-121885912D02*
X195768796Y-121957341D01*
X195768796Y-121957341D02*
X195840225Y-122100198D01*
X195840225Y-122100198D02*
X195840225Y-122885912D01*
X182054510Y-125300828D02*
X182054510Y-123800828D01*
X182697368Y-125300828D02*
X182697368Y-124515114D01*
X182697368Y-124515114D02*
X182625939Y-124372257D01*
X182625939Y-124372257D02*
X182483082Y-124300828D01*
X182483082Y-124300828D02*
X182268796Y-124300828D01*
X182268796Y-124300828D02*
X182125939Y-124372257D01*
X182125939Y-124372257D02*
X182054510Y-124443685D01*
X183983082Y-125229400D02*
X183840225Y-125300828D01*
X183840225Y-125300828D02*
X183554511Y-125300828D01*
X183554511Y-125300828D02*
X183411653Y-125229400D01*
X183411653Y-125229400D02*
X183340225Y-125086542D01*
X183340225Y-125086542D02*
X183340225Y-124515114D01*
X183340225Y-124515114D02*
X183411653Y-124372257D01*
X183411653Y-124372257D02*
X183554511Y-124300828D01*
X183554511Y-124300828D02*
X183840225Y-124300828D01*
X183840225Y-124300828D02*
X183983082Y-124372257D01*
X183983082Y-124372257D02*
X184054511Y-124515114D01*
X184054511Y-124515114D02*
X184054511Y-124657971D01*
X184054511Y-124657971D02*
X183340225Y-124800828D01*
X184911653Y-125300828D02*
X184768796Y-125229400D01*
X184768796Y-125229400D02*
X184697367Y-125086542D01*
X184697367Y-125086542D02*
X184697367Y-123800828D01*
X186125939Y-125300828D02*
X186125939Y-123800828D01*
X186125939Y-125229400D02*
X185983081Y-125300828D01*
X185983081Y-125300828D02*
X185697367Y-125300828D01*
X185697367Y-125300828D02*
X185554510Y-125229400D01*
X185554510Y-125229400D02*
X185483081Y-125157971D01*
X185483081Y-125157971D02*
X185411653Y-125015114D01*
X185411653Y-125015114D02*
X185411653Y-124586542D01*
X185411653Y-124586542D02*
X185483081Y-124443685D01*
X185483081Y-124443685D02*
X185554510Y-124372257D01*
X185554510Y-124372257D02*
X185697367Y-124300828D01*
X185697367Y-124300828D02*
X185983081Y-124300828D01*
X185983081Y-124300828D02*
X186125939Y-124372257D01*
X187411653Y-125229400D02*
X187268796Y-125300828D01*
X187268796Y-125300828D02*
X186983082Y-125300828D01*
X186983082Y-125300828D02*
X186840224Y-125229400D01*
X186840224Y-125229400D02*
X186768796Y-125086542D01*
X186768796Y-125086542D02*
X186768796Y-124515114D01*
X186768796Y-124515114D02*
X186840224Y-124372257D01*
X186840224Y-124372257D02*
X186983082Y-124300828D01*
X186983082Y-124300828D02*
X187268796Y-124300828D01*
X187268796Y-124300828D02*
X187411653Y-124372257D01*
X187411653Y-124372257D02*
X187483082Y-124515114D01*
X187483082Y-124515114D02*
X187483082Y-124657971D01*
X187483082Y-124657971D02*
X186768796Y-124800828D01*
X188125938Y-125300828D02*
X188125938Y-124300828D01*
X188125938Y-124586542D02*
X188197367Y-124443685D01*
X188197367Y-124443685D02*
X188268796Y-124372257D01*
X188268796Y-124372257D02*
X188411653Y-124300828D01*
X188411653Y-124300828D02*
X188554510Y-124300828D01*
X189054509Y-125157971D02*
X189125938Y-125229400D01*
X189125938Y-125229400D02*
X189054509Y-125300828D01*
X189054509Y-125300828D02*
X188983081Y-125229400D01*
X188983081Y-125229400D02*
X189054509Y-125157971D01*
X189054509Y-125157971D02*
X189054509Y-125300828D01*
X190411653Y-124300828D02*
X190411653Y-125300828D01*
X189768795Y-124300828D02*
X189768795Y-125086542D01*
X189768795Y-125086542D02*
X189840224Y-125229400D01*
X189840224Y-125229400D02*
X189983081Y-125300828D01*
X189983081Y-125300828D02*
X190197367Y-125300828D01*
X190197367Y-125300828D02*
X190340224Y-125229400D01*
X190340224Y-125229400D02*
X190411653Y-125157971D01*
X191125938Y-125300828D02*
X191125938Y-123800828D01*
X191268796Y-124729400D02*
X191697367Y-125300828D01*
X191697367Y-124300828D02*
X191125938Y-124872257D01*
D10*
X161327693Y-82872419D02*
X160756265Y-82872419D01*
X161041979Y-82872419D02*
X161041979Y-81872419D01*
X161041979Y-81872419D02*
X160946741Y-82015276D01*
X160946741Y-82015276D02*
X160851503Y-82110514D01*
X160851503Y-82110514D02*
X160756265Y-82158133D01*
X118327693Y-82872419D02*
X117756265Y-82872419D01*
X118041979Y-82872419D02*
X118041979Y-81872419D01*
X118041979Y-81872419D02*
X117946741Y-82015276D01*
X117946741Y-82015276D02*
X117851503Y-82110514D01*
X117851503Y-82110514D02*
X117756265Y-82158133D01*
D12*
X163966598Y-105615985D02*
X163966598Y-106182725D01*
X163966598Y-106182725D02*
X163999935Y-106249400D01*
X163999935Y-106249400D02*
X164033273Y-106282738D01*
X164033273Y-106282738D02*
X164099948Y-106316075D01*
X164099948Y-106316075D02*
X164233299Y-106316075D01*
X164233299Y-106316075D02*
X164299974Y-106282738D01*
X164299974Y-106282738D02*
X164333311Y-106249400D01*
X164333311Y-106249400D02*
X164366649Y-106182725D01*
X164366649Y-106182725D02*
X164366649Y-105615985D01*
X165000064Y-105849348D02*
X165000064Y-106316075D01*
X164833376Y-105582648D02*
X164666688Y-106082712D01*
X164666688Y-106082712D02*
X165100077Y-106082712D01*
X196738095Y-133254819D02*
X196738095Y-132254819D01*
X196738095Y-132731009D02*
X197309523Y-132731009D01*
X197309523Y-133254819D02*
X197309523Y-132254819D01*
X197690476Y-132254819D02*
X198309523Y-132254819D01*
X198309523Y-132254819D02*
X197976190Y-132635771D01*
X197976190Y-132635771D02*
X198119047Y-132635771D01*
X198119047Y-132635771D02*
X198214285Y-132683390D01*
X198214285Y-132683390D02*
X198261904Y-132731009D01*
X198261904Y-132731009D02*
X198309523Y-132826247D01*
X198309523Y-132826247D02*
X198309523Y-133064342D01*
X198309523Y-133064342D02*
X198261904Y-133159580D01*
X198261904Y-133159580D02*
X198214285Y-133207200D01*
X198214285Y-133207200D02*
X198119047Y-133254819D01*
X198119047Y-133254819D02*
X197833333Y-133254819D01*
X197833333Y-133254819D02*
X197738095Y-133207200D01*
X197738095Y-133207200D02*
X197690476Y-133159580D01*
X115024819Y-86573333D02*
X115739104Y-86573333D01*
X115739104Y-86573333D02*
X115881961Y-86620952D01*
X115881961Y-86620952D02*
X115977200Y-86716190D01*
X115977200Y-86716190D02*
X116024819Y-86859047D01*
X116024819Y-86859047D02*
X116024819Y-86954285D01*
X116024819Y-85573333D02*
X116024819Y-86144761D01*
X116024819Y-85859047D02*
X115024819Y-85859047D01*
X115024819Y-85859047D02*
X115167676Y-85954285D01*
X115167676Y-85954285D02*
X115262914Y-86049523D01*
X115262914Y-86049523D02*
X115310533Y-86144761D01*
X158024819Y-86573333D02*
X158739104Y-86573333D01*
X158739104Y-86573333D02*
X158881961Y-86620952D01*
X158881961Y-86620952D02*
X158977200Y-86716190D01*
X158977200Y-86716190D02*
X159024819Y-86859047D01*
X159024819Y-86859047D02*
X159024819Y-86954285D01*
X158024819Y-86192380D02*
X158024819Y-85573333D01*
X158024819Y-85573333D02*
X158405771Y-85906666D01*
X158405771Y-85906666D02*
X158405771Y-85763809D01*
X158405771Y-85763809D02*
X158453390Y-85668571D01*
X158453390Y-85668571D02*
X158501009Y-85620952D01*
X158501009Y-85620952D02*
X158596247Y-85573333D01*
X158596247Y-85573333D02*
X158834342Y-85573333D01*
X158834342Y-85573333D02*
X158929580Y-85620952D01*
X158929580Y-85620952D02*
X158977200Y-85668571D01*
X158977200Y-85668571D02*
X159024819Y-85763809D01*
X159024819Y-85763809D02*
X159024819Y-86049523D01*
X159024819Y-86049523D02*
X158977200Y-86144761D01*
X158977200Y-86144761D02*
X158929580Y-86192380D01*
X196738095Y-87954819D02*
X196738095Y-86954819D01*
X196738095Y-87431009D02*
X197309523Y-87431009D01*
X197309523Y-87954819D02*
X197309523Y-86954819D01*
X197738095Y-87050057D02*
X197785714Y-87002438D01*
X197785714Y-87002438D02*
X197880952Y-86954819D01*
X197880952Y-86954819D02*
X198119047Y-86954819D01*
X198119047Y-86954819D02*
X198214285Y-87002438D01*
X198214285Y-87002438D02*
X198261904Y-87050057D01*
X198261904Y-87050057D02*
X198309523Y-87145295D01*
X198309523Y-87145295D02*
X198309523Y-87240533D01*
X198309523Y-87240533D02*
X198261904Y-87383390D01*
X198261904Y-87383390D02*
X197690476Y-87954819D01*
X197690476Y-87954819D02*
X198309523Y-87954819D01*
X120966598Y-105615985D02*
X120966598Y-106182725D01*
X120966598Y-106182725D02*
X120999935Y-106249400D01*
X120999935Y-106249400D02*
X121033273Y-106282738D01*
X121033273Y-106282738D02*
X121099948Y-106316075D01*
X121099948Y-106316075D02*
X121233299Y-106316075D01*
X121233299Y-106316075D02*
X121299974Y-106282738D01*
X121299974Y-106282738D02*
X121333311Y-106249400D01*
X121333311Y-106249400D02*
X121366649Y-106182725D01*
X121366649Y-106182725D02*
X121366649Y-105615985D01*
X122066739Y-106316075D02*
X121666688Y-106316075D01*
X121866714Y-106316075D02*
X121866714Y-105615985D01*
X121866714Y-105615985D02*
X121800038Y-105715998D01*
X121800038Y-105715998D02*
X121733363Y-105782673D01*
X121733363Y-105782673D02*
X121666688Y-105816011D01*
X195454819Y-95832857D02*
X194978628Y-96166190D01*
X195454819Y-96404285D02*
X194454819Y-96404285D01*
X194454819Y-96404285D02*
X194454819Y-96023333D01*
X194454819Y-96023333D02*
X194502438Y-95928095D01*
X194502438Y-95928095D02*
X194550057Y-95880476D01*
X194550057Y-95880476D02*
X194645295Y-95832857D01*
X194645295Y-95832857D02*
X194788152Y-95832857D01*
X194788152Y-95832857D02*
X194883390Y-95880476D01*
X194883390Y-95880476D02*
X194931009Y-95928095D01*
X194931009Y-95928095D02*
X194978628Y-96023333D01*
X194978628Y-96023333D02*
X194978628Y-96404285D01*
X194454819Y-95499523D02*
X194454819Y-94880476D01*
X194454819Y-94880476D02*
X194835771Y-95213809D01*
X194835771Y-95213809D02*
X194835771Y-95070952D01*
X194835771Y-95070952D02*
X194883390Y-94975714D01*
X194883390Y-94975714D02*
X194931009Y-94928095D01*
X194931009Y-94928095D02*
X195026247Y-94880476D01*
X195026247Y-94880476D02*
X195264342Y-94880476D01*
X195264342Y-94880476D02*
X195359580Y-94928095D01*
X195359580Y-94928095D02*
X195407200Y-94975714D01*
X195407200Y-94975714D02*
X195454819Y-95070952D01*
X195454819Y-95070952D02*
X195454819Y-95356666D01*
X195454819Y-95356666D02*
X195407200Y-95451904D01*
X195407200Y-95451904D02*
X195359580Y-95499523D01*
X194550057Y-94499523D02*
X194502438Y-94451904D01*
X194502438Y-94451904D02*
X194454819Y-94356666D01*
X194454819Y-94356666D02*
X194454819Y-94118571D01*
X194454819Y-94118571D02*
X194502438Y-94023333D01*
X194502438Y-94023333D02*
X194550057Y-93975714D01*
X194550057Y-93975714D02*
X194645295Y-93928095D01*
X194645295Y-93928095D02*
X194740533Y-93928095D01*
X194740533Y-93928095D02*
X194883390Y-93975714D01*
X194883390Y-93975714D02*
X195454819Y-94547142D01*
X195454819Y-94547142D02*
X195454819Y-93928095D01*
X137454819Y-95832857D02*
X136978628Y-96166190D01*
X137454819Y-96404285D02*
X136454819Y-96404285D01*
X136454819Y-96404285D02*
X136454819Y-96023333D01*
X136454819Y-96023333D02*
X136502438Y-95928095D01*
X136502438Y-95928095D02*
X136550057Y-95880476D01*
X136550057Y-95880476D02*
X136645295Y-95832857D01*
X136645295Y-95832857D02*
X136788152Y-95832857D01*
X136788152Y-95832857D02*
X136883390Y-95880476D01*
X136883390Y-95880476D02*
X136931009Y-95928095D01*
X136931009Y-95928095D02*
X136978628Y-96023333D01*
X136978628Y-96023333D02*
X136978628Y-96404285D01*
X137454819Y-94880476D02*
X137454819Y-95451904D01*
X137454819Y-95166190D02*
X136454819Y-95166190D01*
X136454819Y-95166190D02*
X136597676Y-95261428D01*
X136597676Y-95261428D02*
X136692914Y-95356666D01*
X136692914Y-95356666D02*
X136740533Y-95451904D01*
X136550057Y-94499523D02*
X136502438Y-94451904D01*
X136502438Y-94451904D02*
X136454819Y-94356666D01*
X136454819Y-94356666D02*
X136454819Y-94118571D01*
X136454819Y-94118571D02*
X136502438Y-94023333D01*
X136502438Y-94023333D02*
X136550057Y-93975714D01*
X136550057Y-93975714D02*
X136645295Y-93928095D01*
X136645295Y-93928095D02*
X136740533Y-93928095D01*
X136740533Y-93928095D02*
X136883390Y-93975714D01*
X136883390Y-93975714D02*
X137454819Y-94547142D01*
X137454819Y-94547142D02*
X137454819Y-93928095D01*
X174738095Y-86954819D02*
X174738095Y-85954819D01*
X174738095Y-86431009D02*
X175309523Y-86431009D01*
X175309523Y-86954819D02*
X175309523Y-85954819D01*
X176261904Y-85954819D02*
X175785714Y-85954819D01*
X175785714Y-85954819D02*
X175738095Y-86431009D01*
X175738095Y-86431009D02*
X175785714Y-86383390D01*
X175785714Y-86383390D02*
X175880952Y-86335771D01*
X175880952Y-86335771D02*
X176119047Y-86335771D01*
X176119047Y-86335771D02*
X176214285Y-86383390D01*
X176214285Y-86383390D02*
X176261904Y-86431009D01*
X176261904Y-86431009D02*
X176309523Y-86526247D01*
X176309523Y-86526247D02*
X176309523Y-86764342D01*
X176309523Y-86764342D02*
X176261904Y-86859580D01*
X176261904Y-86859580D02*
X176214285Y-86907200D01*
X176214285Y-86907200D02*
X176119047Y-86954819D01*
X176119047Y-86954819D02*
X175880952Y-86954819D01*
X175880952Y-86954819D02*
X175785714Y-86907200D01*
X175785714Y-86907200D02*
X175738095Y-86859580D01*
X134454819Y-95832857D02*
X133978628Y-96166190D01*
X134454819Y-96404285D02*
X133454819Y-96404285D01*
X133454819Y-96404285D02*
X133454819Y-96023333D01*
X133454819Y-96023333D02*
X133502438Y-95928095D01*
X133502438Y-95928095D02*
X133550057Y-95880476D01*
X133550057Y-95880476D02*
X133645295Y-95832857D01*
X133645295Y-95832857D02*
X133788152Y-95832857D01*
X133788152Y-95832857D02*
X133883390Y-95880476D01*
X133883390Y-95880476D02*
X133931009Y-95928095D01*
X133931009Y-95928095D02*
X133978628Y-96023333D01*
X133978628Y-96023333D02*
X133978628Y-96404285D01*
X134454819Y-94880476D02*
X134454819Y-95451904D01*
X134454819Y-95166190D02*
X133454819Y-95166190D01*
X133454819Y-95166190D02*
X133597676Y-95261428D01*
X133597676Y-95261428D02*
X133692914Y-95356666D01*
X133692914Y-95356666D02*
X133740533Y-95451904D01*
X134454819Y-93928095D02*
X134454819Y-94499523D01*
X134454819Y-94213809D02*
X133454819Y-94213809D01*
X133454819Y-94213809D02*
X133597676Y-94309047D01*
X133597676Y-94309047D02*
X133692914Y-94404285D01*
X133692914Y-94404285D02*
X133740533Y-94499523D01*
X128523333Y-128454819D02*
X128190000Y-127978628D01*
X127951905Y-128454819D02*
X127951905Y-127454819D01*
X127951905Y-127454819D02*
X128332857Y-127454819D01*
X128332857Y-127454819D02*
X128428095Y-127502438D01*
X128428095Y-127502438D02*
X128475714Y-127550057D01*
X128475714Y-127550057D02*
X128523333Y-127645295D01*
X128523333Y-127645295D02*
X128523333Y-127788152D01*
X128523333Y-127788152D02*
X128475714Y-127883390D01*
X128475714Y-127883390D02*
X128428095Y-127931009D01*
X128428095Y-127931009D02*
X128332857Y-127978628D01*
X128332857Y-127978628D02*
X127951905Y-127978628D01*
X128999524Y-128454819D02*
X129190000Y-128454819D01*
X129190000Y-128454819D02*
X129285238Y-128407200D01*
X129285238Y-128407200D02*
X129332857Y-128359580D01*
X129332857Y-128359580D02*
X129428095Y-128216723D01*
X129428095Y-128216723D02*
X129475714Y-128026247D01*
X129475714Y-128026247D02*
X129475714Y-127645295D01*
X129475714Y-127645295D02*
X129428095Y-127550057D01*
X129428095Y-127550057D02*
X129380476Y-127502438D01*
X129380476Y-127502438D02*
X129285238Y-127454819D01*
X129285238Y-127454819D02*
X129094762Y-127454819D01*
X129094762Y-127454819D02*
X128999524Y-127502438D01*
X128999524Y-127502438D02*
X128951905Y-127550057D01*
X128951905Y-127550057D02*
X128904286Y-127645295D01*
X128904286Y-127645295D02*
X128904286Y-127883390D01*
X128904286Y-127883390D02*
X128951905Y-127978628D01*
X128951905Y-127978628D02*
X128999524Y-128026247D01*
X128999524Y-128026247D02*
X129094762Y-128073866D01*
X129094762Y-128073866D02*
X129285238Y-128073866D01*
X129285238Y-128073866D02*
X129380476Y-128026247D01*
X129380476Y-128026247D02*
X129428095Y-127978628D01*
X129428095Y-127978628D02*
X129475714Y-127883390D01*
X131738095Y-87454819D02*
X131738095Y-86454819D01*
X131738095Y-86931009D02*
X132309523Y-86931009D01*
X132309523Y-87454819D02*
X132309523Y-86454819D01*
X133214285Y-86454819D02*
X133023809Y-86454819D01*
X133023809Y-86454819D02*
X132928571Y-86502438D01*
X132928571Y-86502438D02*
X132880952Y-86550057D01*
X132880952Y-86550057D02*
X132785714Y-86692914D01*
X132785714Y-86692914D02*
X132738095Y-86883390D01*
X132738095Y-86883390D02*
X132738095Y-87264342D01*
X132738095Y-87264342D02*
X132785714Y-87359580D01*
X132785714Y-87359580D02*
X132833333Y-87407200D01*
X132833333Y-87407200D02*
X132928571Y-87454819D01*
X132928571Y-87454819D02*
X133119047Y-87454819D01*
X133119047Y-87454819D02*
X133214285Y-87407200D01*
X133214285Y-87407200D02*
X133261904Y-87359580D01*
X133261904Y-87359580D02*
X133309523Y-87264342D01*
X133309523Y-87264342D02*
X133309523Y-87026247D01*
X133309523Y-87026247D02*
X133261904Y-86931009D01*
X133261904Y-86931009D02*
X133214285Y-86883390D01*
X133214285Y-86883390D02*
X133119047Y-86835771D01*
X133119047Y-86835771D02*
X132928571Y-86835771D01*
X132928571Y-86835771D02*
X132833333Y-86883390D01*
X132833333Y-86883390D02*
X132785714Y-86931009D01*
X132785714Y-86931009D02*
X132738095Y-87026247D01*
X167954819Y-95832857D02*
X167478628Y-96166190D01*
X167954819Y-96404285D02*
X166954819Y-96404285D01*
X166954819Y-96404285D02*
X166954819Y-96023333D01*
X166954819Y-96023333D02*
X167002438Y-95928095D01*
X167002438Y-95928095D02*
X167050057Y-95880476D01*
X167050057Y-95880476D02*
X167145295Y-95832857D01*
X167145295Y-95832857D02*
X167288152Y-95832857D01*
X167288152Y-95832857D02*
X167383390Y-95880476D01*
X167383390Y-95880476D02*
X167431009Y-95928095D01*
X167431009Y-95928095D02*
X167478628Y-96023333D01*
X167478628Y-96023333D02*
X167478628Y-96404285D01*
X167050057Y-95451904D02*
X167002438Y-95404285D01*
X167002438Y-95404285D02*
X166954819Y-95309047D01*
X166954819Y-95309047D02*
X166954819Y-95070952D01*
X166954819Y-95070952D02*
X167002438Y-94975714D01*
X167002438Y-94975714D02*
X167050057Y-94928095D01*
X167050057Y-94928095D02*
X167145295Y-94880476D01*
X167145295Y-94880476D02*
X167240533Y-94880476D01*
X167240533Y-94880476D02*
X167383390Y-94928095D01*
X167383390Y-94928095D02*
X167954819Y-95499523D01*
X167954819Y-95499523D02*
X167954819Y-94880476D01*
X166954819Y-94023333D02*
X166954819Y-94213809D01*
X166954819Y-94213809D02*
X167002438Y-94309047D01*
X167002438Y-94309047D02*
X167050057Y-94356666D01*
X167050057Y-94356666D02*
X167192914Y-94451904D01*
X167192914Y-94451904D02*
X167383390Y-94499523D01*
X167383390Y-94499523D02*
X167764342Y-94499523D01*
X167764342Y-94499523D02*
X167859580Y-94451904D01*
X167859580Y-94451904D02*
X167907200Y-94404285D01*
X167907200Y-94404285D02*
X167954819Y-94309047D01*
X167954819Y-94309047D02*
X167954819Y-94118571D01*
X167954819Y-94118571D02*
X167907200Y-94023333D01*
X167907200Y-94023333D02*
X167859580Y-93975714D01*
X167859580Y-93975714D02*
X167764342Y-93928095D01*
X167764342Y-93928095D02*
X167526247Y-93928095D01*
X167526247Y-93928095D02*
X167431009Y-93975714D01*
X167431009Y-93975714D02*
X167383390Y-94023333D01*
X167383390Y-94023333D02*
X167335771Y-94118571D01*
X167335771Y-94118571D02*
X167335771Y-94309047D01*
X167335771Y-94309047D02*
X167383390Y-94404285D01*
X167383390Y-94404285D02*
X167431009Y-94451904D01*
X167431009Y-94451904D02*
X167526247Y-94499523D01*
X170954819Y-95832857D02*
X170478628Y-96166190D01*
X170954819Y-96404285D02*
X169954819Y-96404285D01*
X169954819Y-96404285D02*
X169954819Y-96023333D01*
X169954819Y-96023333D02*
X170002438Y-95928095D01*
X170002438Y-95928095D02*
X170050057Y-95880476D01*
X170050057Y-95880476D02*
X170145295Y-95832857D01*
X170145295Y-95832857D02*
X170288152Y-95832857D01*
X170288152Y-95832857D02*
X170383390Y-95880476D01*
X170383390Y-95880476D02*
X170431009Y-95928095D01*
X170431009Y-95928095D02*
X170478628Y-96023333D01*
X170478628Y-96023333D02*
X170478628Y-96404285D01*
X170050057Y-95451904D02*
X170002438Y-95404285D01*
X170002438Y-95404285D02*
X169954819Y-95309047D01*
X169954819Y-95309047D02*
X169954819Y-95070952D01*
X169954819Y-95070952D02*
X170002438Y-94975714D01*
X170002438Y-94975714D02*
X170050057Y-94928095D01*
X170050057Y-94928095D02*
X170145295Y-94880476D01*
X170145295Y-94880476D02*
X170240533Y-94880476D01*
X170240533Y-94880476D02*
X170383390Y-94928095D01*
X170383390Y-94928095D02*
X170954819Y-95499523D01*
X170954819Y-95499523D02*
X170954819Y-94880476D01*
X169954819Y-93975714D02*
X169954819Y-94451904D01*
X169954819Y-94451904D02*
X170431009Y-94499523D01*
X170431009Y-94499523D02*
X170383390Y-94451904D01*
X170383390Y-94451904D02*
X170335771Y-94356666D01*
X170335771Y-94356666D02*
X170335771Y-94118571D01*
X170335771Y-94118571D02*
X170383390Y-94023333D01*
X170383390Y-94023333D02*
X170431009Y-93975714D01*
X170431009Y-93975714D02*
X170526247Y-93928095D01*
X170526247Y-93928095D02*
X170764342Y-93928095D01*
X170764342Y-93928095D02*
X170859580Y-93975714D01*
X170859580Y-93975714D02*
X170907200Y-94023333D01*
X170907200Y-94023333D02*
X170954819Y-94118571D01*
X170954819Y-94118571D02*
X170954819Y-94356666D01*
X170954819Y-94356666D02*
X170907200Y-94451904D01*
X170907200Y-94451904D02*
X170859580Y-94499523D01*
X121954819Y-95356666D02*
X121478628Y-95689999D01*
X121954819Y-95928094D02*
X120954819Y-95928094D01*
X120954819Y-95928094D02*
X120954819Y-95547142D01*
X120954819Y-95547142D02*
X121002438Y-95451904D01*
X121002438Y-95451904D02*
X121050057Y-95404285D01*
X121050057Y-95404285D02*
X121145295Y-95356666D01*
X121145295Y-95356666D02*
X121288152Y-95356666D01*
X121288152Y-95356666D02*
X121383390Y-95404285D01*
X121383390Y-95404285D02*
X121431009Y-95451904D01*
X121431009Y-95451904D02*
X121478628Y-95547142D01*
X121478628Y-95547142D02*
X121478628Y-95928094D01*
X121288152Y-94499523D02*
X121954819Y-94499523D01*
X120907200Y-94737618D02*
X121621485Y-94975713D01*
X121621485Y-94975713D02*
X121621485Y-94356666D01*
X124954819Y-95166666D02*
X124478628Y-95499999D01*
X124954819Y-95738094D02*
X123954819Y-95738094D01*
X123954819Y-95738094D02*
X123954819Y-95357142D01*
X123954819Y-95357142D02*
X124002438Y-95261904D01*
X124002438Y-95261904D02*
X124050057Y-95214285D01*
X124050057Y-95214285D02*
X124145295Y-95166666D01*
X124145295Y-95166666D02*
X124288152Y-95166666D01*
X124288152Y-95166666D02*
X124383390Y-95214285D01*
X124383390Y-95214285D02*
X124431009Y-95261904D01*
X124431009Y-95261904D02*
X124478628Y-95357142D01*
X124478628Y-95357142D02*
X124478628Y-95738094D01*
X124383390Y-94595237D02*
X124335771Y-94690475D01*
X124335771Y-94690475D02*
X124288152Y-94738094D01*
X124288152Y-94738094D02*
X124192914Y-94785713D01*
X124192914Y-94785713D02*
X124145295Y-94785713D01*
X124145295Y-94785713D02*
X124050057Y-94738094D01*
X124050057Y-94738094D02*
X124002438Y-94690475D01*
X124002438Y-94690475D02*
X123954819Y-94595237D01*
X123954819Y-94595237D02*
X123954819Y-94404761D01*
X123954819Y-94404761D02*
X124002438Y-94309523D01*
X124002438Y-94309523D02*
X124050057Y-94261904D01*
X124050057Y-94261904D02*
X124145295Y-94214285D01*
X124145295Y-94214285D02*
X124192914Y-94214285D01*
X124192914Y-94214285D02*
X124288152Y-94261904D01*
X124288152Y-94261904D02*
X124335771Y-94309523D01*
X124335771Y-94309523D02*
X124383390Y-94404761D01*
X124383390Y-94404761D02*
X124383390Y-94595237D01*
X124383390Y-94595237D02*
X124431009Y-94690475D01*
X124431009Y-94690475D02*
X124478628Y-94738094D01*
X124478628Y-94738094D02*
X124573866Y-94785713D01*
X124573866Y-94785713D02*
X124764342Y-94785713D01*
X124764342Y-94785713D02*
X124859580Y-94738094D01*
X124859580Y-94738094D02*
X124907200Y-94690475D01*
X124907200Y-94690475D02*
X124954819Y-94595237D01*
X124954819Y-94595237D02*
X124954819Y-94404761D01*
X124954819Y-94404761D02*
X124907200Y-94309523D01*
X124907200Y-94309523D02*
X124859580Y-94261904D01*
X124859580Y-94261904D02*
X124764342Y-94214285D01*
X124764342Y-94214285D02*
X124573866Y-94214285D01*
X124573866Y-94214285D02*
X124478628Y-94261904D01*
X124478628Y-94261904D02*
X124431009Y-94309523D01*
X124431009Y-94309523D02*
X124383390Y-94404761D01*
X186454819Y-95832857D02*
X185978628Y-96166190D01*
X186454819Y-96404285D02*
X185454819Y-96404285D01*
X185454819Y-96404285D02*
X185454819Y-96023333D01*
X185454819Y-96023333D02*
X185502438Y-95928095D01*
X185502438Y-95928095D02*
X185550057Y-95880476D01*
X185550057Y-95880476D02*
X185645295Y-95832857D01*
X185645295Y-95832857D02*
X185788152Y-95832857D01*
X185788152Y-95832857D02*
X185883390Y-95880476D01*
X185883390Y-95880476D02*
X185931009Y-95928095D01*
X185931009Y-95928095D02*
X185978628Y-96023333D01*
X185978628Y-96023333D02*
X185978628Y-96404285D01*
X185454819Y-95499523D02*
X185454819Y-94880476D01*
X185454819Y-94880476D02*
X185835771Y-95213809D01*
X185835771Y-95213809D02*
X185835771Y-95070952D01*
X185835771Y-95070952D02*
X185883390Y-94975714D01*
X185883390Y-94975714D02*
X185931009Y-94928095D01*
X185931009Y-94928095D02*
X186026247Y-94880476D01*
X186026247Y-94880476D02*
X186264342Y-94880476D01*
X186264342Y-94880476D02*
X186359580Y-94928095D01*
X186359580Y-94928095D02*
X186407200Y-94975714D01*
X186407200Y-94975714D02*
X186454819Y-95070952D01*
X186454819Y-95070952D02*
X186454819Y-95356666D01*
X186454819Y-95356666D02*
X186407200Y-95451904D01*
X186407200Y-95451904D02*
X186359580Y-95499523D01*
X185454819Y-94261428D02*
X185454819Y-94166190D01*
X185454819Y-94166190D02*
X185502438Y-94070952D01*
X185502438Y-94070952D02*
X185550057Y-94023333D01*
X185550057Y-94023333D02*
X185645295Y-93975714D01*
X185645295Y-93975714D02*
X185835771Y-93928095D01*
X185835771Y-93928095D02*
X186073866Y-93928095D01*
X186073866Y-93928095D02*
X186264342Y-93975714D01*
X186264342Y-93975714D02*
X186359580Y-94023333D01*
X186359580Y-94023333D02*
X186407200Y-94070952D01*
X186407200Y-94070952D02*
X186454819Y-94166190D01*
X186454819Y-94166190D02*
X186454819Y-94261428D01*
X186454819Y-94261428D02*
X186407200Y-94356666D01*
X186407200Y-94356666D02*
X186359580Y-94404285D01*
X186359580Y-94404285D02*
X186264342Y-94451904D01*
X186264342Y-94451904D02*
X186073866Y-94499523D01*
X186073866Y-94499523D02*
X185835771Y-94499523D01*
X185835771Y-94499523D02*
X185645295Y-94451904D01*
X185645295Y-94451904D02*
X185550057Y-94404285D01*
X185550057Y-94404285D02*
X185502438Y-94356666D01*
X185502438Y-94356666D02*
X185454819Y-94261428D01*
X152954819Y-128261904D02*
X153764342Y-128261904D01*
X153764342Y-128261904D02*
X153859580Y-128214285D01*
X153859580Y-128214285D02*
X153907200Y-128166666D01*
X153907200Y-128166666D02*
X153954819Y-128071428D01*
X153954819Y-128071428D02*
X153954819Y-127880952D01*
X153954819Y-127880952D02*
X153907200Y-127785714D01*
X153907200Y-127785714D02*
X153859580Y-127738095D01*
X153859580Y-127738095D02*
X153764342Y-127690476D01*
X153764342Y-127690476D02*
X152954819Y-127690476D01*
X152954819Y-127309523D02*
X152954819Y-126690476D01*
X152954819Y-126690476D02*
X153335771Y-127023809D01*
X153335771Y-127023809D02*
X153335771Y-126880952D01*
X153335771Y-126880952D02*
X153383390Y-126785714D01*
X153383390Y-126785714D02*
X153431009Y-126738095D01*
X153431009Y-126738095D02*
X153526247Y-126690476D01*
X153526247Y-126690476D02*
X153764342Y-126690476D01*
X153764342Y-126690476D02*
X153859580Y-126738095D01*
X153859580Y-126738095D02*
X153907200Y-126785714D01*
X153907200Y-126785714D02*
X153954819Y-126880952D01*
X153954819Y-126880952D02*
X153954819Y-127166666D01*
X153954819Y-127166666D02*
X153907200Y-127261904D01*
X153907200Y-127261904D02*
X153859580Y-127309523D01*
X112954819Y-95356666D02*
X112478628Y-95689999D01*
X112954819Y-95928094D02*
X111954819Y-95928094D01*
X111954819Y-95928094D02*
X111954819Y-95547142D01*
X111954819Y-95547142D02*
X112002438Y-95451904D01*
X112002438Y-95451904D02*
X112050057Y-95404285D01*
X112050057Y-95404285D02*
X112145295Y-95356666D01*
X112145295Y-95356666D02*
X112288152Y-95356666D01*
X112288152Y-95356666D02*
X112383390Y-95404285D01*
X112383390Y-95404285D02*
X112431009Y-95451904D01*
X112431009Y-95451904D02*
X112478628Y-95547142D01*
X112478628Y-95547142D02*
X112478628Y-95928094D01*
X112954819Y-94404285D02*
X112954819Y-94975713D01*
X112954819Y-94689999D02*
X111954819Y-94689999D01*
X111954819Y-94689999D02*
X112097676Y-94785237D01*
X112097676Y-94785237D02*
X112192914Y-94880475D01*
X112192914Y-94880475D02*
X112240533Y-94975713D01*
X152454819Y-95642857D02*
X151978628Y-95976190D01*
X152454819Y-96214285D02*
X151454819Y-96214285D01*
X151454819Y-96214285D02*
X151454819Y-95833333D01*
X151454819Y-95833333D02*
X151502438Y-95738095D01*
X151502438Y-95738095D02*
X151550057Y-95690476D01*
X151550057Y-95690476D02*
X151645295Y-95642857D01*
X151645295Y-95642857D02*
X151788152Y-95642857D01*
X151788152Y-95642857D02*
X151883390Y-95690476D01*
X151883390Y-95690476D02*
X151931009Y-95738095D01*
X151931009Y-95738095D02*
X151978628Y-95833333D01*
X151978628Y-95833333D02*
X151978628Y-96214285D01*
X152454819Y-94690476D02*
X152454819Y-95261904D01*
X152454819Y-94976190D02*
X151454819Y-94976190D01*
X151454819Y-94976190D02*
X151597676Y-95071428D01*
X151597676Y-95071428D02*
X151692914Y-95166666D01*
X151692914Y-95166666D02*
X151740533Y-95261904D01*
X151454819Y-93833333D02*
X151454819Y-94023809D01*
X151454819Y-94023809D02*
X151502438Y-94119047D01*
X151502438Y-94119047D02*
X151550057Y-94166666D01*
X151550057Y-94166666D02*
X151692914Y-94261904D01*
X151692914Y-94261904D02*
X151883390Y-94309523D01*
X151883390Y-94309523D02*
X152264342Y-94309523D01*
X152264342Y-94309523D02*
X152359580Y-94261904D01*
X152359580Y-94261904D02*
X152407200Y-94214285D01*
X152407200Y-94214285D02*
X152454819Y-94119047D01*
X152454819Y-94119047D02*
X152454819Y-93928571D01*
X152454819Y-93928571D02*
X152407200Y-93833333D01*
X152407200Y-93833333D02*
X152359580Y-93785714D01*
X152359580Y-93785714D02*
X152264342Y-93738095D01*
X152264342Y-93738095D02*
X152026247Y-93738095D01*
X152026247Y-93738095D02*
X151931009Y-93785714D01*
X151931009Y-93785714D02*
X151883390Y-93833333D01*
X151883390Y-93833333D02*
X151835771Y-93928571D01*
X151835771Y-93928571D02*
X151835771Y-94119047D01*
X151835771Y-94119047D02*
X151883390Y-94214285D01*
X151883390Y-94214285D02*
X151931009Y-94261904D01*
X151931009Y-94261904D02*
X152026247Y-94309523D01*
X143454819Y-95832857D02*
X142978628Y-96166190D01*
X143454819Y-96404285D02*
X142454819Y-96404285D01*
X142454819Y-96404285D02*
X142454819Y-96023333D01*
X142454819Y-96023333D02*
X142502438Y-95928095D01*
X142502438Y-95928095D02*
X142550057Y-95880476D01*
X142550057Y-95880476D02*
X142645295Y-95832857D01*
X142645295Y-95832857D02*
X142788152Y-95832857D01*
X142788152Y-95832857D02*
X142883390Y-95880476D01*
X142883390Y-95880476D02*
X142931009Y-95928095D01*
X142931009Y-95928095D02*
X142978628Y-96023333D01*
X142978628Y-96023333D02*
X142978628Y-96404285D01*
X143454819Y-94880476D02*
X143454819Y-95451904D01*
X143454819Y-95166190D02*
X142454819Y-95166190D01*
X142454819Y-95166190D02*
X142597676Y-95261428D01*
X142597676Y-95261428D02*
X142692914Y-95356666D01*
X142692914Y-95356666D02*
X142740533Y-95451904D01*
X142788152Y-94023333D02*
X143454819Y-94023333D01*
X142407200Y-94261428D02*
X143121485Y-94499523D01*
X143121485Y-94499523D02*
X143121485Y-93880476D01*
X173954819Y-95642857D02*
X173478628Y-95976190D01*
X173954819Y-96214285D02*
X172954819Y-96214285D01*
X172954819Y-96214285D02*
X172954819Y-95833333D01*
X172954819Y-95833333D02*
X173002438Y-95738095D01*
X173002438Y-95738095D02*
X173050057Y-95690476D01*
X173050057Y-95690476D02*
X173145295Y-95642857D01*
X173145295Y-95642857D02*
X173288152Y-95642857D01*
X173288152Y-95642857D02*
X173383390Y-95690476D01*
X173383390Y-95690476D02*
X173431009Y-95738095D01*
X173431009Y-95738095D02*
X173478628Y-95833333D01*
X173478628Y-95833333D02*
X173478628Y-96214285D01*
X173050057Y-95261904D02*
X173002438Y-95214285D01*
X173002438Y-95214285D02*
X172954819Y-95119047D01*
X172954819Y-95119047D02*
X172954819Y-94880952D01*
X172954819Y-94880952D02*
X173002438Y-94785714D01*
X173002438Y-94785714D02*
X173050057Y-94738095D01*
X173050057Y-94738095D02*
X173145295Y-94690476D01*
X173145295Y-94690476D02*
X173240533Y-94690476D01*
X173240533Y-94690476D02*
X173383390Y-94738095D01*
X173383390Y-94738095D02*
X173954819Y-95309523D01*
X173954819Y-95309523D02*
X173954819Y-94690476D01*
X173288152Y-93833333D02*
X173954819Y-93833333D01*
X172907200Y-94071428D02*
X173621485Y-94309523D01*
X173621485Y-94309523D02*
X173621485Y-93690476D01*
X184966598Y-105615985D02*
X184966598Y-106182725D01*
X184966598Y-106182725D02*
X184999935Y-106249400D01*
X184999935Y-106249400D02*
X185033273Y-106282738D01*
X185033273Y-106282738D02*
X185099948Y-106316075D01*
X185099948Y-106316075D02*
X185233299Y-106316075D01*
X185233299Y-106316075D02*
X185299974Y-106282738D01*
X185299974Y-106282738D02*
X185333311Y-106249400D01*
X185333311Y-106249400D02*
X185366649Y-106182725D01*
X185366649Y-106182725D02*
X185366649Y-105615985D01*
X186033402Y-105615985D02*
X185700026Y-105615985D01*
X185700026Y-105615985D02*
X185666688Y-105949361D01*
X185666688Y-105949361D02*
X185700026Y-105916024D01*
X185700026Y-105916024D02*
X185766701Y-105882686D01*
X185766701Y-105882686D02*
X185933389Y-105882686D01*
X185933389Y-105882686D02*
X186000064Y-105916024D01*
X186000064Y-105916024D02*
X186033402Y-105949361D01*
X186033402Y-105949361D02*
X186066739Y-106016037D01*
X186066739Y-106016037D02*
X186066739Y-106182725D01*
X186066739Y-106182725D02*
X186033402Y-106249400D01*
X186033402Y-106249400D02*
X186000064Y-106282738D01*
X186000064Y-106282738D02*
X185933389Y-106316075D01*
X185933389Y-106316075D02*
X185766701Y-106316075D01*
X185766701Y-106316075D02*
X185700026Y-106282738D01*
X185700026Y-106282738D02*
X185666688Y-106249400D01*
X130583333Y-115359580D02*
X130535714Y-115407200D01*
X130535714Y-115407200D02*
X130392857Y-115454819D01*
X130392857Y-115454819D02*
X130297619Y-115454819D01*
X130297619Y-115454819D02*
X130154762Y-115407200D01*
X130154762Y-115407200D02*
X130059524Y-115311961D01*
X130059524Y-115311961D02*
X130011905Y-115216723D01*
X130011905Y-115216723D02*
X129964286Y-115026247D01*
X129964286Y-115026247D02*
X129964286Y-114883390D01*
X129964286Y-114883390D02*
X130011905Y-114692914D01*
X130011905Y-114692914D02*
X130059524Y-114597676D01*
X130059524Y-114597676D02*
X130154762Y-114502438D01*
X130154762Y-114502438D02*
X130297619Y-114454819D01*
X130297619Y-114454819D02*
X130392857Y-114454819D01*
X130392857Y-114454819D02*
X130535714Y-114502438D01*
X130535714Y-114502438D02*
X130583333Y-114550057D01*
X131535714Y-115454819D02*
X130964286Y-115454819D01*
X131250000Y-115454819D02*
X131250000Y-114454819D01*
X131250000Y-114454819D02*
X131154762Y-114597676D01*
X131154762Y-114597676D02*
X131059524Y-114692914D01*
X131059524Y-114692914D02*
X130964286Y-114740533D01*
X115954819Y-95356666D02*
X115478628Y-95689999D01*
X115954819Y-95928094D02*
X114954819Y-95928094D01*
X114954819Y-95928094D02*
X114954819Y-95547142D01*
X114954819Y-95547142D02*
X115002438Y-95451904D01*
X115002438Y-95451904D02*
X115050057Y-95404285D01*
X115050057Y-95404285D02*
X115145295Y-95356666D01*
X115145295Y-95356666D02*
X115288152Y-95356666D01*
X115288152Y-95356666D02*
X115383390Y-95404285D01*
X115383390Y-95404285D02*
X115431009Y-95451904D01*
X115431009Y-95451904D02*
X115478628Y-95547142D01*
X115478628Y-95547142D02*
X115478628Y-95928094D01*
X115050057Y-94975713D02*
X115002438Y-94928094D01*
X115002438Y-94928094D02*
X114954819Y-94832856D01*
X114954819Y-94832856D02*
X114954819Y-94594761D01*
X114954819Y-94594761D02*
X115002438Y-94499523D01*
X115002438Y-94499523D02*
X115050057Y-94451904D01*
X115050057Y-94451904D02*
X115145295Y-94404285D01*
X115145295Y-94404285D02*
X115240533Y-94404285D01*
X115240533Y-94404285D02*
X115383390Y-94451904D01*
X115383390Y-94451904D02*
X115954819Y-95023332D01*
X115954819Y-95023332D02*
X115954819Y-94404285D01*
X149454819Y-95832857D02*
X148978628Y-96166190D01*
X149454819Y-96404285D02*
X148454819Y-96404285D01*
X148454819Y-96404285D02*
X148454819Y-96023333D01*
X148454819Y-96023333D02*
X148502438Y-95928095D01*
X148502438Y-95928095D02*
X148550057Y-95880476D01*
X148550057Y-95880476D02*
X148645295Y-95832857D01*
X148645295Y-95832857D02*
X148788152Y-95832857D01*
X148788152Y-95832857D02*
X148883390Y-95880476D01*
X148883390Y-95880476D02*
X148931009Y-95928095D01*
X148931009Y-95928095D02*
X148978628Y-96023333D01*
X148978628Y-96023333D02*
X148978628Y-96404285D01*
X149454819Y-94880476D02*
X149454819Y-95451904D01*
X149454819Y-95166190D02*
X148454819Y-95166190D01*
X148454819Y-95166190D02*
X148597676Y-95261428D01*
X148597676Y-95261428D02*
X148692914Y-95356666D01*
X148692914Y-95356666D02*
X148740533Y-95451904D01*
X148454819Y-94547142D02*
X148454819Y-93880476D01*
X148454819Y-93880476D02*
X149454819Y-94309047D01*
X165547142Y-113454819D02*
X165213809Y-112978628D01*
X164975714Y-113454819D02*
X164975714Y-112454819D01*
X164975714Y-112454819D02*
X165356666Y-112454819D01*
X165356666Y-112454819D02*
X165451904Y-112502438D01*
X165451904Y-112502438D02*
X165499523Y-112550057D01*
X165499523Y-112550057D02*
X165547142Y-112645295D01*
X165547142Y-112645295D02*
X165547142Y-112788152D01*
X165547142Y-112788152D02*
X165499523Y-112883390D01*
X165499523Y-112883390D02*
X165451904Y-112931009D01*
X165451904Y-112931009D02*
X165356666Y-112978628D01*
X165356666Y-112978628D02*
X164975714Y-112978628D01*
X165928095Y-112550057D02*
X165975714Y-112502438D01*
X165975714Y-112502438D02*
X166070952Y-112454819D01*
X166070952Y-112454819D02*
X166309047Y-112454819D01*
X166309047Y-112454819D02*
X166404285Y-112502438D01*
X166404285Y-112502438D02*
X166451904Y-112550057D01*
X166451904Y-112550057D02*
X166499523Y-112645295D01*
X166499523Y-112645295D02*
X166499523Y-112740533D01*
X166499523Y-112740533D02*
X166451904Y-112883390D01*
X166451904Y-112883390D02*
X165880476Y-113454819D01*
X165880476Y-113454819D02*
X166499523Y-113454819D01*
X166832857Y-112454819D02*
X167451904Y-112454819D01*
X167451904Y-112454819D02*
X167118571Y-112835771D01*
X167118571Y-112835771D02*
X167261428Y-112835771D01*
X167261428Y-112835771D02*
X167356666Y-112883390D01*
X167356666Y-112883390D02*
X167404285Y-112931009D01*
X167404285Y-112931009D02*
X167451904Y-113026247D01*
X167451904Y-113026247D02*
X167451904Y-113264342D01*
X167451904Y-113264342D02*
X167404285Y-113359580D01*
X167404285Y-113359580D02*
X167356666Y-113407200D01*
X167356666Y-113407200D02*
X167261428Y-113454819D01*
X167261428Y-113454819D02*
X166975714Y-113454819D01*
X166975714Y-113454819D02*
X166880476Y-113407200D01*
X166880476Y-113407200D02*
X166832857Y-113359580D01*
X172907200Y-136083332D02*
X172954819Y-135940475D01*
X172954819Y-135940475D02*
X172954819Y-135702380D01*
X172954819Y-135702380D02*
X172907200Y-135607142D01*
X172907200Y-135607142D02*
X172859580Y-135559523D01*
X172859580Y-135559523D02*
X172764342Y-135511904D01*
X172764342Y-135511904D02*
X172669104Y-135511904D01*
X172669104Y-135511904D02*
X172573866Y-135559523D01*
X172573866Y-135559523D02*
X172526247Y-135607142D01*
X172526247Y-135607142D02*
X172478628Y-135702380D01*
X172478628Y-135702380D02*
X172431009Y-135892856D01*
X172431009Y-135892856D02*
X172383390Y-135988094D01*
X172383390Y-135988094D02*
X172335771Y-136035713D01*
X172335771Y-136035713D02*
X172240533Y-136083332D01*
X172240533Y-136083332D02*
X172145295Y-136083332D01*
X172145295Y-136083332D02*
X172050057Y-136035713D01*
X172050057Y-136035713D02*
X172002438Y-135988094D01*
X172002438Y-135988094D02*
X171954819Y-135892856D01*
X171954819Y-135892856D02*
X171954819Y-135654761D01*
X171954819Y-135654761D02*
X172002438Y-135511904D01*
X171954819Y-135178570D02*
X172954819Y-134940475D01*
X172954819Y-134940475D02*
X172240533Y-134749999D01*
X172240533Y-134749999D02*
X172954819Y-134559523D01*
X172954819Y-134559523D02*
X171954819Y-134321428D01*
X172050057Y-133988094D02*
X172002438Y-133940475D01*
X172002438Y-133940475D02*
X171954819Y-133845237D01*
X171954819Y-133845237D02*
X171954819Y-133607142D01*
X171954819Y-133607142D02*
X172002438Y-133511904D01*
X172002438Y-133511904D02*
X172050057Y-133464285D01*
X172050057Y-133464285D02*
X172145295Y-133416666D01*
X172145295Y-133416666D02*
X172240533Y-133416666D01*
X172240533Y-133416666D02*
X172383390Y-133464285D01*
X172383390Y-133464285D02*
X172954819Y-134035713D01*
X172954819Y-134035713D02*
X172954819Y-133416666D01*
X110738095Y-87954819D02*
X110738095Y-86954819D01*
X110738095Y-87431009D02*
X111309523Y-87431009D01*
X111309523Y-87954819D02*
X111309523Y-86954819D01*
X112309523Y-87954819D02*
X111738095Y-87954819D01*
X112023809Y-87954819D02*
X112023809Y-86954819D01*
X112023809Y-86954819D02*
X111928571Y-87097676D01*
X111928571Y-87097676D02*
X111833333Y-87192914D01*
X111833333Y-87192914D02*
X111738095Y-87240533D01*
X192454819Y-95832857D02*
X191978628Y-96166190D01*
X192454819Y-96404285D02*
X191454819Y-96404285D01*
X191454819Y-96404285D02*
X191454819Y-96023333D01*
X191454819Y-96023333D02*
X191502438Y-95928095D01*
X191502438Y-95928095D02*
X191550057Y-95880476D01*
X191550057Y-95880476D02*
X191645295Y-95832857D01*
X191645295Y-95832857D02*
X191788152Y-95832857D01*
X191788152Y-95832857D02*
X191883390Y-95880476D01*
X191883390Y-95880476D02*
X191931009Y-95928095D01*
X191931009Y-95928095D02*
X191978628Y-96023333D01*
X191978628Y-96023333D02*
X191978628Y-96404285D01*
X191454819Y-95499523D02*
X191454819Y-94880476D01*
X191454819Y-94880476D02*
X191835771Y-95213809D01*
X191835771Y-95213809D02*
X191835771Y-95070952D01*
X191835771Y-95070952D02*
X191883390Y-94975714D01*
X191883390Y-94975714D02*
X191931009Y-94928095D01*
X191931009Y-94928095D02*
X192026247Y-94880476D01*
X192026247Y-94880476D02*
X192264342Y-94880476D01*
X192264342Y-94880476D02*
X192359580Y-94928095D01*
X192359580Y-94928095D02*
X192407200Y-94975714D01*
X192407200Y-94975714D02*
X192454819Y-95070952D01*
X192454819Y-95070952D02*
X192454819Y-95356666D01*
X192454819Y-95356666D02*
X192407200Y-95451904D01*
X192407200Y-95451904D02*
X192359580Y-95499523D01*
X191454819Y-94547142D02*
X191454819Y-93928095D01*
X191454819Y-93928095D02*
X191835771Y-94261428D01*
X191835771Y-94261428D02*
X191835771Y-94118571D01*
X191835771Y-94118571D02*
X191883390Y-94023333D01*
X191883390Y-94023333D02*
X191931009Y-93975714D01*
X191931009Y-93975714D02*
X192026247Y-93928095D01*
X192026247Y-93928095D02*
X192264342Y-93928095D01*
X192264342Y-93928095D02*
X192359580Y-93975714D01*
X192359580Y-93975714D02*
X192407200Y-94023333D01*
X192407200Y-94023333D02*
X192454819Y-94118571D01*
X192454819Y-94118571D02*
X192454819Y-94404285D01*
X192454819Y-94404285D02*
X192407200Y-94499523D01*
X192407200Y-94499523D02*
X192359580Y-94547142D01*
X164954819Y-95832857D02*
X164478628Y-96166190D01*
X164954819Y-96404285D02*
X163954819Y-96404285D01*
X163954819Y-96404285D02*
X163954819Y-96023333D01*
X163954819Y-96023333D02*
X164002438Y-95928095D01*
X164002438Y-95928095D02*
X164050057Y-95880476D01*
X164050057Y-95880476D02*
X164145295Y-95832857D01*
X164145295Y-95832857D02*
X164288152Y-95832857D01*
X164288152Y-95832857D02*
X164383390Y-95880476D01*
X164383390Y-95880476D02*
X164431009Y-95928095D01*
X164431009Y-95928095D02*
X164478628Y-96023333D01*
X164478628Y-96023333D02*
X164478628Y-96404285D01*
X164050057Y-95451904D02*
X164002438Y-95404285D01*
X164002438Y-95404285D02*
X163954819Y-95309047D01*
X163954819Y-95309047D02*
X163954819Y-95070952D01*
X163954819Y-95070952D02*
X164002438Y-94975714D01*
X164002438Y-94975714D02*
X164050057Y-94928095D01*
X164050057Y-94928095D02*
X164145295Y-94880476D01*
X164145295Y-94880476D02*
X164240533Y-94880476D01*
X164240533Y-94880476D02*
X164383390Y-94928095D01*
X164383390Y-94928095D02*
X164954819Y-95499523D01*
X164954819Y-95499523D02*
X164954819Y-94880476D01*
X164050057Y-94499523D02*
X164002438Y-94451904D01*
X164002438Y-94451904D02*
X163954819Y-94356666D01*
X163954819Y-94356666D02*
X163954819Y-94118571D01*
X163954819Y-94118571D02*
X164002438Y-94023333D01*
X164002438Y-94023333D02*
X164050057Y-93975714D01*
X164050057Y-93975714D02*
X164145295Y-93928095D01*
X164145295Y-93928095D02*
X164240533Y-93928095D01*
X164240533Y-93928095D02*
X164383390Y-93975714D01*
X164383390Y-93975714D02*
X164954819Y-94547142D01*
X164954819Y-94547142D02*
X164954819Y-93928095D01*
X183454819Y-95832857D02*
X182978628Y-96166190D01*
X183454819Y-96404285D02*
X182454819Y-96404285D01*
X182454819Y-96404285D02*
X182454819Y-96023333D01*
X182454819Y-96023333D02*
X182502438Y-95928095D01*
X182502438Y-95928095D02*
X182550057Y-95880476D01*
X182550057Y-95880476D02*
X182645295Y-95832857D01*
X182645295Y-95832857D02*
X182788152Y-95832857D01*
X182788152Y-95832857D02*
X182883390Y-95880476D01*
X182883390Y-95880476D02*
X182931009Y-95928095D01*
X182931009Y-95928095D02*
X182978628Y-96023333D01*
X182978628Y-96023333D02*
X182978628Y-96404285D01*
X182550057Y-95451904D02*
X182502438Y-95404285D01*
X182502438Y-95404285D02*
X182454819Y-95309047D01*
X182454819Y-95309047D02*
X182454819Y-95070952D01*
X182454819Y-95070952D02*
X182502438Y-94975714D01*
X182502438Y-94975714D02*
X182550057Y-94928095D01*
X182550057Y-94928095D02*
X182645295Y-94880476D01*
X182645295Y-94880476D02*
X182740533Y-94880476D01*
X182740533Y-94880476D02*
X182883390Y-94928095D01*
X182883390Y-94928095D02*
X183454819Y-95499523D01*
X183454819Y-95499523D02*
X183454819Y-94880476D01*
X183454819Y-94404285D02*
X183454819Y-94213809D01*
X183454819Y-94213809D02*
X183407200Y-94118571D01*
X183407200Y-94118571D02*
X183359580Y-94070952D01*
X183359580Y-94070952D02*
X183216723Y-93975714D01*
X183216723Y-93975714D02*
X183026247Y-93928095D01*
X183026247Y-93928095D02*
X182645295Y-93928095D01*
X182645295Y-93928095D02*
X182550057Y-93975714D01*
X182550057Y-93975714D02*
X182502438Y-94023333D01*
X182502438Y-94023333D02*
X182454819Y-94118571D01*
X182454819Y-94118571D02*
X182454819Y-94309047D01*
X182454819Y-94309047D02*
X182502438Y-94404285D01*
X182502438Y-94404285D02*
X182550057Y-94451904D01*
X182550057Y-94451904D02*
X182645295Y-94499523D01*
X182645295Y-94499523D02*
X182883390Y-94499523D01*
X182883390Y-94499523D02*
X182978628Y-94451904D01*
X182978628Y-94451904D02*
X183026247Y-94404285D01*
X183026247Y-94404285D02*
X183073866Y-94309047D01*
X183073866Y-94309047D02*
X183073866Y-94118571D01*
X183073866Y-94118571D02*
X183026247Y-94023333D01*
X183026247Y-94023333D02*
X182978628Y-93975714D01*
X182978628Y-93975714D02*
X182883390Y-93928095D01*
X177454819Y-95832857D02*
X176978628Y-96166190D01*
X177454819Y-96404285D02*
X176454819Y-96404285D01*
X176454819Y-96404285D02*
X176454819Y-96023333D01*
X176454819Y-96023333D02*
X176502438Y-95928095D01*
X176502438Y-95928095D02*
X176550057Y-95880476D01*
X176550057Y-95880476D02*
X176645295Y-95832857D01*
X176645295Y-95832857D02*
X176788152Y-95832857D01*
X176788152Y-95832857D02*
X176883390Y-95880476D01*
X176883390Y-95880476D02*
X176931009Y-95928095D01*
X176931009Y-95928095D02*
X176978628Y-96023333D01*
X176978628Y-96023333D02*
X176978628Y-96404285D01*
X176550057Y-95451904D02*
X176502438Y-95404285D01*
X176502438Y-95404285D02*
X176454819Y-95309047D01*
X176454819Y-95309047D02*
X176454819Y-95070952D01*
X176454819Y-95070952D02*
X176502438Y-94975714D01*
X176502438Y-94975714D02*
X176550057Y-94928095D01*
X176550057Y-94928095D02*
X176645295Y-94880476D01*
X176645295Y-94880476D02*
X176740533Y-94880476D01*
X176740533Y-94880476D02*
X176883390Y-94928095D01*
X176883390Y-94928095D02*
X177454819Y-95499523D01*
X177454819Y-95499523D02*
X177454819Y-94880476D01*
X176454819Y-94547142D02*
X176454819Y-93880476D01*
X176454819Y-93880476D02*
X177454819Y-94309047D01*
X173583333Y-114859580D02*
X173535714Y-114907200D01*
X173535714Y-114907200D02*
X173392857Y-114954819D01*
X173392857Y-114954819D02*
X173297619Y-114954819D01*
X173297619Y-114954819D02*
X173154762Y-114907200D01*
X173154762Y-114907200D02*
X173059524Y-114811961D01*
X173059524Y-114811961D02*
X173011905Y-114716723D01*
X173011905Y-114716723D02*
X172964286Y-114526247D01*
X172964286Y-114526247D02*
X172964286Y-114383390D01*
X172964286Y-114383390D02*
X173011905Y-114192914D01*
X173011905Y-114192914D02*
X173059524Y-114097676D01*
X173059524Y-114097676D02*
X173154762Y-114002438D01*
X173154762Y-114002438D02*
X173297619Y-113954819D01*
X173297619Y-113954819D02*
X173392857Y-113954819D01*
X173392857Y-113954819D02*
X173535714Y-114002438D01*
X173535714Y-114002438D02*
X173583333Y-114050057D01*
X173916667Y-113954819D02*
X174535714Y-113954819D01*
X174535714Y-113954819D02*
X174202381Y-114335771D01*
X174202381Y-114335771D02*
X174345238Y-114335771D01*
X174345238Y-114335771D02*
X174440476Y-114383390D01*
X174440476Y-114383390D02*
X174488095Y-114431009D01*
X174488095Y-114431009D02*
X174535714Y-114526247D01*
X174535714Y-114526247D02*
X174535714Y-114764342D01*
X174535714Y-114764342D02*
X174488095Y-114859580D01*
X174488095Y-114859580D02*
X174440476Y-114907200D01*
X174440476Y-114907200D02*
X174345238Y-114954819D01*
X174345238Y-114954819D02*
X174059524Y-114954819D01*
X174059524Y-114954819D02*
X173964286Y-114907200D01*
X173964286Y-114907200D02*
X173916667Y-114859580D01*
X143797142Y-113454819D02*
X143463809Y-112978628D01*
X143225714Y-113454819D02*
X143225714Y-112454819D01*
X143225714Y-112454819D02*
X143606666Y-112454819D01*
X143606666Y-112454819D02*
X143701904Y-112502438D01*
X143701904Y-112502438D02*
X143749523Y-112550057D01*
X143749523Y-112550057D02*
X143797142Y-112645295D01*
X143797142Y-112645295D02*
X143797142Y-112788152D01*
X143797142Y-112788152D02*
X143749523Y-112883390D01*
X143749523Y-112883390D02*
X143701904Y-112931009D01*
X143701904Y-112931009D02*
X143606666Y-112978628D01*
X143606666Y-112978628D02*
X143225714Y-112978628D01*
X144749523Y-113454819D02*
X144178095Y-113454819D01*
X144463809Y-113454819D02*
X144463809Y-112454819D01*
X144463809Y-112454819D02*
X144368571Y-112597676D01*
X144368571Y-112597676D02*
X144273333Y-112692914D01*
X144273333Y-112692914D02*
X144178095Y-112740533D01*
X145654285Y-112454819D02*
X145178095Y-112454819D01*
X145178095Y-112454819D02*
X145130476Y-112931009D01*
X145130476Y-112931009D02*
X145178095Y-112883390D01*
X145178095Y-112883390D02*
X145273333Y-112835771D01*
X145273333Y-112835771D02*
X145511428Y-112835771D01*
X145511428Y-112835771D02*
X145606666Y-112883390D01*
X145606666Y-112883390D02*
X145654285Y-112931009D01*
X145654285Y-112931009D02*
X145701904Y-113026247D01*
X145701904Y-113026247D02*
X145701904Y-113264342D01*
X145701904Y-113264342D02*
X145654285Y-113359580D01*
X145654285Y-113359580D02*
X145606666Y-113407200D01*
X145606666Y-113407200D02*
X145511428Y-113454819D01*
X145511428Y-113454819D02*
X145273333Y-113454819D01*
X145273333Y-113454819D02*
X145178095Y-113407200D01*
X145178095Y-113407200D02*
X145130476Y-113359580D01*
X158954819Y-95832857D02*
X158478628Y-96166190D01*
X158954819Y-96404285D02*
X157954819Y-96404285D01*
X157954819Y-96404285D02*
X157954819Y-96023333D01*
X157954819Y-96023333D02*
X158002438Y-95928095D01*
X158002438Y-95928095D02*
X158050057Y-95880476D01*
X158050057Y-95880476D02*
X158145295Y-95832857D01*
X158145295Y-95832857D02*
X158288152Y-95832857D01*
X158288152Y-95832857D02*
X158383390Y-95880476D01*
X158383390Y-95880476D02*
X158431009Y-95928095D01*
X158431009Y-95928095D02*
X158478628Y-96023333D01*
X158478628Y-96023333D02*
X158478628Y-96404285D01*
X158050057Y-95451904D02*
X158002438Y-95404285D01*
X158002438Y-95404285D02*
X157954819Y-95309047D01*
X157954819Y-95309047D02*
X157954819Y-95070952D01*
X157954819Y-95070952D02*
X158002438Y-94975714D01*
X158002438Y-94975714D02*
X158050057Y-94928095D01*
X158050057Y-94928095D02*
X158145295Y-94880476D01*
X158145295Y-94880476D02*
X158240533Y-94880476D01*
X158240533Y-94880476D02*
X158383390Y-94928095D01*
X158383390Y-94928095D02*
X158954819Y-95499523D01*
X158954819Y-95499523D02*
X158954819Y-94880476D01*
X157954819Y-94261428D02*
X157954819Y-94166190D01*
X157954819Y-94166190D02*
X158002438Y-94070952D01*
X158002438Y-94070952D02*
X158050057Y-94023333D01*
X158050057Y-94023333D02*
X158145295Y-93975714D01*
X158145295Y-93975714D02*
X158335771Y-93928095D01*
X158335771Y-93928095D02*
X158573866Y-93928095D01*
X158573866Y-93928095D02*
X158764342Y-93975714D01*
X158764342Y-93975714D02*
X158859580Y-94023333D01*
X158859580Y-94023333D02*
X158907200Y-94070952D01*
X158907200Y-94070952D02*
X158954819Y-94166190D01*
X158954819Y-94166190D02*
X158954819Y-94261428D01*
X158954819Y-94261428D02*
X158907200Y-94356666D01*
X158907200Y-94356666D02*
X158859580Y-94404285D01*
X158859580Y-94404285D02*
X158764342Y-94451904D01*
X158764342Y-94451904D02*
X158573866Y-94499523D01*
X158573866Y-94499523D02*
X158335771Y-94499523D01*
X158335771Y-94499523D02*
X158145295Y-94451904D01*
X158145295Y-94451904D02*
X158050057Y-94404285D01*
X158050057Y-94404285D02*
X158002438Y-94356666D01*
X158002438Y-94356666D02*
X157954819Y-94261428D01*
X194583333Y-115359580D02*
X194535714Y-115407200D01*
X194535714Y-115407200D02*
X194392857Y-115454819D01*
X194392857Y-115454819D02*
X194297619Y-115454819D01*
X194297619Y-115454819D02*
X194154762Y-115407200D01*
X194154762Y-115407200D02*
X194059524Y-115311961D01*
X194059524Y-115311961D02*
X194011905Y-115216723D01*
X194011905Y-115216723D02*
X193964286Y-115026247D01*
X193964286Y-115026247D02*
X193964286Y-114883390D01*
X193964286Y-114883390D02*
X194011905Y-114692914D01*
X194011905Y-114692914D02*
X194059524Y-114597676D01*
X194059524Y-114597676D02*
X194154762Y-114502438D01*
X194154762Y-114502438D02*
X194297619Y-114454819D01*
X194297619Y-114454819D02*
X194392857Y-114454819D01*
X194392857Y-114454819D02*
X194535714Y-114502438D01*
X194535714Y-114502438D02*
X194583333Y-114550057D01*
X195440476Y-114788152D02*
X195440476Y-115454819D01*
X195202381Y-114407200D02*
X194964286Y-115121485D01*
X194964286Y-115121485D02*
X195583333Y-115121485D01*
X142466598Y-105615985D02*
X142466598Y-106182725D01*
X142466598Y-106182725D02*
X142499935Y-106249400D01*
X142499935Y-106249400D02*
X142533273Y-106282738D01*
X142533273Y-106282738D02*
X142599948Y-106316075D01*
X142599948Y-106316075D02*
X142733299Y-106316075D01*
X142733299Y-106316075D02*
X142799974Y-106282738D01*
X142799974Y-106282738D02*
X142833311Y-106249400D01*
X142833311Y-106249400D02*
X142866649Y-106182725D01*
X142866649Y-106182725D02*
X142866649Y-105615985D01*
X143166688Y-105682660D02*
X143200026Y-105649323D01*
X143200026Y-105649323D02*
X143266701Y-105615985D01*
X143266701Y-105615985D02*
X143433389Y-105615985D01*
X143433389Y-105615985D02*
X143500064Y-105649323D01*
X143500064Y-105649323D02*
X143533402Y-105682660D01*
X143533402Y-105682660D02*
X143566739Y-105749336D01*
X143566739Y-105749336D02*
X143566739Y-105816011D01*
X143566739Y-105816011D02*
X143533402Y-105916024D01*
X143533402Y-105916024D02*
X143133350Y-106316075D01*
X143133350Y-106316075D02*
X143566739Y-106316075D01*
X126407200Y-136083332D02*
X126454819Y-135940475D01*
X126454819Y-135940475D02*
X126454819Y-135702380D01*
X126454819Y-135702380D02*
X126407200Y-135607142D01*
X126407200Y-135607142D02*
X126359580Y-135559523D01*
X126359580Y-135559523D02*
X126264342Y-135511904D01*
X126264342Y-135511904D02*
X126169104Y-135511904D01*
X126169104Y-135511904D02*
X126073866Y-135559523D01*
X126073866Y-135559523D02*
X126026247Y-135607142D01*
X126026247Y-135607142D02*
X125978628Y-135702380D01*
X125978628Y-135702380D02*
X125931009Y-135892856D01*
X125931009Y-135892856D02*
X125883390Y-135988094D01*
X125883390Y-135988094D02*
X125835771Y-136035713D01*
X125835771Y-136035713D02*
X125740533Y-136083332D01*
X125740533Y-136083332D02*
X125645295Y-136083332D01*
X125645295Y-136083332D02*
X125550057Y-136035713D01*
X125550057Y-136035713D02*
X125502438Y-135988094D01*
X125502438Y-135988094D02*
X125454819Y-135892856D01*
X125454819Y-135892856D02*
X125454819Y-135654761D01*
X125454819Y-135654761D02*
X125502438Y-135511904D01*
X125454819Y-135178570D02*
X126454819Y-134940475D01*
X126454819Y-134940475D02*
X125740533Y-134749999D01*
X125740533Y-134749999D02*
X126454819Y-134559523D01*
X126454819Y-134559523D02*
X125454819Y-134321428D01*
X126454819Y-133416666D02*
X126454819Y-133988094D01*
X126454819Y-133702380D02*
X125454819Y-133702380D01*
X125454819Y-133702380D02*
X125597676Y-133797618D01*
X125597676Y-133797618D02*
X125692914Y-133892856D01*
X125692914Y-133892856D02*
X125740533Y-133988094D01*
X189454819Y-95832857D02*
X188978628Y-96166190D01*
X189454819Y-96404285D02*
X188454819Y-96404285D01*
X188454819Y-96404285D02*
X188454819Y-96023333D01*
X188454819Y-96023333D02*
X188502438Y-95928095D01*
X188502438Y-95928095D02*
X188550057Y-95880476D01*
X188550057Y-95880476D02*
X188645295Y-95832857D01*
X188645295Y-95832857D02*
X188788152Y-95832857D01*
X188788152Y-95832857D02*
X188883390Y-95880476D01*
X188883390Y-95880476D02*
X188931009Y-95928095D01*
X188931009Y-95928095D02*
X188978628Y-96023333D01*
X188978628Y-96023333D02*
X188978628Y-96404285D01*
X188454819Y-95499523D02*
X188454819Y-94880476D01*
X188454819Y-94880476D02*
X188835771Y-95213809D01*
X188835771Y-95213809D02*
X188835771Y-95070952D01*
X188835771Y-95070952D02*
X188883390Y-94975714D01*
X188883390Y-94975714D02*
X188931009Y-94928095D01*
X188931009Y-94928095D02*
X189026247Y-94880476D01*
X189026247Y-94880476D02*
X189264342Y-94880476D01*
X189264342Y-94880476D02*
X189359580Y-94928095D01*
X189359580Y-94928095D02*
X189407200Y-94975714D01*
X189407200Y-94975714D02*
X189454819Y-95070952D01*
X189454819Y-95070952D02*
X189454819Y-95356666D01*
X189454819Y-95356666D02*
X189407200Y-95451904D01*
X189407200Y-95451904D02*
X189359580Y-95499523D01*
X188788152Y-94023333D02*
X189454819Y-94023333D01*
X188407200Y-94261428D02*
X189121485Y-94499523D01*
X189121485Y-94499523D02*
X189121485Y-93880476D01*
X180454819Y-95832857D02*
X179978628Y-96166190D01*
X180454819Y-96404285D02*
X179454819Y-96404285D01*
X179454819Y-96404285D02*
X179454819Y-96023333D01*
X179454819Y-96023333D02*
X179502438Y-95928095D01*
X179502438Y-95928095D02*
X179550057Y-95880476D01*
X179550057Y-95880476D02*
X179645295Y-95832857D01*
X179645295Y-95832857D02*
X179788152Y-95832857D01*
X179788152Y-95832857D02*
X179883390Y-95880476D01*
X179883390Y-95880476D02*
X179931009Y-95928095D01*
X179931009Y-95928095D02*
X179978628Y-96023333D01*
X179978628Y-96023333D02*
X179978628Y-96404285D01*
X179550057Y-95451904D02*
X179502438Y-95404285D01*
X179502438Y-95404285D02*
X179454819Y-95309047D01*
X179454819Y-95309047D02*
X179454819Y-95070952D01*
X179454819Y-95070952D02*
X179502438Y-94975714D01*
X179502438Y-94975714D02*
X179550057Y-94928095D01*
X179550057Y-94928095D02*
X179645295Y-94880476D01*
X179645295Y-94880476D02*
X179740533Y-94880476D01*
X179740533Y-94880476D02*
X179883390Y-94928095D01*
X179883390Y-94928095D02*
X180454819Y-95499523D01*
X180454819Y-95499523D02*
X180454819Y-94880476D01*
X179883390Y-94309047D02*
X179835771Y-94404285D01*
X179835771Y-94404285D02*
X179788152Y-94451904D01*
X179788152Y-94451904D02*
X179692914Y-94499523D01*
X179692914Y-94499523D02*
X179645295Y-94499523D01*
X179645295Y-94499523D02*
X179550057Y-94451904D01*
X179550057Y-94451904D02*
X179502438Y-94404285D01*
X179502438Y-94404285D02*
X179454819Y-94309047D01*
X179454819Y-94309047D02*
X179454819Y-94118571D01*
X179454819Y-94118571D02*
X179502438Y-94023333D01*
X179502438Y-94023333D02*
X179550057Y-93975714D01*
X179550057Y-93975714D02*
X179645295Y-93928095D01*
X179645295Y-93928095D02*
X179692914Y-93928095D01*
X179692914Y-93928095D02*
X179788152Y-93975714D01*
X179788152Y-93975714D02*
X179835771Y-94023333D01*
X179835771Y-94023333D02*
X179883390Y-94118571D01*
X179883390Y-94118571D02*
X179883390Y-94309047D01*
X179883390Y-94309047D02*
X179931009Y-94404285D01*
X179931009Y-94404285D02*
X179978628Y-94451904D01*
X179978628Y-94451904D02*
X180073866Y-94499523D01*
X180073866Y-94499523D02*
X180264342Y-94499523D01*
X180264342Y-94499523D02*
X180359580Y-94451904D01*
X180359580Y-94451904D02*
X180407200Y-94404285D01*
X180407200Y-94404285D02*
X180454819Y-94309047D01*
X180454819Y-94309047D02*
X180454819Y-94118571D01*
X180454819Y-94118571D02*
X180407200Y-94023333D01*
X180407200Y-94023333D02*
X180359580Y-93975714D01*
X180359580Y-93975714D02*
X180264342Y-93928095D01*
X180264342Y-93928095D02*
X180073866Y-93928095D01*
X180073866Y-93928095D02*
X179978628Y-93975714D01*
X179978628Y-93975714D02*
X179931009Y-94023333D01*
X179931009Y-94023333D02*
X179883390Y-94118571D01*
X118954819Y-95356666D02*
X118478628Y-95689999D01*
X118954819Y-95928094D02*
X117954819Y-95928094D01*
X117954819Y-95928094D02*
X117954819Y-95547142D01*
X117954819Y-95547142D02*
X118002438Y-95451904D01*
X118002438Y-95451904D02*
X118050057Y-95404285D01*
X118050057Y-95404285D02*
X118145295Y-95356666D01*
X118145295Y-95356666D02*
X118288152Y-95356666D01*
X118288152Y-95356666D02*
X118383390Y-95404285D01*
X118383390Y-95404285D02*
X118431009Y-95451904D01*
X118431009Y-95451904D02*
X118478628Y-95547142D01*
X118478628Y-95547142D02*
X118478628Y-95928094D01*
X117954819Y-95023332D02*
X117954819Y-94404285D01*
X117954819Y-94404285D02*
X118335771Y-94737618D01*
X118335771Y-94737618D02*
X118335771Y-94594761D01*
X118335771Y-94594761D02*
X118383390Y-94499523D01*
X118383390Y-94499523D02*
X118431009Y-94451904D01*
X118431009Y-94451904D02*
X118526247Y-94404285D01*
X118526247Y-94404285D02*
X118764342Y-94404285D01*
X118764342Y-94404285D02*
X118859580Y-94451904D01*
X118859580Y-94451904D02*
X118907200Y-94499523D01*
X118907200Y-94499523D02*
X118954819Y-94594761D01*
X118954819Y-94594761D02*
X118954819Y-94880475D01*
X118954819Y-94880475D02*
X118907200Y-94975713D01*
X118907200Y-94975713D02*
X118859580Y-95023332D01*
X110738095Y-133254819D02*
X110738095Y-132254819D01*
X110738095Y-132731009D02*
X111309523Y-132731009D01*
X111309523Y-133254819D02*
X111309523Y-132254819D01*
X112214285Y-132588152D02*
X112214285Y-133254819D01*
X111976190Y-132207200D02*
X111738095Y-132921485D01*
X111738095Y-132921485D02*
X112357142Y-132921485D01*
X130954819Y-95166666D02*
X130478628Y-95499999D01*
X130954819Y-95738094D02*
X129954819Y-95738094D01*
X129954819Y-95738094D02*
X129954819Y-95357142D01*
X129954819Y-95357142D02*
X130002438Y-95261904D01*
X130002438Y-95261904D02*
X130050057Y-95214285D01*
X130050057Y-95214285D02*
X130145295Y-95166666D01*
X130145295Y-95166666D02*
X130288152Y-95166666D01*
X130288152Y-95166666D02*
X130383390Y-95214285D01*
X130383390Y-95214285D02*
X130431009Y-95261904D01*
X130431009Y-95261904D02*
X130478628Y-95357142D01*
X130478628Y-95357142D02*
X130478628Y-95738094D01*
X129954819Y-94309523D02*
X129954819Y-94499999D01*
X129954819Y-94499999D02*
X130002438Y-94595237D01*
X130002438Y-94595237D02*
X130050057Y-94642856D01*
X130050057Y-94642856D02*
X130192914Y-94738094D01*
X130192914Y-94738094D02*
X130383390Y-94785713D01*
X130383390Y-94785713D02*
X130764342Y-94785713D01*
X130764342Y-94785713D02*
X130859580Y-94738094D01*
X130859580Y-94738094D02*
X130907200Y-94690475D01*
X130907200Y-94690475D02*
X130954819Y-94595237D01*
X130954819Y-94595237D02*
X130954819Y-94404761D01*
X130954819Y-94404761D02*
X130907200Y-94309523D01*
X130907200Y-94309523D02*
X130859580Y-94261904D01*
X130859580Y-94261904D02*
X130764342Y-94214285D01*
X130764342Y-94214285D02*
X130526247Y-94214285D01*
X130526247Y-94214285D02*
X130431009Y-94261904D01*
X130431009Y-94261904D02*
X130383390Y-94309523D01*
X130383390Y-94309523D02*
X130335771Y-94404761D01*
X130335771Y-94404761D02*
X130335771Y-94595237D01*
X130335771Y-94595237D02*
X130383390Y-94690475D01*
X130383390Y-94690475D02*
X130431009Y-94738094D01*
X130431009Y-94738094D02*
X130526247Y-94785713D01*
X155954819Y-95832857D02*
X155478628Y-96166190D01*
X155954819Y-96404285D02*
X154954819Y-96404285D01*
X154954819Y-96404285D02*
X154954819Y-96023333D01*
X154954819Y-96023333D02*
X155002438Y-95928095D01*
X155002438Y-95928095D02*
X155050057Y-95880476D01*
X155050057Y-95880476D02*
X155145295Y-95832857D01*
X155145295Y-95832857D02*
X155288152Y-95832857D01*
X155288152Y-95832857D02*
X155383390Y-95880476D01*
X155383390Y-95880476D02*
X155431009Y-95928095D01*
X155431009Y-95928095D02*
X155478628Y-96023333D01*
X155478628Y-96023333D02*
X155478628Y-96404285D01*
X155954819Y-94880476D02*
X155954819Y-95451904D01*
X155954819Y-95166190D02*
X154954819Y-95166190D01*
X154954819Y-95166190D02*
X155097676Y-95261428D01*
X155097676Y-95261428D02*
X155192914Y-95356666D01*
X155192914Y-95356666D02*
X155240533Y-95451904D01*
X155954819Y-94404285D02*
X155954819Y-94213809D01*
X155954819Y-94213809D02*
X155907200Y-94118571D01*
X155907200Y-94118571D02*
X155859580Y-94070952D01*
X155859580Y-94070952D02*
X155716723Y-93975714D01*
X155716723Y-93975714D02*
X155526247Y-93928095D01*
X155526247Y-93928095D02*
X155145295Y-93928095D01*
X155145295Y-93928095D02*
X155050057Y-93975714D01*
X155050057Y-93975714D02*
X155002438Y-94023333D01*
X155002438Y-94023333D02*
X154954819Y-94118571D01*
X154954819Y-94118571D02*
X154954819Y-94309047D01*
X154954819Y-94309047D02*
X155002438Y-94404285D01*
X155002438Y-94404285D02*
X155050057Y-94451904D01*
X155050057Y-94451904D02*
X155145295Y-94499523D01*
X155145295Y-94499523D02*
X155383390Y-94499523D01*
X155383390Y-94499523D02*
X155478628Y-94451904D01*
X155478628Y-94451904D02*
X155526247Y-94404285D01*
X155526247Y-94404285D02*
X155573866Y-94309047D01*
X155573866Y-94309047D02*
X155573866Y-94118571D01*
X155573866Y-94118571D02*
X155526247Y-94023333D01*
X155526247Y-94023333D02*
X155478628Y-93975714D01*
X155478628Y-93975714D02*
X155383390Y-93928095D01*
X136564819Y-86573333D02*
X137279104Y-86573333D01*
X137279104Y-86573333D02*
X137421961Y-86620952D01*
X137421961Y-86620952D02*
X137517200Y-86716190D01*
X137517200Y-86716190D02*
X137564819Y-86859047D01*
X137564819Y-86859047D02*
X137564819Y-86954285D01*
X136660057Y-86144761D02*
X136612438Y-86097142D01*
X136612438Y-86097142D02*
X136564819Y-86001904D01*
X136564819Y-86001904D02*
X136564819Y-85763809D01*
X136564819Y-85763809D02*
X136612438Y-85668571D01*
X136612438Y-85668571D02*
X136660057Y-85620952D01*
X136660057Y-85620952D02*
X136755295Y-85573333D01*
X136755295Y-85573333D02*
X136850533Y-85573333D01*
X136850533Y-85573333D02*
X136993390Y-85620952D01*
X136993390Y-85620952D02*
X137564819Y-86192380D01*
X137564819Y-86192380D02*
X137564819Y-85573333D01*
X151833333Y-114859580D02*
X151785714Y-114907200D01*
X151785714Y-114907200D02*
X151642857Y-114954819D01*
X151642857Y-114954819D02*
X151547619Y-114954819D01*
X151547619Y-114954819D02*
X151404762Y-114907200D01*
X151404762Y-114907200D02*
X151309524Y-114811961D01*
X151309524Y-114811961D02*
X151261905Y-114716723D01*
X151261905Y-114716723D02*
X151214286Y-114526247D01*
X151214286Y-114526247D02*
X151214286Y-114383390D01*
X151214286Y-114383390D02*
X151261905Y-114192914D01*
X151261905Y-114192914D02*
X151309524Y-114097676D01*
X151309524Y-114097676D02*
X151404762Y-114002438D01*
X151404762Y-114002438D02*
X151547619Y-113954819D01*
X151547619Y-113954819D02*
X151642857Y-113954819D01*
X151642857Y-113954819D02*
X151785714Y-114002438D01*
X151785714Y-114002438D02*
X151833333Y-114050057D01*
X152214286Y-114050057D02*
X152261905Y-114002438D01*
X152261905Y-114002438D02*
X152357143Y-113954819D01*
X152357143Y-113954819D02*
X152595238Y-113954819D01*
X152595238Y-113954819D02*
X152690476Y-114002438D01*
X152690476Y-114002438D02*
X152738095Y-114050057D01*
X152738095Y-114050057D02*
X152785714Y-114145295D01*
X152785714Y-114145295D02*
X152785714Y-114240533D01*
X152785714Y-114240533D02*
X152738095Y-114383390D01*
X152738095Y-114383390D02*
X152166667Y-114954819D01*
X152166667Y-114954819D02*
X152785714Y-114954819D01*
X161954819Y-95832857D02*
X161478628Y-96166190D01*
X161954819Y-96404285D02*
X160954819Y-96404285D01*
X160954819Y-96404285D02*
X160954819Y-96023333D01*
X160954819Y-96023333D02*
X161002438Y-95928095D01*
X161002438Y-95928095D02*
X161050057Y-95880476D01*
X161050057Y-95880476D02*
X161145295Y-95832857D01*
X161145295Y-95832857D02*
X161288152Y-95832857D01*
X161288152Y-95832857D02*
X161383390Y-95880476D01*
X161383390Y-95880476D02*
X161431009Y-95928095D01*
X161431009Y-95928095D02*
X161478628Y-96023333D01*
X161478628Y-96023333D02*
X161478628Y-96404285D01*
X161050057Y-95451904D02*
X161002438Y-95404285D01*
X161002438Y-95404285D02*
X160954819Y-95309047D01*
X160954819Y-95309047D02*
X160954819Y-95070952D01*
X160954819Y-95070952D02*
X161002438Y-94975714D01*
X161002438Y-94975714D02*
X161050057Y-94928095D01*
X161050057Y-94928095D02*
X161145295Y-94880476D01*
X161145295Y-94880476D02*
X161240533Y-94880476D01*
X161240533Y-94880476D02*
X161383390Y-94928095D01*
X161383390Y-94928095D02*
X161954819Y-95499523D01*
X161954819Y-95499523D02*
X161954819Y-94880476D01*
X161954819Y-93928095D02*
X161954819Y-94499523D01*
X161954819Y-94213809D02*
X160954819Y-94213809D01*
X160954819Y-94213809D02*
X161097676Y-94309047D01*
X161097676Y-94309047D02*
X161192914Y-94404285D01*
X161192914Y-94404285D02*
X161240533Y-94499523D01*
X140454819Y-95832857D02*
X139978628Y-96166190D01*
X140454819Y-96404285D02*
X139454819Y-96404285D01*
X139454819Y-96404285D02*
X139454819Y-96023333D01*
X139454819Y-96023333D02*
X139502438Y-95928095D01*
X139502438Y-95928095D02*
X139550057Y-95880476D01*
X139550057Y-95880476D02*
X139645295Y-95832857D01*
X139645295Y-95832857D02*
X139788152Y-95832857D01*
X139788152Y-95832857D02*
X139883390Y-95880476D01*
X139883390Y-95880476D02*
X139931009Y-95928095D01*
X139931009Y-95928095D02*
X139978628Y-96023333D01*
X139978628Y-96023333D02*
X139978628Y-96404285D01*
X140454819Y-94880476D02*
X140454819Y-95451904D01*
X140454819Y-95166190D02*
X139454819Y-95166190D01*
X139454819Y-95166190D02*
X139597676Y-95261428D01*
X139597676Y-95261428D02*
X139692914Y-95356666D01*
X139692914Y-95356666D02*
X139740533Y-95451904D01*
X139454819Y-94547142D02*
X139454819Y-93928095D01*
X139454819Y-93928095D02*
X139835771Y-94261428D01*
X139835771Y-94261428D02*
X139835771Y-94118571D01*
X139835771Y-94118571D02*
X139883390Y-94023333D01*
X139883390Y-94023333D02*
X139931009Y-93975714D01*
X139931009Y-93975714D02*
X140026247Y-93928095D01*
X140026247Y-93928095D02*
X140264342Y-93928095D01*
X140264342Y-93928095D02*
X140359580Y-93975714D01*
X140359580Y-93975714D02*
X140407200Y-94023333D01*
X140407200Y-94023333D02*
X140454819Y-94118571D01*
X140454819Y-94118571D02*
X140454819Y-94404285D01*
X140454819Y-94404285D02*
X140407200Y-94499523D01*
X140407200Y-94499523D02*
X140359580Y-94547142D01*
X174547142Y-128454819D02*
X174213809Y-127978628D01*
X173975714Y-128454819D02*
X173975714Y-127454819D01*
X173975714Y-127454819D02*
X174356666Y-127454819D01*
X174356666Y-127454819D02*
X174451904Y-127502438D01*
X174451904Y-127502438D02*
X174499523Y-127550057D01*
X174499523Y-127550057D02*
X174547142Y-127645295D01*
X174547142Y-127645295D02*
X174547142Y-127788152D01*
X174547142Y-127788152D02*
X174499523Y-127883390D01*
X174499523Y-127883390D02*
X174451904Y-127931009D01*
X174451904Y-127931009D02*
X174356666Y-127978628D01*
X174356666Y-127978628D02*
X173975714Y-127978628D01*
X175499523Y-128454819D02*
X174928095Y-128454819D01*
X175213809Y-128454819D02*
X175213809Y-127454819D01*
X175213809Y-127454819D02*
X175118571Y-127597676D01*
X175118571Y-127597676D02*
X175023333Y-127692914D01*
X175023333Y-127692914D02*
X174928095Y-127740533D01*
X176118571Y-127454819D02*
X176213809Y-127454819D01*
X176213809Y-127454819D02*
X176309047Y-127502438D01*
X176309047Y-127502438D02*
X176356666Y-127550057D01*
X176356666Y-127550057D02*
X176404285Y-127645295D01*
X176404285Y-127645295D02*
X176451904Y-127835771D01*
X176451904Y-127835771D02*
X176451904Y-128073866D01*
X176451904Y-128073866D02*
X176404285Y-128264342D01*
X176404285Y-128264342D02*
X176356666Y-128359580D01*
X176356666Y-128359580D02*
X176309047Y-128407200D01*
X176309047Y-128407200D02*
X176213809Y-128454819D01*
X176213809Y-128454819D02*
X176118571Y-128454819D01*
X176118571Y-128454819D02*
X176023333Y-128407200D01*
X176023333Y-128407200D02*
X175975714Y-128359580D01*
X175975714Y-128359580D02*
X175928095Y-128264342D01*
X175928095Y-128264342D02*
X175880476Y-128073866D01*
X175880476Y-128073866D02*
X175880476Y-127835771D01*
X175880476Y-127835771D02*
X175928095Y-127645295D01*
X175928095Y-127645295D02*
X175975714Y-127550057D01*
X175975714Y-127550057D02*
X176023333Y-127502438D01*
X176023333Y-127502438D02*
X176118571Y-127454819D01*
X186547142Y-113454819D02*
X186213809Y-112978628D01*
X185975714Y-113454819D02*
X185975714Y-112454819D01*
X185975714Y-112454819D02*
X186356666Y-112454819D01*
X186356666Y-112454819D02*
X186451904Y-112502438D01*
X186451904Y-112502438D02*
X186499523Y-112550057D01*
X186499523Y-112550057D02*
X186547142Y-112645295D01*
X186547142Y-112645295D02*
X186547142Y-112788152D01*
X186547142Y-112788152D02*
X186499523Y-112883390D01*
X186499523Y-112883390D02*
X186451904Y-112931009D01*
X186451904Y-112931009D02*
X186356666Y-112978628D01*
X186356666Y-112978628D02*
X185975714Y-112978628D01*
X186880476Y-112454819D02*
X187499523Y-112454819D01*
X187499523Y-112454819D02*
X187166190Y-112835771D01*
X187166190Y-112835771D02*
X187309047Y-112835771D01*
X187309047Y-112835771D02*
X187404285Y-112883390D01*
X187404285Y-112883390D02*
X187451904Y-112931009D01*
X187451904Y-112931009D02*
X187499523Y-113026247D01*
X187499523Y-113026247D02*
X187499523Y-113264342D01*
X187499523Y-113264342D02*
X187451904Y-113359580D01*
X187451904Y-113359580D02*
X187404285Y-113407200D01*
X187404285Y-113407200D02*
X187309047Y-113454819D01*
X187309047Y-113454819D02*
X187023333Y-113454819D01*
X187023333Y-113454819D02*
X186928095Y-113407200D01*
X186928095Y-113407200D02*
X186880476Y-113359580D01*
X188451904Y-113454819D02*
X187880476Y-113454819D01*
X188166190Y-113454819D02*
X188166190Y-112454819D01*
X188166190Y-112454819D02*
X188070952Y-112597676D01*
X188070952Y-112597676D02*
X187975714Y-112692914D01*
X187975714Y-112692914D02*
X187880476Y-112740533D01*
X179524819Y-86573333D02*
X180239104Y-86573333D01*
X180239104Y-86573333D02*
X180381961Y-86620952D01*
X180381961Y-86620952D02*
X180477200Y-86716190D01*
X180477200Y-86716190D02*
X180524819Y-86859047D01*
X180524819Y-86859047D02*
X180524819Y-86954285D01*
X179858152Y-85668571D02*
X180524819Y-85668571D01*
X179477200Y-85906666D02*
X180191485Y-86144761D01*
X180191485Y-86144761D02*
X180191485Y-85525714D01*
X146454819Y-95832857D02*
X145978628Y-96166190D01*
X146454819Y-96404285D02*
X145454819Y-96404285D01*
X145454819Y-96404285D02*
X145454819Y-96023333D01*
X145454819Y-96023333D02*
X145502438Y-95928095D01*
X145502438Y-95928095D02*
X145550057Y-95880476D01*
X145550057Y-95880476D02*
X145645295Y-95832857D01*
X145645295Y-95832857D02*
X145788152Y-95832857D01*
X145788152Y-95832857D02*
X145883390Y-95880476D01*
X145883390Y-95880476D02*
X145931009Y-95928095D01*
X145931009Y-95928095D02*
X145978628Y-96023333D01*
X145978628Y-96023333D02*
X145978628Y-96404285D01*
X146454819Y-94880476D02*
X146454819Y-95451904D01*
X146454819Y-95166190D02*
X145454819Y-95166190D01*
X145454819Y-95166190D02*
X145597676Y-95261428D01*
X145597676Y-95261428D02*
X145692914Y-95356666D01*
X145692914Y-95356666D02*
X145740533Y-95451904D01*
X145883390Y-94309047D02*
X145835771Y-94404285D01*
X145835771Y-94404285D02*
X145788152Y-94451904D01*
X145788152Y-94451904D02*
X145692914Y-94499523D01*
X145692914Y-94499523D02*
X145645295Y-94499523D01*
X145645295Y-94499523D02*
X145550057Y-94451904D01*
X145550057Y-94451904D02*
X145502438Y-94404285D01*
X145502438Y-94404285D02*
X145454819Y-94309047D01*
X145454819Y-94309047D02*
X145454819Y-94118571D01*
X145454819Y-94118571D02*
X145502438Y-94023333D01*
X145502438Y-94023333D02*
X145550057Y-93975714D01*
X145550057Y-93975714D02*
X145645295Y-93928095D01*
X145645295Y-93928095D02*
X145692914Y-93928095D01*
X145692914Y-93928095D02*
X145788152Y-93975714D01*
X145788152Y-93975714D02*
X145835771Y-94023333D01*
X145835771Y-94023333D02*
X145883390Y-94118571D01*
X145883390Y-94118571D02*
X145883390Y-94309047D01*
X145883390Y-94309047D02*
X145931009Y-94404285D01*
X145931009Y-94404285D02*
X145978628Y-94451904D01*
X145978628Y-94451904D02*
X146073866Y-94499523D01*
X146073866Y-94499523D02*
X146264342Y-94499523D01*
X146264342Y-94499523D02*
X146359580Y-94451904D01*
X146359580Y-94451904D02*
X146407200Y-94404285D01*
X146407200Y-94404285D02*
X146454819Y-94309047D01*
X146454819Y-94309047D02*
X146454819Y-94118571D01*
X146454819Y-94118571D02*
X146407200Y-94023333D01*
X146407200Y-94023333D02*
X146359580Y-93975714D01*
X146359580Y-93975714D02*
X146264342Y-93928095D01*
X146264342Y-93928095D02*
X146073866Y-93928095D01*
X146073866Y-93928095D02*
X145978628Y-93975714D01*
X145978628Y-93975714D02*
X145931009Y-94023333D01*
X145931009Y-94023333D02*
X145883390Y-94118571D01*
X123023333Y-113454819D02*
X122690000Y-112978628D01*
X122451905Y-113454819D02*
X122451905Y-112454819D01*
X122451905Y-112454819D02*
X122832857Y-112454819D01*
X122832857Y-112454819D02*
X122928095Y-112502438D01*
X122928095Y-112502438D02*
X122975714Y-112550057D01*
X122975714Y-112550057D02*
X123023333Y-112645295D01*
X123023333Y-112645295D02*
X123023333Y-112788152D01*
X123023333Y-112788152D02*
X122975714Y-112883390D01*
X122975714Y-112883390D02*
X122928095Y-112931009D01*
X122928095Y-112931009D02*
X122832857Y-112978628D01*
X122832857Y-112978628D02*
X122451905Y-112978628D01*
X123928095Y-112454819D02*
X123451905Y-112454819D01*
X123451905Y-112454819D02*
X123404286Y-112931009D01*
X123404286Y-112931009D02*
X123451905Y-112883390D01*
X123451905Y-112883390D02*
X123547143Y-112835771D01*
X123547143Y-112835771D02*
X123785238Y-112835771D01*
X123785238Y-112835771D02*
X123880476Y-112883390D01*
X123880476Y-112883390D02*
X123928095Y-112931009D01*
X123928095Y-112931009D02*
X123975714Y-113026247D01*
X123975714Y-113026247D02*
X123975714Y-113264342D01*
X123975714Y-113264342D02*
X123928095Y-113359580D01*
X123928095Y-113359580D02*
X123880476Y-113407200D01*
X123880476Y-113407200D02*
X123785238Y-113454819D01*
X123785238Y-113454819D02*
X123547143Y-113454819D01*
X123547143Y-113454819D02*
X123451905Y-113407200D01*
X123451905Y-113407200D02*
X123404286Y-113359580D01*
X127954819Y-95166666D02*
X127478628Y-95499999D01*
X127954819Y-95738094D02*
X126954819Y-95738094D01*
X126954819Y-95738094D02*
X126954819Y-95357142D01*
X126954819Y-95357142D02*
X127002438Y-95261904D01*
X127002438Y-95261904D02*
X127050057Y-95214285D01*
X127050057Y-95214285D02*
X127145295Y-95166666D01*
X127145295Y-95166666D02*
X127288152Y-95166666D01*
X127288152Y-95166666D02*
X127383390Y-95214285D01*
X127383390Y-95214285D02*
X127431009Y-95261904D01*
X127431009Y-95261904D02*
X127478628Y-95357142D01*
X127478628Y-95357142D02*
X127478628Y-95738094D01*
X126954819Y-94833332D02*
X126954819Y-94166666D01*
X126954819Y-94166666D02*
X127954819Y-94595237D01*
D13*
X174470000Y-102959000D02*
X174010000Y-102959000D01*
D14*
X174470000Y-102959000D02*
X174470000Y-104864000D01*
D13*
X174470000Y-108801000D02*
X174010000Y-108801000D01*
D14*
X174470000Y-108801000D02*
X174470000Y-106896000D01*
X174470000Y-106896000D02*
G75*
G02*
X174470000Y-104864000I0J1016000D01*
G01*
D15*
X116570000Y-83640000D02*
X116570000Y-84970000D01*
X116570000Y-86240000D02*
X116570000Y-88840000D01*
X116570000Y-88840000D02*
X126850000Y-88840000D01*
X117900000Y-83640000D02*
X116570000Y-83640000D01*
X119170000Y-83640000D02*
X119170000Y-86240000D01*
X119170000Y-83640000D02*
X126850000Y-83640000D01*
X119170000Y-86240000D02*
X116570000Y-86240000D01*
X126850000Y-83640000D02*
X126850000Y-88840000D01*
X159570000Y-83640000D02*
X159570000Y-84970000D01*
X159570000Y-86240000D02*
X159570000Y-88840000D01*
X159570000Y-88840000D02*
X169850000Y-88840000D01*
X160900000Y-83640000D02*
X159570000Y-83640000D01*
X162170000Y-83640000D02*
X162170000Y-86240000D01*
X162170000Y-83640000D02*
X169850000Y-83640000D01*
X162170000Y-86240000D02*
X159570000Y-86240000D01*
X169850000Y-83640000D02*
X169850000Y-88840000D01*
D13*
X131660000Y-102889000D02*
X131200000Y-102889000D01*
D14*
X131660000Y-102889000D02*
X131660000Y-104794000D01*
D13*
X131660000Y-108731000D02*
X131200000Y-108731000D01*
D14*
X131660000Y-108731000D02*
X131660000Y-106826000D01*
X131660000Y-106826000D02*
G75*
G02*
X131660000Y-104794000I0J1016000D01*
G01*
D15*
X193630000Y-91920000D02*
X193630000Y-98460000D01*
X193630000Y-98460000D02*
X193960000Y-98460000D01*
X193960000Y-91920000D02*
X193630000Y-91920000D01*
X196040000Y-91920000D02*
X196370000Y-91920000D01*
X196370000Y-91920000D02*
X196370000Y-98460000D01*
X196370000Y-98460000D02*
X196040000Y-98460000D01*
X135630000Y-91920000D02*
X135960000Y-91920000D01*
X135630000Y-98460000D02*
X135630000Y-91920000D01*
X135960000Y-98460000D02*
X135630000Y-98460000D01*
X138040000Y-98460000D02*
X138370000Y-98460000D01*
X138370000Y-91920000D02*
X138040000Y-91920000D01*
X138370000Y-98460000D02*
X138370000Y-91920000D01*
X132630000Y-91920000D02*
X132960000Y-91920000D01*
X132630000Y-98460000D02*
X132630000Y-91920000D01*
X132960000Y-98460000D02*
X132630000Y-98460000D01*
X135040000Y-98460000D02*
X135370000Y-98460000D01*
X135370000Y-91920000D02*
X135040000Y-91920000D01*
X135370000Y-98460000D02*
X135370000Y-91920000D01*
X125420000Y-126630000D02*
X131960000Y-126630000D01*
X125420000Y-126960000D02*
X125420000Y-126630000D01*
X125420000Y-129040000D02*
X125420000Y-129370000D01*
X125420000Y-129370000D02*
X131960000Y-129370000D01*
X131960000Y-126630000D02*
X131960000Y-126960000D01*
X131960000Y-129370000D02*
X131960000Y-129040000D01*
X166130000Y-91920000D02*
X166130000Y-98460000D01*
X166130000Y-98460000D02*
X166460000Y-98460000D01*
X166460000Y-91920000D02*
X166130000Y-91920000D01*
X168540000Y-91920000D02*
X168870000Y-91920000D01*
X168870000Y-91920000D02*
X168870000Y-98460000D01*
X168870000Y-98460000D02*
X168540000Y-98460000D01*
X169130000Y-91920000D02*
X169130000Y-98460000D01*
X169130000Y-98460000D02*
X169460000Y-98460000D01*
X169460000Y-91920000D02*
X169130000Y-91920000D01*
X171540000Y-91920000D02*
X171870000Y-91920000D01*
X171870000Y-91920000D02*
X171870000Y-98460000D01*
X171870000Y-98460000D02*
X171540000Y-98460000D01*
X120130000Y-91920000D02*
X120460000Y-91920000D01*
X120130000Y-98460000D02*
X120130000Y-91920000D01*
X120460000Y-98460000D02*
X120130000Y-98460000D01*
X122540000Y-98460000D02*
X122870000Y-98460000D01*
X122870000Y-91920000D02*
X122540000Y-91920000D01*
X122870000Y-98460000D02*
X122870000Y-91920000D01*
X123130000Y-91920000D02*
X123130000Y-98460000D01*
X123130000Y-98460000D02*
X123460000Y-98460000D01*
X123460000Y-91920000D02*
X123130000Y-91920000D01*
X125540000Y-91920000D02*
X125870000Y-91920000D01*
X125870000Y-91920000D02*
X125870000Y-98460000D01*
X125870000Y-98460000D02*
X125540000Y-98460000D01*
X184630000Y-91920000D02*
X184960000Y-91920000D01*
X184630000Y-98460000D02*
X184630000Y-91920000D01*
X184960000Y-98460000D02*
X184630000Y-98460000D01*
X187040000Y-98460000D02*
X187370000Y-98460000D01*
X187370000Y-91920000D02*
X187040000Y-91920000D01*
X187370000Y-98460000D02*
X187370000Y-91920000D01*
D13*
X144380000Y-116030000D02*
X144380000Y-138730000D01*
X144380000Y-116030000D02*
X162380000Y-116030000D01*
X144380000Y-138730000D02*
X148880000Y-138730000D01*
X148880000Y-140030000D02*
X148880000Y-138730000D01*
X148880000Y-140030000D02*
X157880000Y-140030000D01*
X157880000Y-138730000D02*
X162380000Y-138730000D01*
X157880000Y-140030000D02*
X157880000Y-138730000D01*
X162380000Y-116030000D02*
X162380000Y-138730000D01*
D15*
X111130000Y-91920000D02*
X111460000Y-91920000D01*
X111130000Y-98460000D02*
X111130000Y-91920000D01*
X111460000Y-98460000D02*
X111130000Y-98460000D01*
X113540000Y-98460000D02*
X113870000Y-98460000D01*
X113870000Y-91920000D02*
X113540000Y-91920000D01*
X113870000Y-98460000D02*
X113870000Y-91920000D01*
X150630000Y-91920000D02*
X150630000Y-98460000D01*
X150630000Y-98460000D02*
X150960000Y-98460000D01*
X150960000Y-91920000D02*
X150630000Y-91920000D01*
X153040000Y-91920000D02*
X153370000Y-91920000D01*
X153370000Y-91920000D02*
X153370000Y-98460000D01*
X153370000Y-98460000D02*
X153040000Y-98460000D01*
X141630000Y-91920000D02*
X141960000Y-91920000D01*
X141630000Y-98460000D02*
X141630000Y-91920000D01*
X141960000Y-98460000D02*
X141630000Y-98460000D01*
X144040000Y-98460000D02*
X144370000Y-98460000D01*
X144370000Y-91920000D02*
X144040000Y-91920000D01*
X144370000Y-98460000D02*
X144370000Y-91920000D01*
X172130000Y-91920000D02*
X172130000Y-98460000D01*
X172130000Y-98460000D02*
X172460000Y-98460000D01*
X172460000Y-91920000D02*
X172130000Y-91920000D01*
X174540000Y-91920000D02*
X174870000Y-91920000D01*
X174870000Y-91920000D02*
X174870000Y-98460000D01*
X174870000Y-98460000D02*
X174540000Y-98460000D01*
D13*
X196010000Y-102889000D02*
X195550000Y-102889000D01*
D14*
X196010000Y-102889000D02*
X196010000Y-104794000D01*
D13*
X196010000Y-108731000D02*
X195550000Y-108731000D01*
D14*
X196010000Y-108731000D02*
X196010000Y-106826000D01*
X196010000Y-106826000D02*
G75*
G02*
X196010000Y-104794000I0J1016000D01*
G01*
D15*
X130121000Y-111580000D02*
X131379000Y-111580000D01*
X130121000Y-113420000D02*
X131379000Y-113420000D01*
X114130000Y-91920000D02*
X114460000Y-91920000D01*
X114130000Y-98460000D02*
X114130000Y-91920000D01*
X114460000Y-98460000D02*
X114130000Y-98460000D01*
X116540000Y-98460000D02*
X116870000Y-98460000D01*
X116870000Y-91920000D02*
X116540000Y-91920000D01*
X116870000Y-98460000D02*
X116870000Y-91920000D01*
X147630000Y-91920000D02*
X147630000Y-98460000D01*
X147630000Y-98460000D02*
X147960000Y-98460000D01*
X147960000Y-91920000D02*
X147630000Y-91920000D01*
X150040000Y-91920000D02*
X150370000Y-91920000D01*
X150370000Y-91920000D02*
X150370000Y-98460000D01*
X150370000Y-98460000D02*
X150040000Y-98460000D01*
X162920000Y-111630000D02*
X169460000Y-111630000D01*
X162920000Y-111960000D02*
X162920000Y-111630000D01*
X162920000Y-114040000D02*
X162920000Y-114370000D01*
X162920000Y-114370000D02*
X169460000Y-114370000D01*
X169460000Y-111630000D02*
X169460000Y-111960000D01*
X169460000Y-114370000D02*
X169460000Y-114040000D01*
X173500000Y-132500000D02*
X173500000Y-137000000D01*
X176000000Y-138250000D02*
X177500000Y-138250000D01*
X177500000Y-131250000D02*
X176000000Y-131250000D01*
X180000000Y-137000000D02*
X180000000Y-132500000D01*
X190630000Y-91920000D02*
X190630000Y-98460000D01*
X190630000Y-98460000D02*
X190960000Y-98460000D01*
X190960000Y-91920000D02*
X190630000Y-91920000D01*
X193040000Y-91920000D02*
X193370000Y-91920000D01*
X193370000Y-91920000D02*
X193370000Y-98460000D01*
X193370000Y-98460000D02*
X193040000Y-98460000D01*
X163130000Y-91920000D02*
X163460000Y-91920000D01*
X163130000Y-98460000D02*
X163130000Y-91920000D01*
X163460000Y-98460000D02*
X163130000Y-98460000D01*
X165540000Y-98460000D02*
X165870000Y-98460000D01*
X165870000Y-91920000D02*
X165540000Y-91920000D01*
X165870000Y-98460000D02*
X165870000Y-91920000D01*
X181630000Y-91920000D02*
X181960000Y-91920000D01*
X181630000Y-98460000D02*
X181630000Y-91920000D01*
X181960000Y-98460000D02*
X181630000Y-98460000D01*
X184040000Y-98460000D02*
X184370000Y-98460000D01*
X184370000Y-91920000D02*
X184040000Y-91920000D01*
X184370000Y-98460000D02*
X184370000Y-91920000D01*
X175630000Y-91920000D02*
X175960000Y-91920000D01*
X175630000Y-98460000D02*
X175630000Y-91920000D01*
X175960000Y-98460000D02*
X175630000Y-98460000D01*
X178040000Y-98460000D02*
X178370000Y-98460000D01*
X178370000Y-91920000D02*
X178040000Y-91920000D01*
X178370000Y-98460000D02*
X178370000Y-91920000D01*
X173121000Y-111580000D02*
X174379000Y-111580000D01*
X173121000Y-113420000D02*
X174379000Y-113420000D01*
X141170000Y-111630000D02*
X147710000Y-111630000D01*
X141170000Y-111960000D02*
X141170000Y-111630000D01*
X141170000Y-114040000D02*
X141170000Y-114370000D01*
X141170000Y-114370000D02*
X147710000Y-114370000D01*
X147710000Y-111630000D02*
X147710000Y-111960000D01*
X147710000Y-114370000D02*
X147710000Y-114040000D01*
X157130000Y-91920000D02*
X157460000Y-91920000D01*
X157130000Y-98460000D02*
X157130000Y-91920000D01*
X157460000Y-98460000D02*
X157130000Y-98460000D01*
X159540000Y-98460000D02*
X159870000Y-98460000D01*
X159870000Y-91920000D02*
X159540000Y-91920000D01*
X159870000Y-98460000D02*
X159870000Y-91920000D01*
X194121000Y-111580000D02*
X195379000Y-111580000D01*
X194121000Y-113420000D02*
X195379000Y-113420000D01*
D13*
X152970000Y-102959000D02*
X152510000Y-102959000D01*
D14*
X152970000Y-102959000D02*
X152970000Y-104864000D01*
D13*
X152970000Y-108801000D02*
X152510000Y-108801000D01*
D14*
X152970000Y-108801000D02*
X152970000Y-106896000D01*
X152970000Y-106896000D02*
G75*
G02*
X152970000Y-104864000I0J1016000D01*
G01*
D15*
X127000000Y-132500000D02*
X127000000Y-137000000D01*
X129500000Y-138250000D02*
X131000000Y-138250000D01*
X131000000Y-131250000D02*
X129500000Y-131250000D01*
X133500000Y-137000000D02*
X133500000Y-132500000D01*
X187630000Y-91920000D02*
X187630000Y-98460000D01*
X187630000Y-98460000D02*
X187960000Y-98460000D01*
X187960000Y-91920000D02*
X187630000Y-91920000D01*
X190040000Y-91920000D02*
X190370000Y-91920000D01*
X190370000Y-91920000D02*
X190370000Y-98460000D01*
X190370000Y-98460000D02*
X190040000Y-98460000D01*
X178630000Y-91920000D02*
X178960000Y-91920000D01*
X178630000Y-98460000D02*
X178630000Y-91920000D01*
X178960000Y-98460000D02*
X178630000Y-98460000D01*
X181040000Y-98460000D02*
X181370000Y-98460000D01*
X181370000Y-91920000D02*
X181040000Y-91920000D01*
X181370000Y-98460000D02*
X181370000Y-91920000D01*
X117130000Y-91920000D02*
X117460000Y-91920000D01*
X117130000Y-98460000D02*
X117130000Y-91920000D01*
X117460000Y-98460000D02*
X117130000Y-98460000D01*
X119540000Y-98460000D02*
X119870000Y-98460000D01*
X119870000Y-91920000D02*
X119540000Y-91920000D01*
X119870000Y-98460000D02*
X119870000Y-91920000D01*
X129130000Y-91920000D02*
X129130000Y-98460000D01*
X129130000Y-98460000D02*
X129460000Y-98460000D01*
X129460000Y-91920000D02*
X129130000Y-91920000D01*
X131540000Y-91920000D02*
X131870000Y-91920000D01*
X131870000Y-91920000D02*
X131870000Y-98460000D01*
X131870000Y-98460000D02*
X131540000Y-98460000D01*
X154130000Y-91920000D02*
X154460000Y-91920000D01*
X154130000Y-98460000D02*
X154130000Y-91920000D01*
X154460000Y-98460000D02*
X154130000Y-98460000D01*
X156540000Y-98460000D02*
X156870000Y-98460000D01*
X156870000Y-91920000D02*
X156540000Y-91920000D01*
X156870000Y-98460000D02*
X156870000Y-91920000D01*
X138110000Y-83640000D02*
X138110000Y-84970000D01*
X138110000Y-86240000D02*
X138110000Y-88840000D01*
X138110000Y-88840000D02*
X148390000Y-88840000D01*
X139440000Y-83640000D02*
X138110000Y-83640000D01*
X140710000Y-83640000D02*
X140710000Y-86240000D01*
X140710000Y-83640000D02*
X148390000Y-83640000D01*
X140710000Y-86240000D02*
X138110000Y-86240000D01*
X148390000Y-83640000D02*
X148390000Y-88840000D01*
X151371000Y-111580000D02*
X152629000Y-111580000D01*
X151371000Y-113420000D02*
X152629000Y-113420000D01*
X160130000Y-91920000D02*
X160460000Y-91920000D01*
X160130000Y-98460000D02*
X160130000Y-91920000D01*
X160460000Y-98460000D02*
X160130000Y-98460000D01*
X162540000Y-98460000D02*
X162870000Y-98460000D01*
X162870000Y-91920000D02*
X162540000Y-91920000D01*
X162870000Y-98460000D02*
X162870000Y-91920000D01*
X138630000Y-91920000D02*
X138960000Y-91920000D01*
X138630000Y-98460000D02*
X138630000Y-91920000D01*
X138960000Y-98460000D02*
X138630000Y-98460000D01*
X141040000Y-98460000D02*
X141370000Y-98460000D01*
X141370000Y-91920000D02*
X141040000Y-91920000D01*
X141370000Y-98460000D02*
X141370000Y-91920000D01*
X171920000Y-126630000D02*
X178460000Y-126630000D01*
X171920000Y-126960000D02*
X171920000Y-126630000D01*
X171920000Y-129040000D02*
X171920000Y-129370000D01*
X171920000Y-129370000D02*
X178460000Y-129370000D01*
X178460000Y-126630000D02*
X178460000Y-126960000D01*
X178460000Y-129370000D02*
X178460000Y-129040000D01*
X183920000Y-111630000D02*
X190460000Y-111630000D01*
X183920000Y-111960000D02*
X183920000Y-111630000D01*
X183920000Y-114040000D02*
X183920000Y-114370000D01*
X183920000Y-114370000D02*
X190460000Y-114370000D01*
X190460000Y-111630000D02*
X190460000Y-111960000D01*
X190460000Y-114370000D02*
X190460000Y-114040000D01*
X181070000Y-83640000D02*
X181070000Y-84970000D01*
X181070000Y-86240000D02*
X181070000Y-88840000D01*
X181070000Y-88840000D02*
X191350000Y-88840000D01*
X182400000Y-83640000D02*
X181070000Y-83640000D01*
X183670000Y-83640000D02*
X183670000Y-86240000D01*
X183670000Y-83640000D02*
X191350000Y-83640000D01*
X183670000Y-86240000D02*
X181070000Y-86240000D01*
X191350000Y-83640000D02*
X191350000Y-88840000D01*
X144630000Y-91920000D02*
X144630000Y-98460000D01*
X144630000Y-98460000D02*
X144960000Y-98460000D01*
X144960000Y-91920000D02*
X144630000Y-91920000D01*
X147040000Y-91920000D02*
X147370000Y-91920000D01*
X147370000Y-91920000D02*
X147370000Y-98460000D01*
X147370000Y-98460000D02*
X147040000Y-98460000D01*
X119920000Y-111630000D02*
X126460000Y-111630000D01*
X119920000Y-111960000D02*
X119920000Y-111630000D01*
X119920000Y-114040000D02*
X119920000Y-114370000D01*
X119920000Y-114370000D02*
X126460000Y-114370000D01*
X126460000Y-111630000D02*
X126460000Y-111960000D01*
X126460000Y-114370000D02*
X126460000Y-114040000D01*
X126130000Y-91920000D02*
X126130000Y-98460000D01*
X126130000Y-98460000D02*
X126460000Y-98460000D01*
X126460000Y-91920000D02*
X126130000Y-91920000D01*
X128540000Y-91920000D02*
X128870000Y-91920000D01*
X128870000Y-91920000D02*
X128870000Y-98460000D01*
X128870000Y-98460000D02*
X128540000Y-98460000D01*
%LPC*%
D16*
X173200000Y-102070000D03*
X170660000Y-102070000D03*
X168120000Y-102070000D03*
X165580000Y-102070000D03*
X163040000Y-102070000D03*
X160500000Y-102070000D03*
X157960000Y-102070000D03*
X155420000Y-102070000D03*
X155420000Y-109690000D03*
X157960000Y-109690000D03*
X160500000Y-109690000D03*
X163040000Y-109690000D03*
X165580000Y-109690000D03*
X168120000Y-109690000D03*
X170660000Y-109690000D03*
X173200000Y-109690000D03*
D17*
X197500000Y-136500000D03*
D18*
X197500000Y-136500000D03*
D19*
X117900000Y-84970000D03*
D20*
X120440000Y-84970000D03*
X122980000Y-84970000D03*
X125400000Y-84970000D03*
X125520000Y-87510000D03*
X122980000Y-87510000D03*
X120440000Y-87510000D03*
X117900000Y-87510000D03*
D19*
X160900000Y-84970000D03*
D20*
X163440000Y-84970000D03*
X165980000Y-84970000D03*
X168400000Y-84970000D03*
X168520000Y-87510000D03*
X165980000Y-87510000D03*
X163440000Y-87510000D03*
X160900000Y-87510000D03*
D17*
X197500000Y-84000000D03*
D18*
X197500000Y-84000000D03*
D16*
X130390000Y-102000000D03*
X127850000Y-102000000D03*
X125310000Y-102000000D03*
X122770000Y-102000000D03*
X120230000Y-102000000D03*
X117690000Y-102000000D03*
X115150000Y-102000000D03*
X112610000Y-102000000D03*
X112610000Y-109620000D03*
X115150000Y-109620000D03*
X117690000Y-109620000D03*
X120230000Y-109620000D03*
X122770000Y-109620000D03*
X125310000Y-109620000D03*
X127850000Y-109620000D03*
X130390000Y-109620000D03*
D21*
X195000000Y-91380000D03*
D22*
X195000000Y-99000000D03*
D21*
X137000000Y-99000000D03*
D22*
X137000000Y-91380000D03*
D23*
X175500000Y-83500000D03*
D24*
X175500000Y-83500000D03*
D21*
X134000000Y-99000000D03*
D22*
X134000000Y-91380000D03*
D21*
X124880000Y-128000000D03*
D22*
X132500000Y-128000000D03*
D23*
X132500000Y-84000000D03*
D24*
X132500000Y-84000000D03*
D21*
X167500000Y-91380000D03*
D22*
X167500000Y-99000000D03*
D21*
X170500000Y-91380000D03*
D22*
X170500000Y-99000000D03*
D21*
X121500000Y-99000000D03*
D22*
X121500000Y-91380000D03*
D21*
X124500000Y-91380000D03*
D22*
X124500000Y-99000000D03*
D21*
X186000000Y-99000000D03*
D22*
X186000000Y-91380000D03*
D25*
X145760000Y-119500000D03*
X145760000Y-122040000D03*
X145760000Y-124580000D03*
X145760000Y-127120000D03*
X145760000Y-132200000D03*
X145760000Y-129660000D03*
X161000000Y-137280000D03*
X145760000Y-137280000D03*
X161000000Y-134740000D03*
X161000000Y-132200000D03*
X161000000Y-129660000D03*
X161000000Y-127120000D03*
X161000000Y-124580000D03*
X161000000Y-122040000D03*
X161000000Y-119500000D03*
X145760000Y-134740000D03*
D21*
X112500000Y-99000000D03*
D22*
X112500000Y-91380000D03*
D21*
X152000000Y-91380000D03*
D22*
X152000000Y-99000000D03*
D21*
X143000000Y-99000000D03*
D22*
X143000000Y-91380000D03*
D21*
X173500000Y-91380000D03*
D22*
X173500000Y-99000000D03*
D16*
X194740000Y-102000000D03*
X192200000Y-102000000D03*
X189660000Y-102000000D03*
X187120000Y-102000000D03*
X184580000Y-102000000D03*
X182040000Y-102000000D03*
X179500000Y-102000000D03*
X176960000Y-102000000D03*
X176960000Y-109620000D03*
X179500000Y-109620000D03*
X182040000Y-109620000D03*
X184580000Y-109620000D03*
X187120000Y-109620000D03*
X189660000Y-109620000D03*
X192200000Y-109620000D03*
X194740000Y-109620000D03*
D21*
X129500000Y-112500000D03*
X132000000Y-112500000D03*
X115500000Y-99000000D03*
D22*
X115500000Y-91380000D03*
D21*
X149000000Y-91380000D03*
D22*
X149000000Y-99000000D03*
D21*
X162380000Y-113000000D03*
D22*
X170000000Y-113000000D03*
D26*
X174500000Y-138000000D03*
X174500000Y-131500000D03*
X179000000Y-138000000D03*
X179000000Y-131500000D03*
D17*
X111500000Y-84000000D03*
D18*
X111500000Y-84000000D03*
D21*
X192000000Y-91380000D03*
D22*
X192000000Y-99000000D03*
D21*
X164500000Y-99000000D03*
D22*
X164500000Y-91380000D03*
D21*
X183000000Y-99000000D03*
D22*
X183000000Y-91380000D03*
D21*
X177000000Y-99000000D03*
D22*
X177000000Y-91380000D03*
D21*
X172500000Y-112500000D03*
X175000000Y-112500000D03*
X140630000Y-113000000D03*
D22*
X148250000Y-113000000D03*
D21*
X158500000Y-99000000D03*
D22*
X158500000Y-91380000D03*
D21*
X193500000Y-112500000D03*
X196000000Y-112500000D03*
D16*
X151700000Y-102070000D03*
X149160000Y-102070000D03*
X146620000Y-102070000D03*
X144080000Y-102070000D03*
X141540000Y-102070000D03*
X139000000Y-102070000D03*
X136460000Y-102070000D03*
X133920000Y-102070000D03*
X133920000Y-109690000D03*
X136460000Y-109690000D03*
X139000000Y-109690000D03*
X141540000Y-109690000D03*
X144080000Y-109690000D03*
X146620000Y-109690000D03*
X149160000Y-109690000D03*
X151700000Y-109690000D03*
D26*
X128000000Y-138000000D03*
X128000000Y-131500000D03*
X132500000Y-138000000D03*
X132500000Y-131500000D03*
D21*
X189000000Y-91380000D03*
D22*
X189000000Y-99000000D03*
D21*
X180000000Y-99000000D03*
D22*
X180000000Y-91380000D03*
D21*
X118500000Y-99000000D03*
D22*
X118500000Y-91380000D03*
D17*
X111500000Y-136500000D03*
D18*
X111500000Y-136500000D03*
D21*
X130500000Y-91380000D03*
D22*
X130500000Y-99000000D03*
D21*
X155500000Y-99000000D03*
D22*
X155500000Y-91380000D03*
D19*
X139440000Y-84970000D03*
D20*
X141980000Y-84970000D03*
X144520000Y-84970000D03*
X146940000Y-84970000D03*
X147060000Y-87510000D03*
X144520000Y-87510000D03*
X141980000Y-87510000D03*
X139440000Y-87510000D03*
D21*
X150750000Y-112500000D03*
X153250000Y-112500000D03*
X161500000Y-99000000D03*
D22*
X161500000Y-91380000D03*
D21*
X140000000Y-99000000D03*
D22*
X140000000Y-91380000D03*
D21*
X171380000Y-128000000D03*
D22*
X179000000Y-128000000D03*
D21*
X183380000Y-113000000D03*
D22*
X191000000Y-113000000D03*
D19*
X182400000Y-84970000D03*
D20*
X184940000Y-84970000D03*
X187480000Y-84970000D03*
X189900000Y-84970000D03*
X190020000Y-87510000D03*
X187480000Y-87510000D03*
X184940000Y-87510000D03*
X182400000Y-87510000D03*
D21*
X146000000Y-91380000D03*
D22*
X146000000Y-99000000D03*
D21*
X119380000Y-113000000D03*
D22*
X127000000Y-113000000D03*
D21*
X127500000Y-91380000D03*
D22*
X127500000Y-99000000D03*
%LPD*%
M02*
