M48
; DRILL file {KiCad 8.0.0} date 2024-03-17T17:04:53+0000
; FORMAT={-:-/ absolute / metric / decimal}
; #@! TF.CreationDate,2024-03-17T17:04:53+00:00
; #@! TF.GenerationSoftware,Kicad,Pcbnew,8.0.0
; #@! TF.FileFunction,Plated,1,2,PTH
FMAT,2
METRIC
; #@! TA.AperFunction,Plated,PTH,ViaDrill
T1C0.300
; #@! TA.AperFunction,Plated,PTH,ComponentDrill
T2C0.800
; #@! TA.AperFunction,Plated,PTH,ComponentDrill
T3C0.813
; #@! TA.AperFunction,Plated,PTH,ComponentDrill
T4C1.000
; #@! TA.AperFunction,Plated,PTH,ComponentDrill
T5C1.100
; #@! TA.AperFunction,Plated,PTH,ComponentDrill
T6C1.270
; #@! TA.AperFunction,Plated,PTH,ComponentDrill
T7C2.200
; #@! TA.AperFunction,Plated,PTH,ComponentDrill
T8C2.700
%
G90
G05
T1
X118.5Y-106.0
X129.0Y-107.0
X135.0Y-106.0
X135.5Y-115.0
X143.0Y-105.0
X151.0Y-118.0
X156.0Y-104.0
X157.0Y-107.0
X170.0Y-105.0
X174.0Y-106.0
X183.0Y-106.0
T2
X112.5Y-91.38
X112.5Y-99.0
X115.5Y-91.38
X115.5Y-99.0
X118.5Y-91.38
X118.5Y-99.0
X119.38Y-113.0
X121.5Y-91.38
X121.5Y-99.0
X124.5Y-91.38
X124.5Y-99.0
X124.88Y-128.0
X127.0Y-113.0
X127.5Y-91.38
X127.5Y-99.0
X129.5Y-112.5
X130.5Y-91.38
X130.5Y-99.0
X132.0Y-112.5
X132.5Y-128.0
X134.0Y-91.38
X134.0Y-99.0
X137.0Y-91.38
X137.0Y-99.0
X140.0Y-91.38
X140.0Y-99.0
X140.63Y-113.0
X143.0Y-91.38
X143.0Y-99.0
X146.0Y-91.38
X146.0Y-99.0
X148.25Y-113.0
X149.0Y-91.38
X149.0Y-99.0
X150.75Y-112.5
X152.0Y-91.38
X152.0Y-99.0
X153.25Y-112.5
X155.5Y-91.38
X155.5Y-99.0
X158.5Y-91.38
X158.5Y-99.0
X161.5Y-91.38
X161.5Y-99.0
X162.38Y-113.0
X164.5Y-91.38
X164.5Y-99.0
X167.5Y-91.38
X167.5Y-99.0
X170.0Y-113.0
X170.5Y-91.38
X170.5Y-99.0
X171.38Y-128.0
X172.5Y-112.5
X173.5Y-91.38
X173.5Y-99.0
X175.0Y-112.5
X177.0Y-91.38
X177.0Y-99.0
X179.0Y-128.0
X180.0Y-91.38
X180.0Y-99.0
X183.0Y-91.38
X183.0Y-99.0
X183.38Y-113.0
X186.0Y-91.38
X186.0Y-99.0
X189.0Y-91.38
X189.0Y-99.0
X191.0Y-113.0
X192.0Y-91.38
X192.0Y-99.0
X193.5Y-112.5
X195.0Y-91.38
X195.0Y-99.0
X196.0Y-112.5
T3
X112.61Y-102.0
X112.61Y-109.62
X115.15Y-102.0
X115.15Y-109.62
X117.69Y-102.0
X117.69Y-109.62
X120.23Y-102.0
X120.23Y-109.62
X122.77Y-102.0
X122.77Y-109.62
X125.31Y-102.0
X125.31Y-109.62
X127.85Y-102.0
X127.85Y-109.62
X130.39Y-102.0
X130.39Y-109.62
X133.92Y-102.07
X133.92Y-109.69
X136.46Y-102.07
X136.46Y-109.69
X139.0Y-102.07
X139.0Y-109.69
X141.54Y-102.07
X141.54Y-109.69
X144.08Y-102.07
X144.08Y-109.69
X146.62Y-102.07
X146.62Y-109.69
X149.16Y-102.07
X149.16Y-109.69
X151.7Y-102.07
X151.7Y-109.69
X155.42Y-102.07
X155.42Y-109.69
X157.96Y-102.07
X157.96Y-109.69
X160.5Y-102.07
X160.5Y-109.69
X163.04Y-102.07
X163.04Y-109.69
X165.58Y-102.07
X165.58Y-109.69
X168.12Y-102.07
X168.12Y-109.69
X170.66Y-102.07
X170.66Y-109.69
X173.2Y-102.07
X173.2Y-109.69
X176.96Y-102.0
X176.96Y-109.62
X179.5Y-102.0
X179.5Y-109.62
X182.04Y-102.0
X182.04Y-109.62
X184.58Y-102.0
X184.58Y-109.62
X187.12Y-102.0
X187.12Y-109.62
X189.66Y-102.0
X189.66Y-109.62
X192.2Y-102.0
X192.2Y-109.62
X194.74Y-102.0
X194.74Y-109.62
T4
X117.9Y-84.97
X117.9Y-87.51
X120.44Y-84.97
X120.44Y-87.51
X122.98Y-84.97
X122.98Y-87.51
X125.4Y-84.97
X125.52Y-87.51
X139.44Y-84.97
X139.44Y-87.51
X141.98Y-84.97
X141.98Y-87.51
X144.52Y-84.97
X144.52Y-87.51
X146.94Y-84.97
X147.06Y-87.51
X160.9Y-84.97
X160.9Y-87.51
X163.44Y-84.97
X163.44Y-87.51
X165.98Y-84.97
X165.98Y-87.51
X168.4Y-84.97
X168.52Y-87.51
X182.4Y-84.97
X182.4Y-87.51
X184.94Y-84.97
X184.94Y-87.51
X187.48Y-84.97
X187.48Y-87.51
X189.9Y-84.97
X190.02Y-87.51
T5
X128.0Y-131.5
X128.0Y-138.0
X132.5Y-131.5
X132.5Y-138.0
X174.5Y-131.5
X174.5Y-138.0
X179.0Y-131.5
X179.0Y-138.0
T6
X145.76Y-119.5
X145.76Y-122.04
X145.76Y-124.58
X145.76Y-127.12
X145.76Y-129.66
X145.76Y-132.2
X145.76Y-134.74
X145.76Y-137.28
X161.0Y-119.5
X161.0Y-122.04
X161.0Y-124.58
X161.0Y-127.12
X161.0Y-129.66
X161.0Y-132.2
X161.0Y-134.74
X161.0Y-137.28
T7
X132.5Y-84.0
X175.5Y-83.5
T8
X111.5Y-84.0
X111.5Y-136.5
X197.5Y-84.0
X197.5Y-136.5
M30
